M48
; DRILL file {KiCad 8.0.2-1} date 2024-05-28T01:52:33+0200
; FORMAT={-:-/ absolute / inch / decimal}
; #@! TF.CreationDate,2024-05-28T01:52:33+02:00
; #@! TF.GenerationSoftware,Kicad,Pcbnew,8.0.2-1
; #@! TF.FileFunction,Plated,1,4,PTH
FMAT,2
INCH
; #@! TA.AperFunction,Plated,PTH,ViaDrill
T1C0.0079
; #@! TA.AperFunction,Plated,PTH,ViaDrill
T2C0.0118
; #@! TA.AperFunction,Plated,PTH,ComponentDrill
T3C0.0118
; #@! TA.AperFunction,Plated,PTH,ComponentDrill
T4C0.0197
; #@! TA.AperFunction,Plated,PTH,ComponentDrill
T5C0.0236
; #@! TA.AperFunction,Plated,PTH,ComponentDrill
T6C0.0276
; #@! TA.AperFunction,Plated,PTH,ComponentDrill
T7C0.0315
; #@! TA.AperFunction,Plated,PTH,ComponentDrill
T8C0.0394
; #@! TA.AperFunction,Plated,PTH,ComponentDrill
T9C0.0472
; #@! TA.AperFunction,Plated,PTH,ComponentDrill
T10C0.1378
%
G90
G05
T1
X1.185Y1.1063
X1.2165Y1.1063
X1.2165Y1.0748
X1.2165Y1.0433
X1.2165Y1.0118
X1.2165Y0.9803
X1.2165Y0.9488
X1.2165Y0.8858
X1.2165Y0.8543
X1.248Y0.9488
X1.248Y0.9173
X1.248Y0.8543
X1.2795Y1.0748
X1.2795Y1.0433
X1.2795Y1.0118
X1.2795Y0.9803
X1.2795Y0.9173
X1.2795Y0.8543
X1.311Y1.0748
X1.311Y1.0433
X1.311Y0.9803
X1.311Y0.9488
X1.311Y0.8858
X1.3425Y1.0433
X1.3425Y0.9803
X1.3425Y0.9488
X1.3425Y0.8858
X1.374Y1.1063
X1.374Y1.0748
X1.374Y1.0118
X1.374Y0.9173
X1.374Y0.8858
X1.374Y0.8543
X1.4055Y1.1063
X1.4055Y1.0748
X1.4055Y0.9488
X1.4055Y0.9173
X1.4055Y0.8543
X1.437Y1.0748
X1.437Y1.0433
X1.437Y0.9803
X1.437Y0.9488
X1.437Y0.9173
X1.437Y0.8858
X1.437Y0.8228
X1.4685Y1.0118
T2
X0.1732Y1.0
X0.1988Y1.2992
X0.1988Y1.5354
X0.1988Y1.4567
X0.1988Y1.2205
X0.1988Y0.7087
X0.1988Y0.6299
X0.1988Y0.4724
X0.1988Y1.378
X0.1988Y0.3937
X0.1988Y0.5512
X0.2165Y0.9744
X0.2165Y0.9331
X0.2992Y1.1181
X0.3071Y0.8189
X0.311Y0.9961
X0.311Y0.953
X0.311Y0.9134
X0.3209Y1.5925
X0.3465Y1.7126
X0.3701Y0.1969
X0.378Y1.8504
X0.3819Y1.5354
X0.3819Y0.7087
X0.3819Y0.6299
X0.3819Y0.5512
X0.3819Y0.4724
X0.3819Y0.3937
X0.4193Y1.1732
X0.4252Y1.7126
X0.4449Y0.2835
X0.4614Y0.876
X0.4685Y1.7126
X0.4685Y0.4016
X0.472Y0.0981
X0.5128Y1.5587
X0.5163Y1.7124
X0.5394Y0.3563
X0.5394Y0.3346
X0.5394Y0.313
X0.5394Y0.2913
X0.5394Y0.1181
X0.5394Y0.0964
X0.5512Y1.0098
X0.561Y1.7126
X0.5748Y0.4803
X0.5748Y0.4567
X0.5748Y0.2795
X0.5748Y0.2559
X0.5866Y1.0531
X0.5866Y0.9744
X0.5866Y0.8957
X0.5922Y1.1631
X0.5925Y1.1949
X0.6102Y1.7126
X0.622Y1.1634
X0.626Y0.7677
X0.6608Y1.7132
X0.6614Y1.5591
X0.6614Y1.1634
X0.6693Y0.7283
X0.6772Y0.4803
X0.6772Y0.4567
X0.6772Y0.2795
X0.6772Y0.2559
X0.6929Y1.1634
X0.6929Y0.7697
X0.7028Y0.3051
X0.7028Y0.1092
X0.7047Y0.7283
X0.7106Y1.7126
X0.7283Y0.4587
X0.7283Y0.2579
X0.7382Y0.7283
X0.7559Y0.5591
X0.7598Y1.7126
X0.7694Y0.1398
X0.7697Y0.3602
X0.7697Y0.3327
X0.7697Y0.1594
X0.7717Y0.7283
X0.7874Y0.5591
X0.811Y1.7126
X0.811Y1.5591
X0.811Y0.225
X0.8113Y0.2635
X0.8189Y0.5591
X0.8378Y0.1453
X0.8445Y1.2579
X0.8504Y0.5591
X0.8602Y1.7126
X0.8661Y0.4213
X0.872Y0.0531
X0.872Y0.0217
X0.8898Y0.7697
X0.9016Y0.3583
X0.9094Y1.1634
X0.9094Y1.7126
X0.9134Y0.5354
X0.937Y1.1201
X0.937Y0.2953
X0.9409Y0.5236
X0.9508Y0.5748
X0.9547Y0.7461
X0.9606Y1.7126
X0.9606Y1.5591
X0.9724Y1.2244
X0.9764Y0.8937
X0.9803Y0.9793
X0.9804Y0.9376
X1.0039Y0.4213
X1.0118Y1.7126
X1.0197Y1.252
X1.0226Y1.0947
X1.0236Y0.815
X1.0276Y0.2953
X1.0394Y0.3583
X1.0472Y0.8386
X1.0512Y0.5354
X1.0526Y0.9355
X1.0552Y0.9061
X1.0591Y1.7126
X1.0689Y0.0531
X1.0689Y0.0217
X1.0709Y0.2953
X1.0748Y0.7323
X1.0787Y0.5236
X1.0843Y1.0298
X1.0866Y1.1693
X1.1063Y0.9646
X1.1102Y1.7126
X1.1102Y1.5591
X1.126Y1.1299
X1.126Y1.0079
X1.1417Y0.8162
X1.1457Y0.7008
X1.1496Y0.7874
X1.1614Y1.7126
X1.1693Y0.7362
X1.1811Y0.5649
X1.2047Y0.5827
X1.2126Y1.7126
X1.2283Y0.6063
X1.252Y0.6299
X1.2598Y1.7126
X1.2598Y1.5591
X1.2756Y0.6535
X1.2913Y0.3543
X1.2913Y0.1575
X1.2992Y0.6772
X1.3108Y1.7128
X1.3228Y0.7008
X1.3465Y1.7126
X1.3701Y0.7382
X1.4094Y1.5591
X1.4587Y1.1811
X1.4626Y1.2362
X1.4646Y0.3543
X1.4764Y0.752
X1.4823Y1.2362
X1.4823Y0.5374
X1.4882Y0.7808
X1.5079Y0.2559
X1.5079Y0.1575
X1.5197Y1.0551
X1.5394Y0.9646
X1.5551Y1.1024
X1.5591Y1.0177
X1.6024Y0.315
X1.6063Y0.8661
X1.6063Y0.8307
X1.6063Y0.8012
X1.6161Y1.2874
X1.6358Y1.2874
X1.6553Y0.9705
X1.6575Y1.0295
X1.6673Y1.0
X1.6791Y0.8465
X1.6811Y1.3701
X1.6988Y0.9528
X1.7008Y1.3701
X1.7106Y0.9803
X1.7126Y1.5039
X1.7165Y0.5
X1.815Y1.376
X1.815Y1.3465
X1.815Y1.2657
X1.815Y1.2362
X1.815Y1.1555
X1.815Y1.126
X1.815Y1.0453
X1.815Y1.0157
X1.815Y0.9311
X1.815Y0.9016
X1.815Y0.8248
X1.815Y0.7953
X1.815Y0.7146
X1.815Y0.685
X1.815Y0.6043
X1.815Y0.5748
X1.8524Y0.5138
X1.8622Y1.5079
X1.8701Y0.5138
X1.8839Y1.3957
X1.8839Y1.376
X1.8839Y1.3465
X1.8839Y1.2657
X1.8839Y1.2362
X1.8839Y1.1555
X1.8839Y1.126
X1.8839Y1.0453
X1.8839Y1.0157
X1.8839Y0.9311
X1.8839Y0.9016
X1.8839Y0.8248
X1.8839Y0.7953
X1.8839Y0.7146
X1.8839Y0.685
X1.8839Y0.6043
X1.8839Y0.5748
X1.9567Y1.4823
X1.969Y1.3418
X1.972Y0.5752
X1.9722Y1.1558
X1.9722Y1.3711
X1.9724Y1.2657
X1.9724Y1.2362
X1.9724Y1.126
X1.9724Y1.0453
X1.9724Y1.0157
X1.9724Y0.9311
X1.9724Y0.9016
X1.9724Y0.8248
X1.9724Y0.7953
X1.9724Y0.7146
X1.9724Y0.685
X1.9724Y0.5453
X1.9724Y0.6047
X1.9738Y1.4006
X1.9767Y1.3132
X1.9862Y1.4823
X2.0157Y1.5945
X2.0157Y0.3346
X2.0256Y0.4469
X2.0354Y0.625
X2.0405Y1.2649
X2.0413Y1.1555
X2.0413Y1.126
X2.0413Y1.0453
X2.0413Y1.0157
X2.0413Y0.9311
X2.0413Y0.9016
X2.0413Y0.8248
X2.0413Y0.7953
X2.0413Y0.7146
X2.0413Y0.685
X2.0414Y1.2354
X2.0472Y1.5945
X2.0472Y0.3346
X2.0787Y1.5945
X2.0787Y0.3346
X2.1102Y1.5945
X2.1102Y0.3346
X2.1417Y1.5945
X2.1417Y0.3346
X2.1437Y1.4823
X2.1732Y1.5945
X2.1732Y0.3332
X2.1831Y0.4469
X2.204Y1.5954
X2.2105Y0.3326
X2.2126Y0.4469
X2.2362Y1.5945
X2.2426Y0.3317
X2.2559Y0.9803
X2.2559Y0.8819
X2.2559Y0.5748
X2.2598Y1.3543
X2.2598Y0.7992
X2.2657Y1.187
X2.2657Y1.1496
X2.2736Y0.5748
X2.2795Y1.3543
X2.2874Y0.7008
X2.2913Y0.7992
X2.2933Y0.5748
X2.2972Y1.0433
X2.2992Y1.3543
X2.3031Y0.8307
X2.4055Y1.0039
X2.5315Y0.9213
X2.6024Y0.5354
X2.6368Y0.6929
X2.6378Y1.2323
X2.6378Y1.1299
X2.6575Y0.4094
X2.6781Y0.6929
X2.6811Y0.6417
X2.6811Y0.6102
X2.685Y0.8071
X2.7008Y0.748
X2.7047Y1.189
X2.7087Y1.4606
X2.7087Y1.4213
X2.7087Y1.3858
X2.7165Y1.1339
X2.7244Y1.2756
X2.7362Y0.8228
X2.752Y0.5748
X2.752Y0.5394
X2.7559Y0.8228
X2.7598Y1.0394
X2.7598Y1.0
X2.7677Y0.6339
X2.7717Y0.6654
X2.7756Y0.8228
X2.7795Y0.7126
X2.7874Y0.8661
X2.7913Y1.0787
X2.7953Y0.8228
X2.8031Y0.7126
X2.8189Y1.315
X2.8189Y1.2874
X2.8189Y1.2598
X2.8189Y1.1161
X2.8307Y0.6693
X2.8307Y0.6142
X2.8583Y0.3425
X2.8661Y1.4213
X2.8661Y0.5079
X2.878Y0.6693
X2.878Y0.6142
X2.8819Y0.813
X2.8819Y0.7894
X2.8858Y1.0039
X2.8858Y0.8504
X2.8898Y1.1398
X2.8898Y1.1161
X2.8937Y1.315
X2.8937Y1.2598
X2.9055Y1.4213
X2.9055Y0.5079
X2.9173Y1.5039
X2.9252Y0.374
X2.9331Y1.5551
X2.9409Y1.315
X2.9409Y1.2598
X2.9528Y0.813
X2.9528Y0.6693
X2.9528Y0.6417
X2.9528Y0.6142
X2.9685Y1.2165
X2.9764Y1.1063
X2.9803Y0.4528
X2.9921Y1.2165
X2.9961Y1.1063
X3.0Y1.2638
X3.0039Y1.2953
X3.0118Y0.9291
X3.0118Y0.8898
X3.0157Y1.1063
X3.0177Y1.372
X3.0197Y1.4173
X3.0354Y1.1063
X3.0512Y0.6496
X3.0551Y0.7953
X3.0551Y0.7559
X3.063Y0.5433
X3.063Y0.5079
X3.063Y0.4685
T3
X0.626Y0.4193
X0.626Y0.376
X0.626Y0.2185
X0.626Y0.1752
X0.6815Y1.0646
X0.6815Y1.0146
X0.6815Y0.9646
X0.6815Y0.9146
X0.6815Y0.8646
X0.7315Y1.0646
X0.7315Y1.0146
X0.7315Y0.9646
X0.7315Y0.9146
X0.7315Y0.8646
X0.7815Y1.0646
X0.7815Y1.0146
X0.7815Y0.9646
X0.7815Y0.9146
X0.7815Y0.8646
X0.8315Y1.0646
X0.8315Y1.0146
X0.8315Y0.9646
X0.8315Y0.9146
X0.8315Y0.8646
X0.8815Y1.0646
X0.8815Y1.0146
X0.8815Y0.9646
X0.8815Y0.9146
X0.8815Y0.8646
T4
X0.0541Y1.7717
X0.0541Y0.1575
X0.0844Y1.8447
X0.0844Y1.6986
X0.0844Y0.2306
X0.0844Y0.0844
X0.1575Y1.875
X0.1575Y1.6683
X0.1575Y0.2608
X0.1575Y0.0541
X0.2306Y1.8447
X0.2306Y1.6986
X0.2306Y0.2306
X0.2306Y0.0844
X0.2608Y1.7717
X0.2608Y0.1575
X2.8888Y1.7717
X2.8888Y0.1575
X2.919Y1.8447
X2.919Y1.6986
X2.919Y0.2306
X2.919Y0.0844
X2.9921Y1.875
X2.9921Y1.6683
X2.9921Y0.2608
X2.9921Y0.0541
X3.0652Y1.8447
X3.0652Y1.6986
X3.0652Y0.2306
X3.0652Y0.0844
X3.0955Y1.7717
X3.0955Y0.1575
T6
X2.2756Y1.4764
X2.2756Y1.2756
X2.276Y0.6528
X2.276Y0.4528
X2.3256Y1.4764
X2.3256Y1.2756
X2.326Y0.6528
X2.326Y0.4528
X2.3756Y1.4764
X2.3756Y1.2756
X2.376Y0.6528
X2.376Y0.4528
X2.4256Y1.4764
X2.4256Y1.2756
X2.426Y0.6528
X2.426Y0.4528
X2.4756Y1.4764
X2.4756Y1.2756
X2.476Y0.6528
X2.476Y0.4528
X2.5256Y1.4764
X2.5256Y1.2756
X2.526Y0.6528
X2.526Y0.4528
X2.5756Y1.4764
X2.5756Y1.2756
X2.576Y0.6528
X2.576Y0.4528
X2.6256Y1.4764
X2.6256Y1.2756
X2.626Y0.6528
X2.626Y0.4528
T7
X0.9114Y0.1031
X0.9705Y0.0303
X1.0295Y0.1031
T8
X1.676Y1.7646
X1.676Y1.6646
X1.676Y0.2646
X1.676Y0.1646
X1.776Y1.7646
X1.776Y1.6646
X1.776Y0.2646
X1.776Y0.1646
X1.876Y1.7646
X1.876Y1.6646
X1.876Y0.2646
X1.876Y0.1646
X1.976Y1.7646
X1.976Y1.6646
X1.976Y0.2646
X1.976Y0.1646
X2.076Y1.7646
X2.076Y1.6646
X2.076Y0.2646
X2.076Y0.1646
X2.176Y1.7646
X2.176Y1.6646
X2.176Y1.0646
X2.176Y0.9646
X2.176Y0.8646
X2.176Y0.2646
X2.176Y0.1646
X2.276Y1.7646
X2.276Y1.6646
X2.276Y0.2646
X2.276Y0.1646
X2.376Y1.7646
X2.376Y1.6646
X2.376Y0.2646
X2.376Y0.1646
X2.476Y1.7646
X2.476Y1.6646
X2.476Y0.2646
X2.476Y0.1646
X2.576Y1.7646
X2.576Y1.6646
X2.576Y0.2646
X2.576Y0.1646
T9
X1.2425Y0.4567
X1.3425Y0.4567
T10
X0.1575Y1.7717
X0.1575Y0.1575
X2.9921Y1.7717
X2.9921Y0.1575
T5
G00X0.0748Y1.1346
M15
G01X0.0512Y1.1346
M16
G05
G00X0.0748Y0.7945
M15
G01X0.0512Y0.7945
M16
G05
G00X0.2492Y1.1346
M15
G01X0.2059Y1.1346
M16
G05
G00X0.2492Y0.7945
M15
G01X0.2059Y0.7945
M16
G05
M30
