%TF.GenerationSoftware,KiCad,Pcbnew,8.0.2-1*%
%TF.CreationDate,2024-05-28T01:52:33+02:00*%
%TF.ProjectId,glasgow,676c6173-676f-4772-9e6b-696361645f70,C3*%
%TF.SameCoordinates,Original*%
%TF.FileFunction,Paste,Bot*%
%TF.FilePolarity,Positive*%
%FSLAX46Y46*%
G04 Gerber Fmt 4.6, Leading zero omitted, Abs format (unit mm)*
G04 Created by KiCad (PCBNEW 8.0.2-1) date 2024-05-28 01:52:33*
%MOMM*%
%LPD*%
G01*
G04 APERTURE LIST*
G04 Aperture macros list*
%AMRoundRect*
0 Rectangle with rounded corners*
0 $1 Rounding radius*
0 $2 $3 $4 $5 $6 $7 $8 $9 X,Y pos of 4 corners*
0 Add a 4 corners polygon primitive as box body*
4,1,4,$2,$3,$4,$5,$6,$7,$8,$9,$2,$3,0*
0 Add four circle primitives for the rounded corners*
1,1,$1+$1,$2,$3*
1,1,$1+$1,$4,$5*
1,1,$1+$1,$6,$7*
1,1,$1+$1,$8,$9*
0 Add four rect primitives between the rounded corners*
20,1,$1+$1,$2,$3,$4,$5,0*
20,1,$1+$1,$4,$5,$6,$7,0*
20,1,$1+$1,$6,$7,$8,$9,0*
20,1,$1+$1,$8,$9,$2,$3,0*%
G04 Aperture macros list end*
%ADD10RoundRect,0.147500X0.147500X0.172500X-0.147500X0.172500X-0.147500X-0.172500X0.147500X-0.172500X0*%
%ADD11RoundRect,0.147500X0.172500X-0.147500X0.172500X0.147500X-0.172500X0.147500X-0.172500X-0.147500X0*%
%ADD12RoundRect,0.147500X-0.172500X0.147500X-0.172500X-0.147500X0.172500X-0.147500X0.172500X0.147500X0*%
%ADD13RoundRect,0.147500X-0.147500X-0.172500X0.147500X-0.172500X0.147500X0.172500X-0.147500X0.172500X0*%
%ADD14RoundRect,0.218750X0.218750X0.256250X-0.218750X0.256250X-0.218750X-0.256250X0.218750X-0.256250X0*%
%ADD15RoundRect,0.218750X-0.218750X-0.256250X0.218750X-0.256250X0.218750X0.256250X-0.218750X0.256250X0*%
%ADD16RoundRect,0.218750X0.256250X-0.218750X0.256250X0.218750X-0.256250X0.218750X-0.256250X-0.218750X0*%
%ADD17RoundRect,0.218750X-0.256250X0.218750X-0.256250X-0.218750X0.256250X-0.218750X0.256250X0.218750X0*%
G04 APERTURE END LIST*
D10*
%TO.C,C23*%
X34185000Y23300000D03*
X33215000Y23300000D03*
%TD*%
D11*
%TO.C,C77*%
X34900000Y24015000D03*
X34900000Y24985000D03*
%TD*%
D12*
%TO.C,C48*%
X49150000Y26735000D03*
X49150000Y25765000D03*
%TD*%
%TO.C,C49*%
X51050000Y35135000D03*
X51050000Y34165000D03*
%TD*%
%TO.C,C52*%
X51050000Y26735000D03*
X51050000Y25765000D03*
%TD*%
%TO.C,C64*%
X47050000Y23985000D03*
X47050000Y23015000D03*
%TD*%
%TO.C,C40*%
X47050000Y29535000D03*
X47050000Y28565000D03*
%TD*%
%TO.C,C68*%
X49150000Y23935000D03*
X49150000Y22965000D03*
%TD*%
%TO.C,C69*%
X49150000Y21135000D03*
X49150000Y20165000D03*
%TD*%
%TO.C,C70*%
X49150000Y18335000D03*
X49150000Y17365000D03*
%TD*%
%TO.C,C71*%
X49150000Y15535000D03*
X49150000Y14565000D03*
%TD*%
%TO.C,C72*%
X51050000Y23935000D03*
X51050000Y22965000D03*
%TD*%
%TO.C,C73*%
X51050000Y21135000D03*
X51050000Y20165000D03*
%TD*%
%TO.C,C74*%
X51050000Y18335000D03*
X51050000Y17365000D03*
%TD*%
D13*
%TO.C,C18*%
X31615000Y22500000D03*
X32585000Y22500000D03*
%TD*%
D10*
%TO.C,C33*%
X34185000Y25700000D03*
X33215000Y25700000D03*
%TD*%
%TO.C,C78*%
X30300000Y25100000D03*
X29330000Y25100000D03*
%TD*%
%TO.C,R31*%
X28385000Y22400000D03*
X27415000Y22400000D03*
%TD*%
D14*
%TO.C,C76*%
X29387500Y23600000D03*
X27812500Y23600000D03*
%TD*%
D13*
%TO.C,C24*%
X34815000Y26500000D03*
X35785000Y26500000D03*
%TD*%
%TO.C,C7*%
X16815000Y28450000D03*
X17785000Y28450000D03*
%TD*%
D10*
%TO.C,C6*%
X22585000Y20550000D03*
X21615000Y20550000D03*
%TD*%
D12*
%TO.C,C9*%
X15900000Y26720000D03*
X15900000Y25750000D03*
%TD*%
D13*
%TO.C,C10*%
X17615000Y20550000D03*
X18585000Y20550000D03*
%TD*%
D10*
%TO.C,C5*%
X22985000Y28450000D03*
X22015000Y28450000D03*
%TD*%
D15*
%TO.C,C1*%
X14612500Y20500000D03*
X16187500Y20500000D03*
%TD*%
D12*
%TO.C,C2*%
X15900000Y22735000D03*
X15900000Y21765000D03*
%TD*%
%TO.C,C3*%
X15900000Y24735000D03*
X15900000Y23765000D03*
%TD*%
%TO.C,C4*%
X23800000Y22720000D03*
X23800000Y21750000D03*
%TD*%
D11*
%TO.C,C81*%
X30050000Y20015000D03*
X30050000Y20985000D03*
%TD*%
%TO.C,R32*%
X39850000Y23765000D03*
X39850000Y24735000D03*
%TD*%
D12*
%TO.C,C38*%
X47050000Y35135000D03*
X47050000Y34165000D03*
%TD*%
%TO.C,C34*%
X45150000Y35135000D03*
X45150000Y34165000D03*
%TD*%
%TO.C,C60*%
X45150000Y23985000D03*
X45150000Y23015000D03*
%TD*%
%TO.C,C65*%
X47050000Y21135000D03*
X47050000Y20165000D03*
%TD*%
%TO.C,C61*%
X45150000Y21135000D03*
X45150000Y20165000D03*
%TD*%
%TO.C,C62*%
X45150000Y18335000D03*
X45150000Y17365000D03*
%TD*%
%TO.C,C66*%
X47050000Y18335000D03*
X47050000Y17365000D03*
%TD*%
%TO.C,C63*%
X45150000Y15535000D03*
X45150000Y14565000D03*
%TD*%
%TO.C,C67*%
X47050000Y15535000D03*
X47050000Y14565000D03*
%TD*%
%TO.C,C35*%
X45150000Y32335000D03*
X45150000Y31365000D03*
%TD*%
%TO.C,C37*%
X45150000Y26735000D03*
X45150000Y25765000D03*
%TD*%
%TO.C,C36*%
X45150000Y29535000D03*
X45150000Y28565000D03*
%TD*%
%TO.C,C25*%
X31700000Y25785000D03*
X31700000Y24815000D03*
%TD*%
%TO.C,C42*%
X49150000Y35135000D03*
X49150000Y34165000D03*
%TD*%
%TO.C,C43*%
X49150000Y32335000D03*
X49150000Y31365000D03*
%TD*%
%TO.C,C47*%
X49150000Y29535000D03*
X49150000Y28565000D03*
%TD*%
%TO.C,C41*%
X47050000Y26735000D03*
X47050000Y25765000D03*
%TD*%
D15*
%TO.C,C19*%
X35112500Y20000000D03*
X36687500Y20000000D03*
%TD*%
D16*
%TO.C,C80*%
X38400000Y23712500D03*
X38400000Y25287500D03*
%TD*%
D12*
%TO.C,C85*%
X39800000Y21235000D03*
X39800000Y20265000D03*
%TD*%
D11*
%TO.C,C21*%
X35700000Y24715000D03*
X35700000Y25685000D03*
%TD*%
%TO.C,C79*%
X37200000Y24015000D03*
X37200000Y24985000D03*
%TD*%
D17*
%TO.C,R48*%
X74050000Y17387500D03*
X74050000Y15812500D03*
%TD*%
D16*
%TO.C,R49*%
X72550000Y31612500D03*
X72550000Y33187500D03*
%TD*%
D12*
%TO.C,C75*%
X51050000Y15535000D03*
X51050000Y14565000D03*
%TD*%
%TO.C,C51*%
X51050000Y29535000D03*
X51050000Y28565000D03*
%TD*%
%TO.C,C39*%
X47050000Y32335000D03*
X47050000Y31365000D03*
%TD*%
%TO.C,C50*%
X51050000Y32335000D03*
X51050000Y31365000D03*
%TD*%
D10*
%TO.C,C44*%
X73785000Y12200000D03*
X72815000Y12200000D03*
%TD*%
D13*
%TO.C,C58*%
X72815000Y36800000D03*
X73785000Y36800000D03*
%TD*%
D12*
%TO.C,R25*%
X73800000Y14585000D03*
X73800000Y13615000D03*
%TD*%
D11*
%TO.C,R54*%
X72800000Y34415000D03*
X72800000Y35385000D03*
%TD*%
D17*
%TO.C,R7*%
X74050000Y20187500D03*
X74050000Y18612500D03*
%TD*%
D16*
%TO.C,R56*%
X72550000Y28812500D03*
X72550000Y30387500D03*
%TD*%
D13*
%TO.C,C17*%
X25415000Y9900000D03*
X26385000Y9900000D03*
%TD*%
%TO.C,C15*%
X21915000Y9900000D03*
X22885000Y9900000D03*
%TD*%
%TO.C,C20*%
X37165000Y21200000D03*
X38135000Y21200000D03*
%TD*%
D17*
%TO.C,C14*%
X28150000Y19462500D03*
X28150000Y17887500D03*
%TD*%
D12*
%TO.C,R24*%
X72800000Y14585000D03*
X72800000Y13615000D03*
%TD*%
D11*
%TO.C,R30*%
X73800000Y34415000D03*
X73800000Y35385000D03*
%TD*%
%TO.C,R59*%
X77000000Y13615000D03*
X77000000Y14585000D03*
%TD*%
D12*
%TO.C,R60*%
X70800000Y35385000D03*
X70800000Y34415000D03*
%TD*%
M02*
