%TF.GenerationSoftware,KiCad,Pcbnew,8.0.2-1*%
%TF.CreationDate,2024-05-28T01:52:33+02:00*%
%TF.ProjectId,glasgow,676c6173-676f-4772-9e6b-696361645f70,C3*%
%TF.SameCoordinates,Original*%
%TF.FileFunction,Soldermask,Top*%
%TF.FilePolarity,Negative*%
%FSLAX46Y46*%
G04 Gerber Fmt 4.6, Leading zero omitted, Abs format (unit mm)*
G04 Created by KiCad (PCBNEW 8.0.2-1) date 2024-05-28 01:52:33*
%MOMM*%
%LPD*%
G01*
G04 APERTURE LIST*
G04 Aperture macros list*
%AMRoundRect*
0 Rectangle with rounded corners*
0 $1 Rounding radius*
0 $2 $3 $4 $5 $6 $7 $8 $9 X,Y pos of 4 corners*
0 Add a 4 corners polygon primitive as box body*
4,1,4,$2,$3,$4,$5,$6,$7,$8,$9,$2,$3,0*
0 Add four circle primitives for the rounded corners*
1,1,$1+$1,$2,$3*
1,1,$1+$1,$4,$5*
1,1,$1+$1,$6,$7*
1,1,$1+$1,$8,$9*
0 Add four rect primitives between the rounded corners*
20,1,$1+$1,$2,$3,$4,$5,0*
20,1,$1+$1,$4,$5,$6,$7,0*
20,1,$1+$1,$6,$7,$8,$9,0*
20,1,$1+$1,$8,$9,$2,$3,0*%
G04 Aperture macros list end*
%ADD10C,0.863600*%
%ADD11C,0.200000*%
%ADD12C,0.000000*%
%ADD13C,1.000000*%
%ADD14C,1.500000*%
%ADD15RoundRect,0.147500X0.172500X-0.147500X0.172500X0.147500X-0.172500X0.147500X-0.172500X-0.147500X0*%
%ADD16RoundRect,0.147500X-0.172500X0.147500X-0.172500X-0.147500X0.172500X-0.147500X0.172500X0.147500X0*%
%ADD17RoundRect,0.147500X0.017678X-0.226274X0.226274X-0.017678X-0.017678X0.226274X-0.226274X0.017678X0*%
%ADD18O,1.000000X0.280000*%
%ADD19O,0.280000X1.000000*%
%ADD20RoundRect,0.218750X-0.218750X-0.256250X0.218750X-0.256250X0.218750X0.256250X-0.218750X0.256250X0*%
%ADD21RoundRect,0.100000X-0.225000X-0.100000X0.225000X-0.100000X0.225000X0.100000X-0.225000X0.100000X0*%
%ADD22RoundRect,0.147500X0.147500X0.172500X-0.147500X0.172500X-0.147500X-0.172500X0.147500X-0.172500X0*%
%ADD23O,1.000000X1.000000*%
%ADD24RoundRect,0.218750X0.256250X-0.218750X0.256250X0.218750X-0.256250X0.218750X-0.256250X-0.218750X0*%
%ADD25RoundRect,0.218750X-0.256250X0.218750X-0.256250X-0.218750X0.256250X-0.218750X0.256250X0.218750X0*%
%ADD26RoundRect,0.218750X0.218750X0.256250X-0.218750X0.256250X-0.218750X-0.256250X0.218750X-0.256250X0*%
%ADD27RoundRect,0.147500X-0.147500X-0.172500X0.147500X-0.172500X0.147500X0.172500X-0.147500X0.172500X0*%
%ADD28RoundRect,0.300000X-0.400000X-0.300000X0.400000X-0.300000X0.400000X0.300000X-0.400000X0.300000X0*%
%ADD29C,0.500000*%
%ADD30RoundRect,0.162500X-0.367500X-0.162500X0.367500X-0.162500X0.367500X0.162500X-0.367500X0.162500X0*%
%ADD31RoundRect,0.100000X-0.637500X-0.100000X0.637500X-0.100000X0.637500X0.100000X-0.637500X0.100000X0*%
%ADD32RoundRect,0.100000X0.637500X0.100000X-0.637500X0.100000X-0.637500X-0.100000X0.637500X-0.100000X0*%
%ADD33RoundRect,0.150000X0.200000X-0.150000X0.200000X0.150000X-0.200000X0.150000X-0.200000X-0.150000X0*%
%ADD34RoundRect,0.425000X0.425000X0.425000X-0.425000X0.425000X-0.425000X-0.425000X0.425000X-0.425000X0*%
%ADD35O,1.700000X1.700000*%
%ADD36C,0.800000*%
%ADD37C,7.000000*%
%ADD38RoundRect,0.250000X0.600000X-0.600000X0.600000X0.600000X-0.600000X0.600000X-0.600000X-0.600000X0*%
%ADD39C,1.700000*%
%ADD40RoundRect,0.162500X0.367500X0.162500X-0.367500X0.162500X-0.367500X-0.162500X0.367500X-0.162500X0*%
%ADD41RoundRect,0.122500X-0.122500X0.127500X-0.122500X-0.127500X0.122500X-0.127500X0.122500X0.127500X0*%
%ADD42RoundRect,0.070000X-0.070000X0.180000X-0.070000X-0.180000X0.070000X-0.180000X0.070000X0.180000X0*%
%ADD43RoundRect,0.122500X0.122500X-0.127500X0.122500X0.127500X-0.122500X0.127500X-0.122500X-0.127500X0*%
%ADD44RoundRect,0.070000X0.070000X-0.180000X0.070000X0.180000X-0.070000X0.180000X-0.070000X-0.180000X0*%
%ADD45RoundRect,0.122500X-0.127500X-0.122500X0.127500X-0.122500X0.127500X0.122500X-0.127500X0.122500X0*%
%ADD46RoundRect,0.070000X-0.180000X-0.070000X0.180000X-0.070000X0.180000X0.070000X-0.180000X0.070000X0*%
%ADD47C,0.650000*%
%ADD48RoundRect,0.147500X-0.577500X0.147500X-0.577500X-0.147500X0.577500X-0.147500X0.577500X0.147500X0*%
%ADD49RoundRect,0.070000X-0.655000X0.070000X-0.655000X-0.070000X0.655000X-0.070000X0.655000X0.070000X0*%
%ADD50O,2.100000X1.000000*%
%ADD51O,1.600000X1.000000*%
%ADD52RoundRect,0.150000X0.300000X0.150000X-0.300000X0.150000X-0.300000X-0.150000X0.300000X-0.150000X0*%
%ADD53RoundRect,0.150000X-0.300000X-0.150000X0.300000X-0.150000X0.300000X0.150000X-0.300000X0.150000X0*%
%ADD54RoundRect,0.112500X0.237500X-0.112500X0.237500X0.112500X-0.237500X0.112500X-0.237500X-0.112500X0*%
%ADD55RoundRect,0.112500X-0.237500X0.112500X-0.237500X-0.112500X0.237500X-0.112500X0.237500X0.112500X0*%
%ADD56RoundRect,0.070000X-0.655000X-0.070000X0.655000X-0.070000X0.655000X0.070000X-0.655000X0.070000X0*%
%ADD57C,0.760000*%
%ADD58RoundRect,0.190000X0.190000X-1.185000X0.190000X1.185000X-0.190000X1.185000X-0.190000X-1.185000X0*%
%ADD59RoundRect,0.250000X-1.500000X-0.550000X1.500000X-0.550000X1.500000X0.550000X-1.500000X0.550000X0*%
%ADD60RoundRect,0.100000X0.100000X-0.637500X0.100000X0.637500X-0.100000X0.637500X-0.100000X-0.637500X0*%
%ADD61RoundRect,0.249999X0.620001X0.850001X-0.620001X0.850001X-0.620001X-0.850001X0.620001X-0.850001X0*%
%ADD62O,1.740000X2.200000*%
%ADD63RoundRect,0.042900X0.182100X0.107100X-0.182100X0.107100X-0.182100X-0.107100X0.182100X-0.107100X0*%
%ADD64RoundRect,0.050000X0.450000X0.750000X-0.450000X0.750000X-0.450000X-0.750000X0.450000X-0.750000X0*%
%ADD65RoundRect,0.250000X-0.600000X0.600000X-0.600000X-0.600000X0.600000X-0.600000X0.600000X0.600000X0*%
%ADD66RoundRect,0.175000X-0.175000X-0.325000X0.175000X-0.325000X0.175000X0.325000X-0.175000X0.325000X0*%
%ADD67RoundRect,0.150000X-0.200000X-0.150000X0.200000X-0.150000X0.200000X0.150000X-0.200000X0.150000X0*%
%ADD68RoundRect,0.070000X0.655000X0.070000X-0.655000X0.070000X-0.655000X-0.070000X0.655000X-0.070000X0*%
%ADD69RoundRect,0.140000X-0.170000X0.140000X-0.170000X-0.140000X0.170000X-0.140000X0.170000X0.140000X0*%
%ADD70RoundRect,0.140000X0.170000X-0.140000X0.170000X0.140000X-0.170000X0.140000X-0.170000X-0.140000X0*%
%ADD71C,1.200000*%
%ADD72RoundRect,0.225000X-0.225000X-0.250000X0.225000X-0.250000X0.225000X0.250000X-0.225000X0.250000X0*%
G04 APERTURE END LIST*
D10*
%TO.C,U1*%
X17310000Y26405000D02*
X22390000Y26405000D01*
X17310000Y25135000D02*
X22390000Y25135000D01*
X17310000Y23865000D02*
X22390000Y23865000D01*
X17310000Y22595000D02*
X22390000Y22595000D01*
X17945000Y27040000D02*
X17945000Y21960000D01*
X19215000Y27040000D02*
X19215000Y21960000D01*
X20485000Y27040000D02*
X20485000Y21960000D01*
X21755000Y27040000D02*
X21755000Y21960000D01*
D11*
X17610000Y27040000D02*
G75*
G02*
X17010000Y27040000I-300000J0D01*
G01*
X17010000Y27040000D02*
G75*
G02*
X17610000Y27040000I300000J0D01*
G01*
X17610000Y25770000D02*
G75*
G02*
X17010000Y25770000I-300000J0D01*
G01*
X17010000Y25770000D02*
G75*
G02*
X17610000Y25770000I300000J0D01*
G01*
X17610000Y24500000D02*
G75*
G02*
X17010000Y24500000I-300000J0D01*
G01*
X17010000Y24500000D02*
G75*
G02*
X17610000Y24500000I300000J0D01*
G01*
X17610000Y23230000D02*
G75*
G02*
X17010000Y23230000I-300000J0D01*
G01*
X17010000Y23230000D02*
G75*
G02*
X17610000Y23230000I300000J0D01*
G01*
X17610000Y21960000D02*
G75*
G02*
X17010000Y21960000I-300000J0D01*
G01*
X17010000Y21960000D02*
G75*
G02*
X17610000Y21960000I300000J0D01*
G01*
X18880000Y27040000D02*
G75*
G02*
X18280000Y27040000I-300000J0D01*
G01*
X18280000Y27040000D02*
G75*
G02*
X18880000Y27040000I300000J0D01*
G01*
X18880000Y25770000D02*
G75*
G02*
X18280000Y25770000I-300000J0D01*
G01*
X18280000Y25770000D02*
G75*
G02*
X18880000Y25770000I300000J0D01*
G01*
X18880000Y24500000D02*
G75*
G02*
X18280000Y24500000I-300000J0D01*
G01*
X18280000Y24500000D02*
G75*
G02*
X18880000Y24500000I300000J0D01*
G01*
X18880000Y23230000D02*
G75*
G02*
X18280000Y23230000I-300000J0D01*
G01*
X18280000Y23230000D02*
G75*
G02*
X18880000Y23230000I300000J0D01*
G01*
X18880000Y21960000D02*
G75*
G02*
X18280000Y21960000I-300000J0D01*
G01*
X18280000Y21960000D02*
G75*
G02*
X18880000Y21960000I300000J0D01*
G01*
X20150000Y27040000D02*
G75*
G02*
X19550000Y27040000I-300000J0D01*
G01*
X19550000Y27040000D02*
G75*
G02*
X20150000Y27040000I300000J0D01*
G01*
X20150000Y25770000D02*
G75*
G02*
X19550000Y25770000I-300000J0D01*
G01*
X19550000Y25770000D02*
G75*
G02*
X20150000Y25770000I300000J0D01*
G01*
X20150000Y24500000D02*
G75*
G02*
X19550000Y24500000I-300000J0D01*
G01*
X19550000Y24500000D02*
G75*
G02*
X20150000Y24500000I300000J0D01*
G01*
X20150000Y23230000D02*
G75*
G02*
X19550000Y23230000I-300000J0D01*
G01*
X19550000Y23230000D02*
G75*
G02*
X20150000Y23230000I300000J0D01*
G01*
X20150000Y21960000D02*
G75*
G02*
X19550000Y21960000I-300000J0D01*
G01*
X19550000Y21960000D02*
G75*
G02*
X20150000Y21960000I300000J0D01*
G01*
X21420000Y27040000D02*
G75*
G02*
X20820000Y27040000I-300000J0D01*
G01*
X20820000Y27040000D02*
G75*
G02*
X21420000Y27040000I300000J0D01*
G01*
X21420000Y25770000D02*
G75*
G02*
X20820000Y25770000I-300000J0D01*
G01*
X20820000Y25770000D02*
G75*
G02*
X21420000Y25770000I300000J0D01*
G01*
X21420000Y24500000D02*
G75*
G02*
X20820000Y24500000I-300000J0D01*
G01*
X20820000Y24500000D02*
G75*
G02*
X21420000Y24500000I300000J0D01*
G01*
X21420000Y23230000D02*
G75*
G02*
X20820000Y23230000I-300000J0D01*
G01*
X20820000Y23230000D02*
G75*
G02*
X21420000Y23230000I300000J0D01*
G01*
X21420000Y21960000D02*
G75*
G02*
X20820000Y21960000I-300000J0D01*
G01*
X20820000Y21960000D02*
G75*
G02*
X21420000Y21960000I300000J0D01*
G01*
X22690000Y27040000D02*
G75*
G02*
X22090000Y27040000I-300000J0D01*
G01*
X22090000Y27040000D02*
G75*
G02*
X22690000Y27040000I300000J0D01*
G01*
X22690000Y25770000D02*
G75*
G02*
X22090000Y25770000I-300000J0D01*
G01*
X22090000Y25770000D02*
G75*
G02*
X22690000Y25770000I300000J0D01*
G01*
X22690000Y24500000D02*
G75*
G02*
X22090000Y24500000I-300000J0D01*
G01*
X22090000Y24500000D02*
G75*
G02*
X22690000Y24500000I300000J0D01*
G01*
X22690000Y23230000D02*
G75*
G02*
X22090000Y23230000I-300000J0D01*
G01*
X22090000Y23230000D02*
G75*
G02*
X22690000Y23230000I300000J0D01*
G01*
X22690000Y21960000D02*
G75*
G02*
X22090000Y21960000I-300000J0D01*
G01*
X22090000Y21960000D02*
G75*
G02*
X22690000Y21960000I300000J0D01*
G01*
D12*
G36*
X17100000Y21390000D02*
G01*
X16740000Y21390000D01*
X16740000Y27610000D01*
X17100000Y27610000D01*
X17100000Y21390000D01*
G37*
G36*
X22960000Y21390000D02*
G01*
X16740000Y21390000D01*
X16740000Y21750000D01*
X22960000Y21750000D01*
X22960000Y21390000D01*
G37*
G36*
X22960000Y27250000D02*
G01*
X16740000Y27250000D01*
X16740000Y27610000D01*
X22960000Y27610000D01*
X22960000Y27250000D01*
G37*
G36*
X22960000Y21390000D02*
G01*
X22600000Y21390000D01*
X22600000Y27610000D01*
X22960000Y27610000D01*
X22960000Y21390000D01*
G37*
%TD*%
D13*
%TO.C,TP5*%
X26400000Y15000000D03*
%TD*%
%TO.C,TP4*%
X26400000Y16700000D03*
%TD*%
D14*
%TO.C,FID1*%
X8000000Y1500000D03*
%TD*%
%TO.C,FID2*%
X72000000Y47500000D03*
%TD*%
D15*
%TO.C,C30*%
X77000000Y11915000D03*
X77000000Y12885000D03*
%TD*%
D16*
%TO.C,R22*%
X9000000Y12485000D03*
X9000000Y11515000D03*
%TD*%
%TO.C,R23*%
X9000000Y10485000D03*
X9000000Y9515000D03*
%TD*%
D13*
%TO.C,TP6*%
X23100000Y31000000D03*
%TD*%
D17*
%TO.C,R9*%
X25207053Y19157053D03*
X25892947Y19842947D03*
%TD*%
D18*
%TO.C,U1*%
X15850000Y27750000D03*
X15850000Y27250000D03*
X15850000Y26750000D03*
X15850000Y26250000D03*
X15850000Y25750000D03*
X15850000Y25250000D03*
X15850000Y24750000D03*
X15850000Y24250000D03*
X15850000Y23750000D03*
X15850000Y23250000D03*
X15850000Y22750000D03*
X15850000Y22250000D03*
X15850000Y21750000D03*
X15850000Y21250000D03*
D19*
X16600000Y20500000D03*
X17100000Y20500000D03*
X17600000Y20500000D03*
X18100000Y20500000D03*
X18600000Y20500000D03*
X19100000Y20500000D03*
X19600000Y20500000D03*
X20100000Y20500000D03*
X20600000Y20500000D03*
X21100000Y20500000D03*
X21600000Y20500000D03*
X22100000Y20500000D03*
X22600000Y20500000D03*
X23100000Y20500000D03*
D18*
X23850000Y21250000D03*
X23850000Y21750000D03*
X23850000Y22250000D03*
X23850000Y22750000D03*
X23850000Y23250000D03*
X23850000Y23750000D03*
X23850000Y24250000D03*
X23850000Y24750000D03*
X23850000Y25250000D03*
X23850000Y25750000D03*
X23850000Y26250000D03*
X23850000Y26750000D03*
X23850000Y27250000D03*
X23850000Y27750000D03*
D19*
X23100000Y28500000D03*
X22600000Y28500000D03*
X22100000Y28500000D03*
X21600000Y28500000D03*
X21100000Y28500000D03*
X20600000Y28500000D03*
X20100000Y28500000D03*
X19600000Y28500000D03*
X19100000Y28500000D03*
X18600000Y28500000D03*
X18100000Y28500000D03*
X17600000Y28500000D03*
X17100000Y28500000D03*
X16600000Y28500000D03*
%TD*%
D15*
%TO.C,R33*%
X70900000Y28815000D03*
X70900000Y29785000D03*
%TD*%
D20*
%TO.C,D6*%
X6212500Y18000000D03*
X7787500Y18000000D03*
%TD*%
%TO.C,D8*%
X6212500Y14000000D03*
X7787500Y14000000D03*
%TD*%
%TO.C,D5*%
X6212500Y31000000D03*
X7787500Y31000000D03*
%TD*%
%TO.C,D4*%
X6212500Y33000000D03*
X7787500Y33000000D03*
%TD*%
%TO.C,D3*%
X6212500Y35000000D03*
X7787500Y35000000D03*
%TD*%
%TO.C,D2*%
X6212500Y37000000D03*
X7787500Y37000000D03*
%TD*%
D15*
%TO.C,R14*%
X9000000Y34515000D03*
X9000000Y35485000D03*
%TD*%
%TO.C,R15*%
X9000000Y32515000D03*
X9000000Y33485000D03*
%TD*%
D16*
%TO.C,R20*%
X9000000Y16485000D03*
X9000000Y15515000D03*
%TD*%
D21*
%TO.C,U27*%
X49150000Y20950000D03*
X49150000Y20300000D03*
X49150000Y19650000D03*
X51050000Y19650000D03*
X51050000Y20300000D03*
X51050000Y20950000D03*
%TD*%
%TO.C,U26*%
X49150000Y23750000D03*
X49150000Y23100000D03*
X49150000Y22450000D03*
X51050000Y22450000D03*
X51050000Y23100000D03*
X51050000Y23750000D03*
%TD*%
%TO.C,U17*%
X49150000Y29350000D03*
X49150000Y28700000D03*
X49150000Y28050000D03*
X51050000Y28050000D03*
X51050000Y28700000D03*
X51050000Y29350000D03*
%TD*%
%TO.C,U10*%
X45150000Y26550000D03*
X45150000Y25900000D03*
X45150000Y25250000D03*
X47050000Y25250000D03*
X47050000Y25900000D03*
X47050000Y26550000D03*
%TD*%
%TO.C,U9*%
X45150000Y29350000D03*
X45150000Y28700000D03*
X45150000Y28050000D03*
X47050000Y28050000D03*
X47050000Y28700000D03*
X47050000Y29350000D03*
%TD*%
%TO.C,U6*%
X45150000Y32150000D03*
X45150000Y31500000D03*
X45150000Y30850000D03*
X47050000Y30850000D03*
X47050000Y31500000D03*
X47050000Y32150000D03*
%TD*%
%TO.C,U22*%
X45150000Y23750000D03*
X45150000Y23100000D03*
X45150000Y22450000D03*
X47050000Y22450000D03*
X47050000Y23100000D03*
X47050000Y23750000D03*
%TD*%
%TO.C,U24*%
X45150000Y18150000D03*
X45150000Y17500000D03*
X45150000Y16850000D03*
X47050000Y16850000D03*
X47050000Y17500000D03*
X47050000Y18150000D03*
%TD*%
%TO.C,U25*%
X45150000Y15350000D03*
X45150000Y14700000D03*
X45150000Y14050000D03*
X47050000Y14050000D03*
X47050000Y14700000D03*
X47050000Y15350000D03*
%TD*%
D22*
%TO.C,C57*%
X70885000Y32600000D03*
X69915000Y32600000D03*
%TD*%
D20*
%TO.C,D1*%
X6212500Y39000000D03*
X7787500Y39000000D03*
%TD*%
D13*
%TO.C,J9*%
X57800000Y32400000D03*
D23*
X59070000Y32400000D03*
X60340000Y32400000D03*
X61610000Y32400000D03*
X62880000Y32400000D03*
X64150000Y32400000D03*
X65420000Y32400000D03*
X66690000Y32400000D03*
%TD*%
D13*
%TO.C,J6*%
X66700000Y11500000D03*
D23*
X65430000Y11500000D03*
X64160000Y11500000D03*
X62890000Y11500000D03*
X61620000Y11500000D03*
X60350000Y11500000D03*
X59080000Y11500000D03*
X57810000Y11500000D03*
%TD*%
D24*
%TO.C,C82*%
X76900000Y28912500D03*
X76900000Y30487500D03*
%TD*%
D25*
%TO.C,C31*%
X69700000Y20087500D03*
X69700000Y18512500D03*
%TD*%
D26*
%TO.C,C53*%
X74087500Y16300000D03*
X72512500Y16300000D03*
%TD*%
D16*
%TO.C,R28*%
X75700000Y18285000D03*
X75700000Y17315000D03*
%TD*%
%TO.C,R27*%
X75700000Y20185000D03*
X75700000Y19215000D03*
%TD*%
D14*
%TO.C,FID3*%
X72000000Y1500000D03*
%TD*%
D13*
%TO.C,FID8*%
X28600000Y29600000D03*
%TD*%
D15*
%TO.C,C59*%
X75700000Y29215000D03*
X75700000Y30185000D03*
%TD*%
%TO.C,R34*%
X70900000Y30715000D03*
X70900000Y31685000D03*
%TD*%
%TO.C,C12*%
X9350000Y26365000D03*
X9350000Y27335000D03*
%TD*%
%TO.C,R16*%
X9000000Y30515000D03*
X9000000Y31485000D03*
%TD*%
D27*
%TO.C,R17*%
X25915000Y29700000D03*
X26885000Y29700000D03*
%TD*%
D15*
%TO.C,R12*%
X9000000Y38515000D03*
X9000000Y39485000D03*
%TD*%
%TO.C,R13*%
X9000000Y36515000D03*
X9000000Y37485000D03*
%TD*%
D28*
%TO.C,Y1*%
X10800000Y26750000D03*
X13000000Y26750000D03*
X13000000Y28450000D03*
X10800000Y28450000D03*
%TD*%
D29*
%TO.C,U30*%
X37700000Y28500000D03*
X37700000Y27700000D03*
X37700000Y26900000D03*
X37700000Y26100000D03*
X37700000Y25300000D03*
X37700000Y24500000D03*
X37700000Y23700000D03*
X37700000Y22900000D03*
X37700000Y22100000D03*
X37700000Y21300000D03*
X37700000Y20500000D03*
X36900000Y28500000D03*
X36900000Y27700000D03*
X36900000Y26900000D03*
X36900000Y26100000D03*
X36900000Y25300000D03*
X36900000Y24500000D03*
X36900000Y23700000D03*
X36900000Y22900000D03*
X36900000Y22100000D03*
X36900000Y21300000D03*
X36900000Y20500000D03*
X36100000Y28500000D03*
X36100000Y27700000D03*
X36100000Y26900000D03*
X36100000Y26100000D03*
X36100000Y25300000D03*
X36100000Y24500000D03*
X36100000Y23700000D03*
X36100000Y22900000D03*
X36100000Y22100000D03*
X36100000Y21300000D03*
X36100000Y20500000D03*
X35300000Y28500000D03*
X35300000Y27700000D03*
X35300000Y26900000D03*
X35300000Y26100000D03*
X35300000Y25300000D03*
X35300000Y24500000D03*
X35300000Y23700000D03*
X35300000Y22900000D03*
X35300000Y22100000D03*
X35300000Y21300000D03*
X35300000Y20500000D03*
X34500000Y28500000D03*
X34500000Y27700000D03*
X34500000Y26900000D03*
X34500000Y26100000D03*
X34500000Y25300000D03*
X34500000Y24500000D03*
X34500000Y23700000D03*
X34500000Y22900000D03*
X34500000Y22100000D03*
X34500000Y21300000D03*
X34500000Y20500000D03*
X33700000Y28500000D03*
X33700000Y27700000D03*
X33700000Y26900000D03*
X33700000Y26100000D03*
X33700000Y25300000D03*
X33700000Y24500000D03*
X33700000Y23700000D03*
X33700000Y22900000D03*
X33700000Y22100000D03*
X33700000Y21300000D03*
X33700000Y20500000D03*
X32900000Y28500000D03*
X32900000Y27700000D03*
X32900000Y26900000D03*
X32900000Y26100000D03*
X32900000Y25300000D03*
X32900000Y24500000D03*
X32900000Y23700000D03*
X32900000Y22900000D03*
X32900000Y22100000D03*
X32900000Y21300000D03*
X32900000Y20500000D03*
X32100000Y28500000D03*
X32100000Y27700000D03*
X32100000Y26900000D03*
X32100000Y26100000D03*
X32100000Y25300000D03*
X32100000Y24500000D03*
X32100000Y23700000D03*
X32100000Y22900000D03*
X32100000Y22100000D03*
X32100000Y21300000D03*
X32100000Y20500000D03*
X31300000Y28500000D03*
X31300000Y27700000D03*
X31300000Y26900000D03*
X31300000Y26100000D03*
X31300000Y25300000D03*
X31300000Y24500000D03*
X31300000Y23700000D03*
X31300000Y22900000D03*
X31300000Y22100000D03*
X31300000Y21300000D03*
X31300000Y20500000D03*
X30500000Y28500000D03*
X30500000Y27700000D03*
X30500000Y26900000D03*
X30500000Y26100000D03*
X30500000Y25300000D03*
X30500000Y24500000D03*
X30500000Y23700000D03*
X30500000Y22900000D03*
X30500000Y22100000D03*
X30500000Y21300000D03*
X30500000Y20500000D03*
X29700000Y28500000D03*
X29700000Y27700000D03*
X29700000Y26900000D03*
X29700000Y26100000D03*
X29700000Y25300000D03*
X29700000Y24500000D03*
X29700000Y23700000D03*
X29700000Y22900000D03*
X29700000Y22100000D03*
X29700000Y21300000D03*
X29700000Y20500000D03*
%TD*%
D22*
%TO.C,C13*%
X9335000Y28300000D03*
X8365000Y28300000D03*
%TD*%
D21*
%TO.C,U16*%
X49150000Y32150000D03*
X49150000Y31500000D03*
X49150000Y30850000D03*
X51050000Y30850000D03*
X51050000Y31500000D03*
X51050000Y32150000D03*
%TD*%
%TO.C,U11*%
X49150000Y34950000D03*
X49150000Y34300000D03*
X49150000Y33650000D03*
X51050000Y33650000D03*
X51050000Y34300000D03*
X51050000Y34950000D03*
%TD*%
D16*
%TO.C,R21*%
X9000000Y14485000D03*
X9000000Y13515000D03*
%TD*%
D20*
%TO.C,D9*%
X6212500Y12000000D03*
X7787500Y12000000D03*
%TD*%
D16*
%TO.C,R11*%
X9000000Y18485000D03*
X9000000Y17515000D03*
%TD*%
D20*
%TO.C,D7*%
X6212500Y16000000D03*
X7787500Y16000000D03*
%TD*%
%TO.C,D10*%
X6212500Y10000000D03*
X7787500Y10000000D03*
%TD*%
D15*
%TO.C,R18*%
X75300000Y38115000D03*
X75300000Y39085000D03*
%TD*%
D13*
%TO.C,J7*%
X66700000Y16580000D03*
D23*
X65430000Y16580000D03*
X64160000Y16580000D03*
X62890000Y16580000D03*
X61620000Y16580000D03*
X60350000Y16580000D03*
X59080000Y16580000D03*
X57810000Y16580000D03*
%TD*%
D30*
%TO.C,U14*%
X72200000Y19750000D03*
X72200000Y18800000D03*
X72200000Y17850000D03*
X74400000Y17850000D03*
X74400000Y19750000D03*
%TD*%
D22*
%TO.C,C29*%
X58385000Y18600000D03*
X57415000Y18600000D03*
%TD*%
D27*
%TO.C,C46*%
X75715000Y16400000D03*
X76685000Y16400000D03*
%TD*%
D16*
%TO.C,R19*%
X75100000Y10885000D03*
X75100000Y9915000D03*
%TD*%
D21*
%TO.C,U18*%
X49150000Y26550000D03*
X49150000Y25900000D03*
X49150000Y25250000D03*
X51050000Y25250000D03*
X51050000Y25900000D03*
X51050000Y26550000D03*
%TD*%
D16*
%TO.C,R40*%
X20600000Y6685000D03*
X20600000Y5715000D03*
%TD*%
D31*
%TO.C,U19*%
X59837500Y30075000D03*
X59837500Y29425000D03*
X59837500Y28775000D03*
X59837500Y28125000D03*
X59837500Y27475000D03*
X59837500Y26825000D03*
X59837500Y26175000D03*
X59837500Y25525000D03*
X65562500Y25525000D03*
X65562500Y26175000D03*
X65562500Y26825000D03*
X65562500Y27475000D03*
X65562500Y28125000D03*
X65562500Y28775000D03*
X65562500Y29425000D03*
X65562500Y30075000D03*
%TD*%
D15*
%TO.C,R39*%
X53000000Y22765000D03*
X53000000Y23735000D03*
%TD*%
D16*
%TO.C,R43*%
X53000000Y25585000D03*
X53000000Y24615000D03*
%TD*%
D21*
%TO.C,U28*%
X49150000Y18150000D03*
X49150000Y17500000D03*
X49150000Y16850000D03*
X51050000Y16850000D03*
X51050000Y17500000D03*
X51050000Y18150000D03*
%TD*%
%TO.C,U23*%
X45150000Y20950000D03*
X45150000Y20300000D03*
X45150000Y19650000D03*
X47050000Y19650000D03*
X47050000Y20300000D03*
X47050000Y20950000D03*
%TD*%
D27*
%TO.C,C22*%
X67030000Y18400000D03*
X68000000Y18400000D03*
%TD*%
D15*
%TO.C,R44*%
X36350000Y11865000D03*
X36350000Y12835000D03*
%TD*%
D27*
%TO.C,R36*%
X67015000Y19600000D03*
X67985000Y19600000D03*
%TD*%
%TO.C,R41*%
X57415000Y19500000D03*
X58385000Y19500000D03*
%TD*%
D16*
%TO.C,C84*%
X58350000Y30135000D03*
X58350000Y29165000D03*
%TD*%
%TO.C,C45*%
X70900000Y19785000D03*
X70900000Y18815000D03*
%TD*%
D32*
%TO.C,U5*%
X65562500Y18925000D03*
X65562500Y19575000D03*
X65562500Y20225000D03*
X65562500Y20875000D03*
X65562500Y21525000D03*
X65562500Y22175000D03*
X65562500Y22825000D03*
X65562500Y23475000D03*
X59837500Y23475000D03*
X59837500Y22825000D03*
X59837500Y22175000D03*
X59837500Y21525000D03*
X59837500Y20875000D03*
X59837500Y20225000D03*
X59837500Y19575000D03*
X59837500Y18925000D03*
%TD*%
D22*
%TO.C,R42*%
X67985000Y29500000D03*
X67015000Y29500000D03*
%TD*%
D16*
%TO.C,R35*%
X69900000Y31685000D03*
X69900000Y30715000D03*
%TD*%
D15*
%TO.C,R29*%
X76700000Y17315000D03*
X76700000Y18285000D03*
%TD*%
D22*
%TO.C,R10*%
X42485000Y22300000D03*
X41515000Y22300000D03*
%TD*%
D13*
%TO.C,TP3*%
X44700000Y12700000D03*
%TD*%
%TO.C,TP1*%
X44700000Y11000000D03*
%TD*%
D15*
%TO.C,R2*%
X24900000Y13615000D03*
X24900000Y14585000D03*
%TD*%
D33*
%TO.C,D12*%
X57800000Y23100000D03*
X57800000Y21700000D03*
%TD*%
D22*
%TO.C,R45*%
X39035000Y18500000D03*
X38065000Y18500000D03*
%TD*%
D34*
%TO.C,J10*%
X55270000Y21960000D03*
D35*
X55270000Y24500000D03*
X55270000Y27040000D03*
%TD*%
D36*
%TO.C,MK1*%
X1375000Y4000000D03*
X2143845Y5856155D03*
X2143845Y2143845D03*
X4000000Y6625000D03*
D37*
X4000000Y4000000D03*
D36*
X4000000Y1375000D03*
X5856155Y5856155D03*
X5856155Y2143845D03*
X6625000Y4000000D03*
%TD*%
%TO.C,MK2*%
X1375000Y45000000D03*
X2143845Y46856155D03*
X2143845Y43143845D03*
X4000000Y47625000D03*
D37*
X4000000Y45000000D03*
D36*
X4000000Y42375000D03*
X5856155Y46856155D03*
X5856155Y43143845D03*
X6625000Y45000000D03*
%TD*%
%TO.C,MK4*%
X73375000Y4000000D03*
X74143845Y5856155D03*
X74143845Y2143845D03*
X76000000Y6625000D03*
D37*
X76000000Y4000000D03*
D36*
X76000000Y1375000D03*
X77856155Y5856155D03*
X77856155Y2143845D03*
X78625000Y4000000D03*
%TD*%
D20*
%TO.C,C83*%
X72512500Y32700000D03*
X74087500Y32700000D03*
%TD*%
D36*
%TO.C,MK3*%
X73375000Y45000000D03*
X74143845Y46856155D03*
X74143845Y43143845D03*
X76000000Y47625000D03*
D37*
X76000000Y45000000D03*
D36*
X76000000Y42375000D03*
X77856155Y46856155D03*
X77856155Y43143845D03*
X78625000Y45000000D03*
%TD*%
D13*
%TO.C,J8*%
X57800000Y37500000D03*
D23*
X59070000Y37500000D03*
X60340000Y37500000D03*
X61610000Y37500000D03*
X62880000Y37500000D03*
X64150000Y37500000D03*
X65420000Y37500000D03*
X66690000Y37500000D03*
%TD*%
D26*
%TO.C,D15*%
X73387500Y39500000D03*
X71812500Y39500000D03*
%TD*%
D16*
%TO.C,C55*%
X69600000Y37085000D03*
X69600000Y36115000D03*
%TD*%
D38*
%TO.C,J2*%
X42570000Y42280000D03*
D39*
X42570000Y44820000D03*
X45110000Y42280000D03*
X45110000Y44820000D03*
X47650000Y42280000D03*
X47650000Y44820000D03*
X50190000Y42280000D03*
X50190000Y44820000D03*
X52730000Y42280000D03*
X52730000Y44820000D03*
X55270000Y42280000D03*
X55270000Y44820000D03*
X57810000Y42280000D03*
X57810000Y44820000D03*
X60350000Y42280000D03*
X60350000Y44820000D03*
X62890000Y42280000D03*
X62890000Y44820000D03*
X65430000Y42280000D03*
X65430000Y44820000D03*
%TD*%
D22*
%TO.C,R46*%
X73085000Y10800000D03*
X72115000Y10800000D03*
%TD*%
%TO.C,R47*%
X73085000Y38200000D03*
X72115000Y38200000D03*
%TD*%
D13*
%TO.C,TP2*%
X27300000Y18600000D03*
%TD*%
D26*
%TO.C,D14*%
X73387500Y9500000D03*
X71812500Y9500000D03*
%TD*%
D40*
%TO.C,U31*%
X74400000Y29250000D03*
X74400000Y30200000D03*
X74400000Y31150000D03*
X72200000Y31150000D03*
X72200000Y29250000D03*
%TD*%
D33*
%TO.C,D11*%
X36400000Y10600000D03*
X36400000Y9200000D03*
%TD*%
D16*
%TO.C,R1*%
X24900000Y16685000D03*
X24900000Y15715000D03*
%TD*%
D41*
%TO.C,RN3*%
X56555000Y15500000D03*
D42*
X55950000Y15500000D03*
X55450000Y15500000D03*
D41*
X54845000Y15500000D03*
X54845000Y14500000D03*
D42*
X55450000Y14500000D03*
X55950000Y14500000D03*
D41*
X56555000Y14500000D03*
%TD*%
%TO.C,RN4*%
X54055000Y15500000D03*
D42*
X53450000Y15500000D03*
X52950000Y15500000D03*
D41*
X52345000Y15500000D03*
X52345000Y14500000D03*
D42*
X52950000Y14500000D03*
X53450000Y14500000D03*
D41*
X54055000Y14500000D03*
%TD*%
D43*
%TO.C,RN5*%
X62545000Y13500000D03*
D44*
X63150000Y13500000D03*
X63650000Y13500000D03*
D43*
X64255000Y13500000D03*
X64255000Y14500000D03*
D44*
X63650000Y14500000D03*
X63150000Y14500000D03*
D43*
X62545000Y14500000D03*
%TD*%
%TO.C,RN6*%
X60045000Y13500000D03*
D44*
X60650000Y13500000D03*
X61150000Y13500000D03*
D43*
X61755000Y13500000D03*
X61755000Y14500000D03*
D44*
X61150000Y14500000D03*
X60650000Y14500000D03*
D43*
X60045000Y14500000D03*
%TD*%
D45*
%TO.C,RN7*%
X40300000Y30555000D03*
D46*
X40300000Y29950000D03*
X40300000Y29450000D03*
D45*
X40300000Y28845000D03*
X41300000Y28845000D03*
D46*
X41300000Y29450000D03*
X41300000Y29950000D03*
D45*
X41300000Y30555000D03*
%TD*%
%TO.C,RN8*%
X40300000Y28055000D03*
D46*
X40300000Y27450000D03*
X40300000Y26950000D03*
D45*
X40300000Y26345000D03*
X41300000Y26345000D03*
D46*
X41300000Y26950000D03*
X41300000Y27450000D03*
D45*
X41300000Y28055000D03*
%TD*%
D43*
%TO.C,RN10*%
X54845000Y33500000D03*
D44*
X55450000Y33500000D03*
X55950000Y33500000D03*
D43*
X56555000Y33500000D03*
X56555000Y34500000D03*
D44*
X55950000Y34500000D03*
X55450000Y34500000D03*
D43*
X54845000Y34500000D03*
%TD*%
D41*
%TO.C,RN11*%
X61755000Y35500000D03*
D42*
X61150000Y35500000D03*
X60650000Y35500000D03*
D41*
X60045000Y35500000D03*
X60045000Y34500000D03*
D42*
X60650000Y34500000D03*
X61150000Y34500000D03*
D41*
X61755000Y34500000D03*
%TD*%
%TO.C,RN12*%
X64255000Y35500000D03*
D42*
X63650000Y35500000D03*
X63150000Y35500000D03*
D41*
X62545000Y35500000D03*
X62545000Y34500000D03*
D42*
X63150000Y34500000D03*
X63650000Y34500000D03*
D41*
X64255000Y34500000D03*
%TD*%
D21*
%TO.C,U4*%
X45150000Y34950000D03*
X45150000Y34300000D03*
X45150000Y33650000D03*
X47050000Y33650000D03*
X47050000Y34300000D03*
X47050000Y34950000D03*
%TD*%
%TO.C,U32*%
X39850000Y21050000D03*
X39850000Y20400000D03*
X39850000Y19750000D03*
X41750000Y19750000D03*
X41750000Y20400000D03*
X41750000Y21050000D03*
%TD*%
%TO.C,U29*%
X49150000Y15350000D03*
X49150000Y14700000D03*
X49150000Y14050000D03*
X51050000Y14050000D03*
X51050000Y14700000D03*
X51050000Y15350000D03*
%TD*%
D33*
%TO.C,D13*%
X57800000Y25600000D03*
X57800000Y24200000D03*
%TD*%
D45*
%TO.C,RN2*%
X40300000Y15455000D03*
D46*
X40300000Y14850000D03*
X40300000Y14350000D03*
D45*
X40300000Y13745000D03*
X41300000Y13745000D03*
D46*
X41300000Y14350000D03*
X41300000Y14850000D03*
D45*
X41300000Y15455000D03*
%TD*%
%TO.C,RN1*%
X40300000Y17955000D03*
D46*
X40300000Y17350000D03*
X40300000Y16850000D03*
D45*
X40300000Y16245000D03*
X41300000Y16245000D03*
D46*
X41300000Y16850000D03*
X41300000Y17350000D03*
D45*
X41300000Y17955000D03*
%TD*%
D16*
%TO.C,R37*%
X58350000Y28235000D03*
X58350000Y27265000D03*
%TD*%
D47*
%TO.C,J1*%
X5250000Y27390000D03*
X5250000Y21610000D03*
D48*
X6695000Y27755000D03*
X6695000Y26945000D03*
D49*
X6695000Y25750000D03*
X6695000Y24750000D03*
X6695000Y24250000D03*
X6695000Y23250000D03*
D48*
X6695000Y22055000D03*
X6695000Y21245000D03*
X6695000Y21245000D03*
X6695000Y22055000D03*
D49*
X6695000Y22750000D03*
X6695000Y23750000D03*
X6695000Y25250000D03*
X6695000Y26250000D03*
D48*
X6695000Y26945000D03*
X6695000Y27755000D03*
D50*
X5780000Y28820000D03*
D51*
X1600000Y28820000D03*
D50*
X5780000Y20180000D03*
D51*
X1600000Y20180000D03*
%TD*%
D22*
%TO.C,C11*%
X12385000Y29800000D03*
X11415000Y29800000D03*
%TD*%
D16*
%TO.C,R53*%
X8400000Y27335000D03*
X8400000Y26365000D03*
%TD*%
D22*
%TO.C,C8*%
X9535000Y23700000D03*
X8565000Y23700000D03*
%TD*%
D27*
%TO.C,FB1*%
X8565000Y21800000D03*
X9535000Y21800000D03*
%TD*%
D30*
%TO.C,U15*%
X10800000Y23650000D03*
X10800000Y22700000D03*
X10800000Y21750000D03*
X13000000Y21750000D03*
X13000000Y22700000D03*
X13000000Y23650000D03*
%TD*%
D22*
%TO.C,R52*%
X9535000Y22750000D03*
X8565000Y22750000D03*
%TD*%
D52*
%TO.C,D16*%
X67500000Y14000000D03*
X65200000Y14000000D03*
%TD*%
D53*
%TO.C,D17*%
X44500000Y37300000D03*
X46800000Y37300000D03*
%TD*%
D54*
%TO.C,D18*%
X71100000Y16050000D03*
X71100000Y17350000D03*
X69100000Y16700000D03*
%TD*%
D55*
%TO.C,D19*%
X75500000Y32950000D03*
X75500000Y31650000D03*
X77500000Y32300000D03*
%TD*%
D16*
%TO.C,R26*%
X76700000Y20185000D03*
X76700000Y19215000D03*
%TD*%
D56*
%TO.C,U12*%
X71100000Y14400000D03*
X71100000Y13900000D03*
X71100000Y13400000D03*
X71100000Y12900000D03*
X71100000Y12400000D03*
X75500000Y12400000D03*
X75500000Y12900000D03*
X75500000Y13400000D03*
X75500000Y13900000D03*
X75500000Y14400000D03*
%TD*%
D44*
%TO.C,D21*%
X49450000Y10775000D03*
X49950000Y10775000D03*
X50450000Y10775000D03*
X50950000Y10775000D03*
X51450000Y10775000D03*
X51950000Y10775000D03*
X52450000Y10775000D03*
X52450000Y11925000D03*
X51950000Y11925000D03*
X51450000Y11925000D03*
X50950000Y11925000D03*
X50450000Y11925000D03*
X49950000Y11925000D03*
X49450000Y11925000D03*
%TD*%
D42*
%TO.C,D23*%
X56450000Y38225000D03*
X55950000Y38225000D03*
X55450000Y38225000D03*
X54950000Y38225000D03*
X54450000Y38225000D03*
X53950000Y38225000D03*
X53450000Y38225000D03*
X53450000Y37075000D03*
X53950000Y37075000D03*
X54450000Y37075000D03*
X54950000Y37075000D03*
X55450000Y37075000D03*
X55950000Y37075000D03*
X56450000Y37075000D03*
%TD*%
D22*
%TO.C,C16*%
X12885000Y9400000D03*
X11915000Y9400000D03*
%TD*%
D15*
%TO.C,C88*%
X24900000Y28530000D03*
X24900000Y29500000D03*
%TD*%
D54*
%TO.C,D24*%
X11700000Y3500000D03*
X11700000Y4800000D03*
X9700000Y4150000D03*
%TD*%
D15*
%TO.C,R4*%
X12800000Y2030000D03*
X12800000Y3000000D03*
%TD*%
%TO.C,R5*%
X12800000Y3930000D03*
X12800000Y4900000D03*
%TD*%
D16*
%TO.C,R57*%
X56500000Y19535000D03*
X56500000Y18565000D03*
%TD*%
D15*
%TO.C,R58*%
X68000000Y31315000D03*
X68000000Y32285000D03*
%TD*%
%TO.C,R38*%
X37300000Y11865000D03*
X37300000Y12835000D03*
%TD*%
D57*
%TO.C,J5*%
X9800000Y43500000D03*
X35200000Y43500000D03*
D58*
X9165000Y41625000D03*
X9165000Y45375000D03*
X10435000Y41625000D03*
X10435000Y45375000D03*
X11705000Y41625000D03*
X11705000Y45375000D03*
X12975000Y41625000D03*
X12975000Y45375000D03*
X14245000Y41625000D03*
X14245000Y45375000D03*
X15515000Y41625000D03*
X15515000Y45375000D03*
X16785000Y41625000D03*
X16785000Y45375000D03*
X18055000Y41625000D03*
X18055000Y45375000D03*
X19325000Y41625000D03*
X19325000Y45375000D03*
X20595000Y41625000D03*
X20595000Y45375000D03*
X21865000Y41625000D03*
X21865000Y45375000D03*
X23135000Y41625000D03*
X23135000Y45375000D03*
X24405000Y41625000D03*
X24405000Y45375000D03*
X25675000Y41625000D03*
X25675000Y45375000D03*
X26945000Y41625000D03*
X26945000Y45375000D03*
X28215000Y41625000D03*
X28215000Y45375000D03*
X29485000Y41625000D03*
X29485000Y45375000D03*
X30755000Y41625000D03*
X30755000Y45375000D03*
X32025000Y41625000D03*
X32025000Y45375000D03*
X33295000Y41625000D03*
X33295000Y45375000D03*
X34565000Y41625000D03*
X34565000Y45375000D03*
X35835000Y41625000D03*
X35835000Y45375000D03*
%TD*%
D22*
%TO.C,R3*%
X9535000Y20850000D03*
X8565000Y20850000D03*
%TD*%
D13*
%TO.C,TP7*%
X14400000Y20100000D03*
%TD*%
D59*
%TO.C,C87*%
X14800000Y15800000D03*
X20400000Y15800000D03*
%TD*%
D60*
%TO.C,U2*%
X25425000Y6237500D03*
X26075000Y6237500D03*
X26725000Y6237500D03*
X27375000Y6237500D03*
X27375000Y11962500D03*
X26725000Y11962500D03*
X26075000Y11962500D03*
X25425000Y11962500D03*
%TD*%
%TO.C,U3*%
X21925000Y6237500D03*
X22575000Y6237500D03*
X23225000Y6237500D03*
X23875000Y6237500D03*
X23875000Y11962500D03*
X23225000Y11962500D03*
X22575000Y11962500D03*
X21925000Y11962500D03*
%TD*%
D61*
%TO.C,J4*%
X34100000Y11600000D03*
D62*
X31560000Y11600000D03*
%TD*%
D63*
%TO.C,U8*%
X16950000Y4350000D03*
X16950000Y5000000D03*
X16950000Y5650000D03*
X14850000Y5650000D03*
X14850000Y5000000D03*
X14850000Y4350000D03*
D64*
X15900000Y5000000D03*
%TD*%
D63*
%TO.C,U36*%
X16950000Y9450000D03*
X16950000Y10100000D03*
X16950000Y10750000D03*
X14850000Y10750000D03*
X14850000Y10100000D03*
X14850000Y9450000D03*
D64*
X15900000Y10100000D03*
%TD*%
D26*
%TO.C,C86*%
X16687500Y8100000D03*
X15112500Y8100000D03*
%TD*%
%TO.C,C26*%
X16687500Y3000000D03*
X15112500Y3000000D03*
%TD*%
D24*
%TO.C,C27*%
X18500000Y8912500D03*
X18500000Y10487500D03*
%TD*%
%TO.C,C28*%
X18500000Y3812500D03*
X18500000Y5387500D03*
%TD*%
D65*
%TO.C,J3*%
X65430000Y6720000D03*
D39*
X65430000Y4180000D03*
X62890000Y6720000D03*
X62890000Y4180000D03*
X60350000Y6720000D03*
X60350000Y4180000D03*
X57810000Y6720000D03*
X57810000Y4180000D03*
X55270000Y6720000D03*
X55270000Y4180000D03*
X52730000Y6720000D03*
X52730000Y4180000D03*
X50190000Y6720000D03*
X50190000Y4180000D03*
X47650000Y6720000D03*
X47650000Y4180000D03*
X45110000Y6720000D03*
X45110000Y4180000D03*
X42570000Y6720000D03*
X42570000Y4180000D03*
%TD*%
D66*
%TO.C,U7*%
X10200000Y7950000D03*
D67*
X10200000Y6250000D03*
X12200000Y6250000D03*
X12200000Y8150000D03*
%TD*%
D44*
%TO.C,D20*%
X53450000Y10775000D03*
X53950000Y10775000D03*
X54450000Y10775000D03*
X54950000Y10775000D03*
X55450000Y10775000D03*
X55950000Y10775000D03*
X56450000Y10775000D03*
X56450000Y11925000D03*
X55950000Y11925000D03*
X55450000Y11925000D03*
X54950000Y11925000D03*
X54450000Y11925000D03*
X53950000Y11925000D03*
X53450000Y11925000D03*
%TD*%
D43*
%TO.C,RN9*%
X52345000Y33500000D03*
D44*
X52950000Y33500000D03*
X53450000Y33500000D03*
D43*
X54055000Y33500000D03*
X54055000Y34500000D03*
D44*
X53450000Y34500000D03*
X52950000Y34500000D03*
D43*
X52345000Y34500000D03*
%TD*%
D68*
%TO.C,U21*%
X75500000Y34600000D03*
X75500000Y35100000D03*
X75500000Y35600000D03*
X75500000Y36100000D03*
X75500000Y36600000D03*
X71100000Y36600000D03*
X71100000Y36100000D03*
X71100000Y35600000D03*
X71100000Y35100000D03*
X71100000Y34600000D03*
%TD*%
D22*
%TO.C,C89*%
X22735000Y4450000D03*
X21765000Y4450000D03*
%TD*%
D69*
%TO.C,C90*%
X77000000Y14780000D03*
X77000000Y13820000D03*
%TD*%
D70*
%TO.C,C91*%
X69600000Y34220000D03*
X69600000Y35180000D03*
%TD*%
D42*
%TO.C,D22*%
X52450000Y38225000D03*
X51950000Y38225000D03*
X51450000Y38225000D03*
X50950000Y38225000D03*
X50450000Y38225000D03*
X49950000Y38225000D03*
X49450000Y38225000D03*
X49450000Y37075000D03*
X49950000Y37075000D03*
X50450000Y37075000D03*
X50950000Y37075000D03*
X51450000Y37075000D03*
X51950000Y37075000D03*
X52450000Y37075000D03*
%TD*%
D16*
%TO.C,C56*%
X70900000Y26385000D03*
X70900000Y25415000D03*
%TD*%
D30*
%TO.C,U20*%
X72200000Y27350000D03*
X72200000Y26400000D03*
X72200000Y25450000D03*
X74400000Y25450000D03*
X74400000Y26400000D03*
X74400000Y27350000D03*
%TD*%
D15*
%TO.C,R55*%
X69900000Y28815000D03*
X69900000Y29785000D03*
%TD*%
D40*
%TO.C,U13*%
X74400000Y21650000D03*
X74400000Y22600000D03*
X74400000Y23550000D03*
X72200000Y23550000D03*
X72200000Y22600000D03*
X72200000Y21650000D03*
%TD*%
D15*
%TO.C,C32*%
X75700000Y22630000D03*
X75700000Y23600000D03*
%TD*%
D71*
%TO.C,SW1*%
X26150000Y2620000D03*
X23150000Y2620000D03*
X24650000Y770000D03*
%TD*%
D27*
%TO.C,C54*%
X67015000Y30400000D03*
X67985000Y30400000D03*
%TD*%
D72*
%TO.C,C92*%
X41450000Y33750000D03*
X43000000Y33750000D03*
%TD*%
M02*
