%TF.GenerationSoftware,KiCad,Pcbnew,8.0.2-1*%
%TF.CreationDate,2024-05-28T01:52:33+02:00*%
%TF.ProjectId,glasgow,676c6173-676f-4772-9e6b-696361645f70,C3*%
%TF.SameCoordinates,Original*%
%TF.FileFunction,Copper,L4,Bot*%
%TF.FilePolarity,Positive*%
%FSLAX46Y46*%
G04 Gerber Fmt 4.6, Leading zero omitted, Abs format (unit mm)*
G04 Created by KiCad (PCBNEW 8.0.2-1) date 2024-05-28 01:52:33*
%MOMM*%
%LPD*%
G01*
G04 APERTURE LIST*
G04 Aperture macros list*
%AMRoundRect*
0 Rectangle with rounded corners*
0 $1 Rounding radius*
0 $2 $3 $4 $5 $6 $7 $8 $9 X,Y pos of 4 corners*
0 Add a 4 corners polygon primitive as box body*
4,1,4,$2,$3,$4,$5,$6,$7,$8,$9,$2,$3,0*
0 Add four circle primitives for the rounded corners*
1,1,$1+$1,$2,$3*
1,1,$1+$1,$4,$5*
1,1,$1+$1,$6,$7*
1,1,$1+$1,$8,$9*
0 Add four rect primitives between the rounded corners*
20,1,$1+$1,$2,$3,$4,$5,0*
20,1,$1+$1,$4,$5,$6,$7,0*
20,1,$1+$1,$6,$7,$8,$9,0*
20,1,$1+$1,$8,$9,$2,$3,0*%
G04 Aperture macros list end*
%TA.AperFunction,ComponentPad*%
%ADD10C,0.600000*%
%TD*%
%TA.AperFunction,SMDPad,CuDef*%
%ADD11R,6.100000X6.100000*%
%TD*%
%TA.AperFunction,ComponentPad*%
%ADD12C,1.000000*%
%TD*%
%TA.AperFunction,ComponentPad*%
%ADD13O,1.000000X1.000000*%
%TD*%
%TA.AperFunction,ComponentPad*%
%ADD14RoundRect,0.425000X0.425000X0.425000X-0.425000X0.425000X-0.425000X-0.425000X0.425000X-0.425000X0*%
%TD*%
%TA.AperFunction,ComponentPad*%
%ADD15O,1.700000X1.700000*%
%TD*%
%TA.AperFunction,ComponentPad*%
%ADD16C,0.800000*%
%TD*%
%TA.AperFunction,ComponentPad*%
%ADD17C,7.000000*%
%TD*%
%TA.AperFunction,ComponentPad*%
%ADD18RoundRect,0.250000X0.600000X-0.600000X0.600000X0.600000X-0.600000X0.600000X-0.600000X-0.600000X0*%
%TD*%
%TA.AperFunction,ComponentPad*%
%ADD19C,1.700000*%
%TD*%
%TA.AperFunction,ComponentPad*%
%ADD20O,2.100000X1.000000*%
%TD*%
%TA.AperFunction,ComponentPad*%
%ADD21O,1.600000X1.000000*%
%TD*%
%TA.AperFunction,ComponentPad*%
%ADD22RoundRect,0.249999X0.620001X0.850001X-0.620001X0.850001X-0.620001X-0.850001X0.620001X-0.850001X0*%
%TD*%
%TA.AperFunction,ComponentPad*%
%ADD23O,1.740000X2.200000*%
%TD*%
%TA.AperFunction,ComponentPad*%
%ADD24C,0.500000*%
%TD*%
%TA.AperFunction,SMDPad,CuDef*%
%ADD25RoundRect,0.050000X0.450000X0.750000X-0.450000X0.750000X-0.450000X-0.750000X0.450000X-0.750000X0*%
%TD*%
%TA.AperFunction,ComponentPad*%
%ADD26RoundRect,0.250000X-0.600000X0.600000X-0.600000X-0.600000X0.600000X-0.600000X0.600000X0.600000X0*%
%TD*%
%TA.AperFunction,ComponentPad*%
%ADD27C,1.200000*%
%TD*%
%TA.AperFunction,SMDPad,CuDef*%
%ADD28C,0.750000*%
%TD*%
%TA.AperFunction,SMDPad,CuDef*%
%ADD29RoundRect,0.147500X0.147500X0.172500X-0.147500X0.172500X-0.147500X-0.172500X0.147500X-0.172500X0*%
%TD*%
%TA.AperFunction,SMDPad,CuDef*%
%ADD30RoundRect,0.147500X0.172500X-0.147500X0.172500X0.147500X-0.172500X0.147500X-0.172500X-0.147500X0*%
%TD*%
%TA.AperFunction,SMDPad,CuDef*%
%ADD31RoundRect,0.147500X-0.172500X0.147500X-0.172500X-0.147500X0.172500X-0.147500X0.172500X0.147500X0*%
%TD*%
%TA.AperFunction,SMDPad,CuDef*%
%ADD32RoundRect,0.147500X-0.147500X-0.172500X0.147500X-0.172500X0.147500X0.172500X-0.147500X0.172500X0*%
%TD*%
%TA.AperFunction,SMDPad,CuDef*%
%ADD33RoundRect,0.218750X0.218750X0.256250X-0.218750X0.256250X-0.218750X-0.256250X0.218750X-0.256250X0*%
%TD*%
%TA.AperFunction,SMDPad,CuDef*%
%ADD34RoundRect,0.218750X-0.218750X-0.256250X0.218750X-0.256250X0.218750X0.256250X-0.218750X0.256250X0*%
%TD*%
%TA.AperFunction,SMDPad,CuDef*%
%ADD35C,1.000000*%
%TD*%
%TA.AperFunction,SMDPad,CuDef*%
%ADD36RoundRect,0.218750X0.256250X-0.218750X0.256250X0.218750X-0.256250X0.218750X-0.256250X-0.218750X0*%
%TD*%
%TA.AperFunction,SMDPad,CuDef*%
%ADD37RoundRect,0.218750X-0.256250X0.218750X-0.256250X-0.218750X0.256250X-0.218750X0.256250X0.218750X0*%
%TD*%
%TA.AperFunction,ViaPad*%
%ADD38C,0.600000*%
%TD*%
%TA.AperFunction,ViaPad*%
%ADD39C,0.400000*%
%TD*%
%TA.AperFunction,ViaPad*%
%ADD40C,0.500000*%
%TD*%
%TA.AperFunction,Conductor*%
%ADD41C,0.150000*%
%TD*%
%TA.AperFunction,Conductor*%
%ADD42C,0.250000*%
%TD*%
%TA.AperFunction,Conductor*%
%ADD43C,0.450000*%
%TD*%
%TA.AperFunction,Conductor*%
%ADD44C,0.190000*%
%TD*%
%TA.AperFunction,Conductor*%
%ADD45C,0.750000*%
%TD*%
G04 APERTURE END LIST*
D10*
%TO.P,U1,57,EP*%
%TO.N,GND*%
X17310000Y27040000D03*
X17310000Y25770000D03*
X17310000Y24500000D03*
X17310000Y23230000D03*
X17310000Y21960000D03*
X18580000Y27040000D03*
X18580000Y25770000D03*
X18580000Y24500000D03*
X18580000Y23230000D03*
X18580000Y21960000D03*
X19850000Y27040000D03*
X19850000Y25770000D03*
X19850000Y24500000D03*
D11*
X19850000Y24500000D03*
D10*
X19850000Y23230000D03*
X19850000Y21960000D03*
X21120000Y27040000D03*
X21120000Y25770000D03*
X21120000Y24500000D03*
X21120000Y23230000D03*
X21120000Y21960000D03*
X22390000Y27040000D03*
X22390000Y25770000D03*
X22390000Y24500000D03*
X22390000Y23230000D03*
X22390000Y21960000D03*
%TD*%
D12*
%TO.P,J9,1,Pin_1*%
%TO.N,/IO_Banks/IO_Buffer_A/P0*%
X57800000Y32400000D03*
D13*
%TO.P,J9,2,Pin_2*%
%TO.N,/IO_Banks/IO_Buffer_A/P1*%
X59070000Y32400000D03*
%TO.P,J9,3,Pin_3*%
%TO.N,/IO_Banks/IO_Buffer_A/P2*%
X60340000Y32400000D03*
%TO.P,J9,4,Pin_4*%
%TO.N,/IO_Banks/IO_Buffer_A/P3*%
X61610000Y32400000D03*
%TO.P,J9,5,Pin_5*%
%TO.N,/IO_Banks/IO_Buffer_A/P4*%
X62880000Y32400000D03*
%TO.P,J9,6,Pin_6*%
%TO.N,/IO_Banks/IO_Buffer_A/P5*%
X64150000Y32400000D03*
%TO.P,J9,7,Pin_7*%
%TO.N,/IO_Banks/IO_Buffer_A/P6*%
X65420000Y32400000D03*
%TO.P,J9,8,Pin_8*%
%TO.N,/IO_Banks/IO_Buffer_A/P7*%
X66690000Y32400000D03*
%TD*%
D12*
%TO.P,J6,1,Pin_1*%
%TO.N,/IO_Banks/IO_Buffer_B/Z0*%
X66700000Y11500000D03*
D13*
%TO.P,J6,2,Pin_2*%
%TO.N,/IO_Banks/IO_Buffer_B/Z1*%
X65430000Y11500000D03*
%TO.P,J6,3,Pin_3*%
%TO.N,/IO_Banks/IO_Buffer_B/Z2*%
X64160000Y11500000D03*
%TO.P,J6,4,Pin_4*%
%TO.N,/IO_Banks/IO_Buffer_B/Z3*%
X62890000Y11500000D03*
%TO.P,J6,5,Pin_5*%
%TO.N,/IO_Banks/IO_Buffer_B/Z4*%
X61620000Y11500000D03*
%TO.P,J6,6,Pin_6*%
%TO.N,/IO_Banks/IO_Buffer_B/Z5*%
X60350000Y11500000D03*
%TO.P,J6,7,Pin_7*%
%TO.N,/IO_Banks/IO_Buffer_B/Z6*%
X59080000Y11500000D03*
%TO.P,J6,8,Pin_8*%
%TO.N,/IO_Banks/IO_Buffer_B/Z7*%
X57810000Y11500000D03*
%TD*%
D12*
%TO.P,J7,1,Pin_1*%
%TO.N,/IO_Banks/IO_Buffer_B/P0*%
X66700000Y16580000D03*
D13*
%TO.P,J7,2,Pin_2*%
%TO.N,/IO_Banks/IO_Buffer_B/P1*%
X65430000Y16580000D03*
%TO.P,J7,3,Pin_3*%
%TO.N,/IO_Banks/IO_Buffer_B/P2*%
X64160000Y16580000D03*
%TO.P,J7,4,Pin_4*%
%TO.N,/IO_Banks/IO_Buffer_B/P3*%
X62890000Y16580000D03*
%TO.P,J7,5,Pin_5*%
%TO.N,/IO_Banks/IO_Buffer_B/P4*%
X61620000Y16580000D03*
%TO.P,J7,6,Pin_6*%
%TO.N,/IO_Banks/IO_Buffer_B/P5*%
X60350000Y16580000D03*
%TO.P,J7,7,Pin_7*%
%TO.N,/IO_Banks/IO_Buffer_B/P6*%
X59080000Y16580000D03*
%TO.P,J7,8,Pin_8*%
%TO.N,/IO_Banks/IO_Buffer_B/P7*%
X57810000Y16580000D03*
%TD*%
D14*
%TO.P,J10,1,Pin_1*%
%TO.N,GND*%
X55270000Y21960000D03*
D15*
%TO.P,J10,2,Pin_2*%
%TO.N,Net-(D12-K)*%
X55270000Y24500000D03*
%TO.P,J10,3,Pin_3*%
%TO.N,Net-(D13-K)*%
X55270000Y27040000D03*
%TD*%
D16*
%TO.P,MK1,1,1*%
%TO.N,GND*%
X1375000Y4000000D03*
X2143845Y5856155D03*
X2143845Y2143845D03*
X4000000Y6625000D03*
D17*
X4000000Y4000000D03*
D16*
X4000000Y1375000D03*
X5856155Y5856155D03*
X5856155Y2143845D03*
X6625000Y4000000D03*
%TD*%
%TO.P,MK2,1,1*%
%TO.N,GND*%
X1375000Y45000000D03*
X2143845Y46856155D03*
X2143845Y43143845D03*
X4000000Y47625000D03*
D17*
X4000000Y45000000D03*
D16*
X4000000Y42375000D03*
X5856155Y46856155D03*
X5856155Y43143845D03*
X6625000Y45000000D03*
%TD*%
%TO.P,MK4,1,1*%
%TO.N,GND*%
X73375000Y4000000D03*
X74143845Y5856155D03*
X74143845Y2143845D03*
X76000000Y6625000D03*
D17*
X76000000Y4000000D03*
D16*
X76000000Y1375000D03*
X77856155Y5856155D03*
X77856155Y2143845D03*
X78625000Y4000000D03*
%TD*%
%TO.P,MK3,1,1*%
%TO.N,GND*%
X73375000Y45000000D03*
X74143845Y46856155D03*
X74143845Y43143845D03*
X76000000Y47625000D03*
D17*
X76000000Y45000000D03*
D16*
X76000000Y42375000D03*
X77856155Y46856155D03*
X77856155Y43143845D03*
X78625000Y45000000D03*
%TD*%
D12*
%TO.P,J8,1,Pin_1*%
%TO.N,/IO_Banks/IO_Buffer_A/Z0*%
X57800000Y37500000D03*
D13*
%TO.P,J8,2,Pin_2*%
%TO.N,/IO_Banks/IO_Buffer_A/Z1*%
X59070000Y37500000D03*
%TO.P,J8,3,Pin_3*%
%TO.N,/IO_Banks/IO_Buffer_A/Z2*%
X60340000Y37500000D03*
%TO.P,J8,4,Pin_4*%
%TO.N,/IO_Banks/IO_Buffer_A/Z3*%
X61610000Y37500000D03*
%TO.P,J8,5,Pin_5*%
%TO.N,/IO_Banks/IO_Buffer_A/Z4*%
X62880000Y37500000D03*
%TO.P,J8,6,Pin_6*%
%TO.N,/IO_Banks/IO_Buffer_A/Z5*%
X64150000Y37500000D03*
%TO.P,J8,7,Pin_7*%
%TO.N,/IO_Banks/IO_Buffer_A/Z6*%
X65420000Y37500000D03*
%TO.P,J8,8,Pin_8*%
%TO.N,/IO_Banks/IO_Buffer_A/Z7*%
X66690000Y37500000D03*
%TD*%
D18*
%TO.P,J2,1,Pin_1*%
%TO.N,/IO_Banks/IO_Buffer_A/VSENSE*%
X42570000Y42280000D03*
D19*
%TO.P,J2,2,Pin_2*%
%TO.N,/IO_Banks/VIOA*%
X42570000Y44820000D03*
%TO.P,J2,3,Pin_3*%
%TO.N,/IO_Banks/IO_Buffer_A/Z0*%
X45110000Y42280000D03*
%TO.P,J2,4,Pin_4*%
%TO.N,GND*%
X45110000Y44820000D03*
%TO.P,J2,5,Pin_5*%
%TO.N,/IO_Banks/IO_Buffer_A/Z1*%
X47650000Y42280000D03*
%TO.P,J2,6,Pin_6*%
%TO.N,GND*%
X47650000Y44820000D03*
%TO.P,J2,7,Pin_7*%
%TO.N,/IO_Banks/IO_Buffer_A/Z2*%
X50190000Y42280000D03*
%TO.P,J2,8,Pin_8*%
%TO.N,GND*%
X50190000Y44820000D03*
%TO.P,J2,9,Pin_9*%
%TO.N,/IO_Banks/IO_Buffer_A/Z3*%
X52730000Y42280000D03*
%TO.P,J2,10,Pin_10*%
%TO.N,GND*%
X52730000Y44820000D03*
%TO.P,J2,11,Pin_11*%
%TO.N,/IO_Banks/IO_Buffer_A/Z4*%
X55270000Y42280000D03*
%TO.P,J2,12,Pin_12*%
%TO.N,GND*%
X55270000Y44820000D03*
%TO.P,J2,13,Pin_13*%
%TO.N,/IO_Banks/IO_Buffer_A/Z5*%
X57810000Y42280000D03*
%TO.P,J2,14,Pin_14*%
%TO.N,GND*%
X57810000Y44820000D03*
%TO.P,J2,15,Pin_15*%
%TO.N,/IO_Banks/IO_Buffer_A/Z6*%
X60350000Y42280000D03*
%TO.P,J2,16,Pin_16*%
%TO.N,GND*%
X60350000Y44820000D03*
%TO.P,J2,17,Pin_17*%
%TO.N,/IO_Banks/IO_Buffer_A/Z7*%
X62890000Y42280000D03*
%TO.P,J2,18,Pin_18*%
%TO.N,GND*%
X62890000Y44820000D03*
%TO.P,J2,19,Pin_19*%
%TO.N,unconnected-(J2-Pin_19-Pad19)*%
X65430000Y42280000D03*
%TO.P,J2,20,Pin_20*%
%TO.N,unconnected-(J2-Pin_20-Pad20)*%
X65430000Y44820000D03*
%TD*%
D20*
%TO.P,J1,S1,SHIELD*%
%TO.N,/SHLD*%
X5780000Y28820000D03*
D21*
X1600000Y28820000D03*
D20*
X5780000Y20180000D03*
D21*
X1600000Y20180000D03*
%TD*%
D22*
%TO.P,J4,1,Pin_1*%
%TO.N,GND*%
X34100000Y11600000D03*
D23*
%TO.P,J4,2,Pin_2*%
%TO.N,/IO_Banks/~{SYNC}*%
X31560000Y11600000D03*
%TD*%
D24*
%TO.P,U8,7,GND*%
%TO.N,GND*%
X15900000Y4450000D03*
D25*
X15900000Y5000000D03*
D24*
X15900000Y5550000D03*
%TD*%
%TO.P,U36,7,GND*%
%TO.N,GND*%
X15900000Y9550000D03*
D25*
X15900000Y10100000D03*
D24*
X15900000Y10650000D03*
%TD*%
D26*
%TO.P,J3,1,Pin_1*%
%TO.N,/IO_Banks/IO_Buffer_B/VSENSE*%
X65430000Y6720000D03*
D19*
%TO.P,J3,2,Pin_2*%
%TO.N,/IO_Banks/VIOB*%
X65430000Y4180000D03*
%TO.P,J3,3,Pin_3*%
%TO.N,/IO_Banks/IO_Buffer_B/Z0*%
X62890000Y6720000D03*
%TO.P,J3,4,Pin_4*%
%TO.N,GND*%
X62890000Y4180000D03*
%TO.P,J3,5,Pin_5*%
%TO.N,/IO_Banks/IO_Buffer_B/Z1*%
X60350000Y6720000D03*
%TO.P,J3,6,Pin_6*%
%TO.N,GND*%
X60350000Y4180000D03*
%TO.P,J3,7,Pin_7*%
%TO.N,/IO_Banks/IO_Buffer_B/Z2*%
X57810000Y6720000D03*
%TO.P,J3,8,Pin_8*%
%TO.N,GND*%
X57810000Y4180000D03*
%TO.P,J3,9,Pin_9*%
%TO.N,/IO_Banks/IO_Buffer_B/Z3*%
X55270000Y6720000D03*
%TO.P,J3,10,Pin_10*%
%TO.N,GND*%
X55270000Y4180000D03*
%TO.P,J3,11,Pin_11*%
%TO.N,/IO_Banks/IO_Buffer_B/Z4*%
X52730000Y6720000D03*
%TO.P,J3,12,Pin_12*%
%TO.N,GND*%
X52730000Y4180000D03*
%TO.P,J3,13,Pin_13*%
%TO.N,/IO_Banks/IO_Buffer_B/Z5*%
X50190000Y6720000D03*
%TO.P,J3,14,Pin_14*%
%TO.N,GND*%
X50190000Y4180000D03*
%TO.P,J3,15,Pin_15*%
%TO.N,/IO_Banks/IO_Buffer_B/Z6*%
X47650000Y6720000D03*
%TO.P,J3,16,Pin_16*%
%TO.N,GND*%
X47650000Y4180000D03*
%TO.P,J3,17,Pin_17*%
%TO.N,/IO_Banks/IO_Buffer_B/Z7*%
X45110000Y6720000D03*
%TO.P,J3,18,Pin_18*%
%TO.N,GND*%
X45110000Y4180000D03*
%TO.P,J3,19,Pin_19*%
%TO.N,unconnected-(J3-Pin_19-Pad19)*%
X42570000Y6720000D03*
%TO.P,J3,20,Pin_20*%
%TO.N,unconnected-(J3-Pin_20-Pad20)*%
X42570000Y4180000D03*
%TD*%
D27*
%TO.P,SW1,1,1*%
%TO.N,GND*%
X26150000Y2620000D03*
%TO.P,SW1,2,2*%
%TO.N,/~{MR}*%
X23150000Y2620000D03*
%TO.P,SW1,3,3*%
%TO.N,/SWSH*%
X24650000Y770000D03*
%TD*%
D28*
%TO.P,FID4,*%
%TO.N,*%
X8000000Y1500000D03*
%TD*%
%TO.P,FID5,*%
%TO.N,*%
X72000000Y47500000D03*
%TD*%
D29*
%TO.P,C23,1*%
%TO.N,+3V3*%
X34185000Y23300000D03*
%TO.P,C23,2*%
%TO.N,GND*%
X33215000Y23300000D03*
%TD*%
D30*
%TO.P,C77,1*%
%TO.N,+1V2*%
X34900000Y24015000D03*
%TO.P,C77,2*%
%TO.N,GND*%
X34900000Y24985000D03*
%TD*%
D31*
%TO.P,C48,1*%
%TO.N,+3V3*%
X49150000Y26735000D03*
%TO.P,C48,2*%
%TO.N,GND*%
X49150000Y25765000D03*
%TD*%
%TO.P,C49,1*%
%TO.N,/IO_Banks/VIOA*%
X51050000Y35135000D03*
%TO.P,C49,2*%
%TO.N,GND*%
X51050000Y34165000D03*
%TD*%
%TO.P,C52,1*%
%TO.N,/IO_Banks/VIOA*%
X51050000Y26735000D03*
%TO.P,C52,2*%
%TO.N,GND*%
X51050000Y25765000D03*
%TD*%
%TO.P,C64,1*%
%TO.N,/IO_Banks/VIOB*%
X47050000Y23985000D03*
%TO.P,C64,2*%
%TO.N,GND*%
X47050000Y23015000D03*
%TD*%
%TO.P,C40,1*%
%TO.N,/IO_Banks/VIOA*%
X47050000Y29535000D03*
%TO.P,C40,2*%
%TO.N,GND*%
X47050000Y28565000D03*
%TD*%
%TO.P,C68,1*%
%TO.N,+3V3*%
X49150000Y23935000D03*
%TO.P,C68,2*%
%TO.N,GND*%
X49150000Y22965000D03*
%TD*%
%TO.P,C69,1*%
%TO.N,+3V3*%
X49150000Y21135000D03*
%TO.P,C69,2*%
%TO.N,GND*%
X49150000Y20165000D03*
%TD*%
%TO.P,C70,1*%
%TO.N,+3V3*%
X49150000Y18335000D03*
%TO.P,C70,2*%
%TO.N,GND*%
X49150000Y17365000D03*
%TD*%
%TO.P,C71,1*%
%TO.N,+3V3*%
X49150000Y15535000D03*
%TO.P,C71,2*%
%TO.N,GND*%
X49150000Y14565000D03*
%TD*%
%TO.P,C72,1*%
%TO.N,/IO_Banks/VIOB*%
X51050000Y23935000D03*
%TO.P,C72,2*%
%TO.N,GND*%
X51050000Y22965000D03*
%TD*%
%TO.P,C73,1*%
%TO.N,/IO_Banks/VIOB*%
X51050000Y21135000D03*
%TO.P,C73,2*%
%TO.N,GND*%
X51050000Y20165000D03*
%TD*%
%TO.P,C74,1*%
%TO.N,/IO_Banks/VIOB*%
X51050000Y18335000D03*
%TO.P,C74,2*%
%TO.N,GND*%
X51050000Y17365000D03*
%TD*%
D32*
%TO.P,C18,1*%
%TO.N,+1V2*%
X31615000Y22500000D03*
%TO.P,C18,2*%
%TO.N,GND*%
X32585000Y22500000D03*
%TD*%
D29*
%TO.P,C33,1*%
%TO.N,/IO_Banks/VIO_AUX*%
X34185000Y25700000D03*
%TO.P,C33,2*%
%TO.N,GND*%
X33215000Y25700000D03*
%TD*%
%TO.P,C78,1*%
%TO.N,/VCCPLL0*%
X30300000Y25100000D03*
%TO.P,C78,2*%
%TO.N,/GNDPLL0*%
X29330000Y25100000D03*
%TD*%
%TO.P,R31,1*%
%TO.N,/VCCPLL0*%
X28385000Y22400000D03*
%TO.P,R31,2*%
%TO.N,+1V2*%
X27415000Y22400000D03*
%TD*%
D33*
%TO.P,C76,1*%
%TO.N,/VCCPLL0*%
X29387500Y23600000D03*
%TO.P,C76,2*%
%TO.N,/GNDPLL0*%
X27812500Y23600000D03*
%TD*%
D32*
%TO.P,C24,1*%
%TO.N,+1V2*%
X34815000Y26500000D03*
%TO.P,C24,2*%
%TO.N,GND*%
X35785000Y26500000D03*
%TD*%
%TO.P,C7,1*%
%TO.N,+3V3*%
X16815000Y28450000D03*
%TO.P,C7,2*%
%TO.N,GND*%
X17785000Y28450000D03*
%TD*%
D29*
%TO.P,C6,1*%
%TO.N,+3V3*%
X22585000Y20550000D03*
%TO.P,C6,2*%
%TO.N,GND*%
X21615000Y20550000D03*
%TD*%
D31*
%TO.P,C9,1*%
%TO.N,+3V3*%
X15900000Y26720000D03*
%TO.P,C9,2*%
%TO.N,GND*%
X15900000Y25750000D03*
%TD*%
D32*
%TO.P,C10,1*%
%TO.N,+3V3*%
X17615000Y20550000D03*
%TO.P,C10,2*%
%TO.N,GND*%
X18585000Y20550000D03*
%TD*%
D29*
%TO.P,C5,1*%
%TO.N,+3V3*%
X22985000Y28450000D03*
%TO.P,C5,2*%
%TO.N,GND*%
X22015000Y28450000D03*
%TD*%
D34*
%TO.P,C1,1*%
%TO.N,+3V3*%
X14612500Y20500000D03*
%TO.P,C1,2*%
%TO.N,GND*%
X16187500Y20500000D03*
%TD*%
D31*
%TO.P,C2,1*%
%TO.N,+3V3*%
X15900000Y22735000D03*
%TO.P,C2,2*%
%TO.N,GND*%
X15900000Y21765000D03*
%TD*%
%TO.P,C3,1*%
%TO.N,+3V3*%
X15900000Y24735000D03*
%TO.P,C3,2*%
%TO.N,GND*%
X15900000Y23765000D03*
%TD*%
%TO.P,C4,1*%
%TO.N,+3V3*%
X23800000Y22720000D03*
%TO.P,C4,2*%
%TO.N,GND*%
X23800000Y21750000D03*
%TD*%
D30*
%TO.P,C81,1*%
%TO.N,+3V3*%
X30050000Y20015000D03*
%TO.P,C81,2*%
%TO.N,GND*%
X30050000Y20985000D03*
%TD*%
%TO.P,R32,1*%
%TO.N,/VCCPLL1*%
X39850000Y23765000D03*
%TO.P,R32,2*%
%TO.N,+1V2*%
X39850000Y24735000D03*
%TD*%
D31*
%TO.P,C38,1*%
%TO.N,/IO_Banks/VIOA*%
X47050000Y35135000D03*
%TO.P,C38,2*%
%TO.N,GND*%
X47050000Y34165000D03*
%TD*%
%TO.P,C34,1*%
%TO.N,+3V3*%
X45150000Y35135000D03*
%TO.P,C34,2*%
%TO.N,GND*%
X45150000Y34165000D03*
%TD*%
%TO.P,C60,1*%
%TO.N,+3V3*%
X45150000Y23985000D03*
%TO.P,C60,2*%
%TO.N,GND*%
X45150000Y23015000D03*
%TD*%
%TO.P,C65,1*%
%TO.N,/IO_Banks/VIOB*%
X47050000Y21135000D03*
%TO.P,C65,2*%
%TO.N,GND*%
X47050000Y20165000D03*
%TD*%
%TO.P,C61,1*%
%TO.N,+3V3*%
X45150000Y21135000D03*
%TO.P,C61,2*%
%TO.N,GND*%
X45150000Y20165000D03*
%TD*%
%TO.P,C62,1*%
%TO.N,+3V3*%
X45150000Y18335000D03*
%TO.P,C62,2*%
%TO.N,GND*%
X45150000Y17365000D03*
%TD*%
%TO.P,C66,1*%
%TO.N,/IO_Banks/VIOB*%
X47050000Y18335000D03*
%TO.P,C66,2*%
%TO.N,GND*%
X47050000Y17365000D03*
%TD*%
%TO.P,C63,1*%
%TO.N,+3V3*%
X45150000Y15535000D03*
%TO.P,C63,2*%
%TO.N,GND*%
X45150000Y14565000D03*
%TD*%
%TO.P,C67,1*%
%TO.N,/IO_Banks/VIOB*%
X47050000Y15535000D03*
%TO.P,C67,2*%
%TO.N,GND*%
X47050000Y14565000D03*
%TD*%
%TO.P,C35,1*%
%TO.N,+3V3*%
X45150000Y32335000D03*
%TO.P,C35,2*%
%TO.N,GND*%
X45150000Y31365000D03*
%TD*%
%TO.P,C37,1*%
%TO.N,+3V3*%
X45150000Y26735000D03*
%TO.P,C37,2*%
%TO.N,GND*%
X45150000Y25765000D03*
%TD*%
%TO.P,C36,1*%
%TO.N,+3V3*%
X45150000Y29535000D03*
%TO.P,C36,2*%
%TO.N,GND*%
X45150000Y28565000D03*
%TD*%
%TO.P,C25,1*%
%TO.N,+1V2*%
X31700000Y25785000D03*
%TO.P,C25,2*%
%TO.N,GND*%
X31700000Y24815000D03*
%TD*%
%TO.P,C42,1*%
%TO.N,+3V3*%
X49150000Y35135000D03*
%TO.P,C42,2*%
%TO.N,GND*%
X49150000Y34165000D03*
%TD*%
%TO.P,C43,1*%
%TO.N,+3V3*%
X49150000Y32335000D03*
%TO.P,C43,2*%
%TO.N,GND*%
X49150000Y31365000D03*
%TD*%
%TO.P,C47,1*%
%TO.N,+3V3*%
X49150000Y29535000D03*
%TO.P,C47,2*%
%TO.N,GND*%
X49150000Y28565000D03*
%TD*%
%TO.P,C41,1*%
%TO.N,/IO_Banks/VIOA*%
X47050000Y26735000D03*
%TO.P,C41,2*%
%TO.N,GND*%
X47050000Y25765000D03*
%TD*%
D28*
%TO.P,FID6,*%
%TO.N,*%
X72000000Y1500000D03*
%TD*%
D34*
%TO.P,C19,1*%
%TO.N,+3V3*%
X35112500Y20000000D03*
%TO.P,C19,2*%
%TO.N,GND*%
X36687500Y20000000D03*
%TD*%
D35*
%TO.P,TP12,1,1*%
%TO.N,GND*%
X38300000Y9000000D03*
%TD*%
%TO.P,TP11,1,1*%
%TO.N,/SCL*%
X38300000Y6500000D03*
%TD*%
%TO.P,TP10,1,1*%
%TO.N,/SDA*%
X38300000Y4000000D03*
%TD*%
%TO.P,TP8,1,1*%
%TO.N,+5V*%
X31500000Y4000000D03*
%TD*%
%TO.P,TP9,1,1*%
%TO.N,+3V3*%
X31500000Y9000000D03*
%TD*%
%TO.P,TP13,1,1*%
%TO.N,/xVBUS*%
X5500000Y25750000D03*
%TD*%
%TO.P,TP14,1,1*%
%TO.N,GND*%
X7900000Y23200000D03*
%TD*%
%TO.P,TP16,1,1*%
%TO.N,/USB_N*%
X7900000Y25300000D03*
%TD*%
%TO.P,TP15,1,1*%
%TO.N,/USB_P*%
X5500000Y23700000D03*
%TD*%
D36*
%TO.P,C80,1*%
%TO.N,/VCCPLL1*%
X38400000Y23712500D03*
%TO.P,C80,2*%
%TO.N,/GNDPLL1*%
X38400000Y25287500D03*
%TD*%
D31*
%TO.P,C85,1*%
%TO.N,+3V3*%
X39800000Y21235000D03*
%TO.P,C85,2*%
%TO.N,GND*%
X39800000Y20265000D03*
%TD*%
D30*
%TO.P,C21,1*%
%TO.N,+3V3*%
X35700000Y24715000D03*
%TO.P,C21,2*%
%TO.N,GND*%
X35700000Y25685000D03*
%TD*%
%TO.P,C79,1*%
%TO.N,/VCCPLL1*%
X37200000Y24015000D03*
%TO.P,C79,2*%
%TO.N,/GNDPLL1*%
X37200000Y24985000D03*
%TD*%
D35*
%TO.P,TP17,1,1*%
%TO.N,+1V2*%
X20650000Y8800000D03*
%TD*%
D37*
%TO.P,R48,1*%
%TO.N,/IO_Banks/IO_Buffer_B/ISNS_H*%
X74050000Y17387500D03*
%TO.P,R48,2*%
%TO.N,/IO_Banks/VIOB*%
X74050000Y15812500D03*
%TD*%
D36*
%TO.P,R49,1*%
%TO.N,/IO_Banks/IO_Buffer_A/ISNS_H*%
X72550000Y31612500D03*
%TO.P,R49,2*%
%TO.N,/IO_Banks/VIOA*%
X72550000Y33187500D03*
%TD*%
D35*
%TO.P,TP18,1,1*%
%TO.N,/IO_Banks/IO_Buffer_B/VDAC*%
X72000000Y20200000D03*
%TD*%
%TO.P,TP19,1,1*%
%TO.N,/IO_Banks/IO_Buffer_A/VDAC*%
X74600000Y28800000D03*
%TD*%
D31*
%TO.P,C75,1*%
%TO.N,/IO_Banks/VIOB*%
X51050000Y15535000D03*
%TO.P,C75,2*%
%TO.N,GND*%
X51050000Y14565000D03*
%TD*%
%TO.P,C51,1*%
%TO.N,/IO_Banks/VIOA*%
X51050000Y29535000D03*
%TO.P,C51,2*%
%TO.N,GND*%
X51050000Y28565000D03*
%TD*%
%TO.P,C39,1*%
%TO.N,/IO_Banks/VIOA*%
X47050000Y32335000D03*
%TO.P,C39,2*%
%TO.N,GND*%
X47050000Y31365000D03*
%TD*%
%TO.P,C50,1*%
%TO.N,/IO_Banks/VIOA*%
X51050000Y32335000D03*
%TO.P,C50,2*%
%TO.N,GND*%
X51050000Y31365000D03*
%TD*%
D29*
%TO.P,C44,1*%
%TO.N,Net-(U12-Vin-)*%
X73785000Y12200000D03*
%TO.P,C44,2*%
%TO.N,Net-(U12-Vin+)*%
X72815000Y12200000D03*
%TD*%
D32*
%TO.P,C58,1*%
%TO.N,Net-(U21-Vin-)*%
X72815000Y36800000D03*
%TO.P,C58,2*%
%TO.N,Net-(U21-Vin+)*%
X73785000Y36800000D03*
%TD*%
D31*
%TO.P,R25,1*%
%TO.N,/IO_Banks/VIOB*%
X73800000Y14585000D03*
%TO.P,R25,2*%
%TO.N,Net-(U12-Vin-)*%
X73800000Y13615000D03*
%TD*%
D30*
%TO.P,R54,1*%
%TO.N,/IO_Banks/VIOA*%
X72800000Y34415000D03*
%TO.P,R54,2*%
%TO.N,Net-(U21-Vin-)*%
X72800000Y35385000D03*
%TD*%
D37*
%TO.P,R6,1*%
%TO.N,Net-(U14-OUT)*%
X75950000Y20187500D03*
%TO.P,R6,2*%
%TO.N,/IO_Banks/IO_Buffer_B/ISNS_H*%
X75950000Y18612500D03*
%TD*%
%TO.P,R7,1*%
%TO.N,Net-(U14-OUT)*%
X74050000Y20187500D03*
%TO.P,R7,2*%
%TO.N,/IO_Banks/IO_Buffer_B/ISNS_H*%
X74050000Y18612500D03*
%TD*%
D36*
%TO.P,R8,1*%
%TO.N,Net-(U31-OUT)*%
X70650000Y28812500D03*
%TO.P,R8,2*%
%TO.N,/IO_Banks/IO_Buffer_A/ISNS_H*%
X70650000Y30387500D03*
%TD*%
%TO.P,R56,1*%
%TO.N,Net-(U31-OUT)*%
X72550000Y28812500D03*
%TO.P,R56,2*%
%TO.N,/IO_Banks/IO_Buffer_A/ISNS_H*%
X72550000Y30387500D03*
%TD*%
D32*
%TO.P,C17,1*%
%TO.N,+3V3*%
X25415000Y9900000D03*
%TO.P,C17,2*%
%TO.N,GND*%
X26385000Y9900000D03*
%TD*%
%TO.P,C15,1*%
%TO.N,+3V3*%
X21915000Y9900000D03*
%TO.P,C15,2*%
%TO.N,GND*%
X22885000Y9900000D03*
%TD*%
%TO.P,C20,1*%
%TO.N,+3V3*%
X37165000Y21200000D03*
%TO.P,C20,2*%
%TO.N,GND*%
X38135000Y21200000D03*
%TD*%
D37*
%TO.P,C14,1*%
%TO.N,+1V2*%
X28150000Y19462500D03*
%TO.P,C14,2*%
%TO.N,GND*%
X28150000Y17887500D03*
%TD*%
D31*
%TO.P,R24,1*%
%TO.N,/IO_Banks/IO_Buffer_B/ISNS_H*%
X72800000Y14585000D03*
%TO.P,R24,2*%
%TO.N,Net-(U12-Vin+)*%
X72800000Y13615000D03*
%TD*%
D30*
%TO.P,R30,1*%
%TO.N,/IO_Banks/IO_Buffer_A/ISNS_H*%
X73800000Y34415000D03*
%TO.P,R30,2*%
%TO.N,Net-(U21-Vin+)*%
X73800000Y35385000D03*
%TD*%
%TO.P,R59,1*%
%TO.N,Net-(U12-Vbus)*%
X77000000Y13615000D03*
%TO.P,R59,2*%
%TO.N,/IO_Banks/IO_Buffer_B/VSENSE*%
X77000000Y14585000D03*
%TD*%
D31*
%TO.P,R60,1*%
%TO.N,Net-(U21-Vbus)*%
X70800000Y35385000D03*
%TO.P,R60,2*%
%TO.N,/IO_Banks/IO_Buffer_A/VSENSE*%
X70800000Y34415000D03*
%TD*%
D37*
%TO.P,R50,1*%
%TO.N,/IO_Banks/IO_Buffer_B/ISNS_H*%
X75950000Y17387500D03*
%TO.P,R50,2*%
%TO.N,/IO_Banks/VIOB*%
X75950000Y15812500D03*
%TD*%
D36*
%TO.P,R51,1*%
%TO.N,/IO_Banks/IO_Buffer_A/ISNS_H*%
X70650000Y31612500D03*
%TO.P,R51,2*%
%TO.N,/IO_Banks/VIOA*%
X70650000Y33187500D03*
%TD*%
D38*
%TO.N,/SDA*%
X27400000Y13299902D03*
X38300000Y4000000D03*
X76700000Y36000000D03*
X17899998Y18500000D03*
X23900000Y13300000D03*
X68100000Y16300000D03*
X58200006Y20300000D03*
X73300000Y25500000D03*
D39*
X30900000Y22500000D03*
D38*
X67000000Y28700000D03*
D39*
%TO.N,+3V3*%
X34100000Y22500000D03*
D38*
X17600000Y19550000D03*
X14900000Y26750000D03*
X22600000Y19550000D03*
X14900000Y22750000D03*
X16800000Y29550000D03*
X23800000Y28450000D03*
X14900000Y24750000D03*
X46100000Y26550000D03*
X19550000Y4050000D03*
X76500000Y22600000D03*
X43599998Y12700000D03*
X50100000Y20950000D03*
D39*
X31700000Y24100000D03*
D38*
X9600000Y47000000D03*
X68800000Y37100000D03*
X25500000Y10700000D03*
X58350000Y26500000D03*
X68200000Y20500000D03*
X46100000Y29350000D03*
D39*
X36500000Y20900000D03*
D38*
X46100000Y18150000D03*
X37650000Y13650000D03*
X50100153Y15359371D03*
X66975090Y17600000D03*
X77800000Y11900000D03*
X50100000Y32150000D03*
X27600000Y29700000D03*
X50100000Y18150000D03*
X9700000Y39000000D03*
X24150000Y14600000D03*
X50100000Y26550000D03*
X70100000Y26400000D03*
X46100000Y23650000D03*
X11989606Y2491204D03*
X20600000Y5715000D03*
X50100000Y23650000D03*
X46100000Y15350000D03*
X46100000Y20950000D03*
X46100000Y32150000D03*
D39*
X35700000Y24100000D03*
D38*
X8800006Y43500000D03*
X32800000Y9000000D03*
X50093878Y34826788D03*
X40800000Y21100000D03*
X50093477Y29356523D03*
X24800000Y22700000D03*
X26100000Y7500000D03*
X19543821Y3549811D03*
X22000000Y10700000D03*
X46100000Y34950000D03*
X29200010Y20000000D03*
X69900000Y13700000D03*
X57550000Y30150000D03*
%TO.N,GND*%
X17200000Y11600000D03*
X17200000Y12200000D03*
X14600000Y11600000D03*
X14600000Y12200000D03*
X20000000Y14200000D03*
X19200000Y14200000D03*
X20800000Y14200000D03*
X21600000Y14200000D03*
X57300000Y24900000D03*
X8150000Y40450000D03*
X14600000Y7100000D03*
X18500000Y6550000D03*
X17200000Y7100000D03*
X17850000Y7750000D03*
X17200000Y6500000D03*
X14600000Y6500000D03*
D40*
X54450000Y37650000D03*
D38*
X74700000Y32000000D03*
X76500000Y23600000D03*
X73500000Y33400000D03*
X73500000Y32000000D03*
X70600000Y18100000D03*
X5050010Y14000000D03*
X50100000Y17400000D03*
X50100000Y22900000D03*
X61100000Y25500000D03*
X5049976Y33000000D03*
X50100000Y28600000D03*
X40800000Y20350000D03*
X19299996Y43500000D03*
X26400000Y9100000D03*
D39*
X33300000Y24100000D03*
D38*
X37200010Y9000000D03*
X29100000Y17800000D03*
X50087874Y14609560D03*
X23100006Y43500000D03*
X7800000Y20800006D03*
X14000000Y25650000D03*
X11900000Y43499998D03*
X75400000Y30900000D03*
X28200000Y39600000D03*
D39*
X32500000Y24900000D03*
D38*
X46100000Y25800000D03*
X5050000Y16000000D03*
X74700000Y33400000D03*
X5050004Y10000000D03*
X46100000Y34200000D03*
D40*
X50450000Y37650000D03*
D38*
X46100000Y22900000D03*
X7600000Y28400000D03*
X18500000Y11650000D03*
X23800000Y7500000D03*
X70800000Y22000000D03*
X73100000Y15600000D03*
D39*
X34100000Y24900000D03*
D38*
X5050000Y31000000D03*
X5050002Y35000000D03*
X15500000Y43500000D03*
X71900000Y17000000D03*
X5050000Y37000000D03*
X10799901Y43500000D03*
X50013397Y34081208D03*
D40*
X7900000Y23200000D03*
D38*
X5050000Y12000000D03*
X57300000Y22400000D03*
X35800000Y39600000D03*
X47300000Y38300000D03*
X50100000Y31400000D03*
X11720180Y22250009D03*
X40800000Y22000000D03*
X73100000Y17000000D03*
X27200000Y7500000D03*
X24250000Y18950000D03*
X68800000Y36100000D03*
X46100000Y20200000D03*
X64300000Y23400000D03*
X77500000Y16500000D03*
X46100000Y31400000D03*
X37799998Y19831889D03*
X30800012Y43500000D03*
X74500000Y39500000D03*
X66100000Y13600000D03*
X43200000Y34800000D03*
X71900000Y15600000D03*
D39*
X33300000Y24900000D03*
D38*
X46100000Y14600000D03*
X21280000Y3690000D03*
X10650000Y29800000D03*
X20600000Y39600000D03*
X42700000Y34800000D03*
X11900000Y10200000D03*
X74300000Y9500000D03*
X22900000Y9100000D03*
X5050000Y39000000D03*
X26899998Y43500000D03*
X17850000Y2774910D03*
X57400000Y20300000D03*
X32000000Y39600000D03*
X68700000Y30200000D03*
X24400000Y39600000D03*
D40*
X55450000Y11350000D03*
X51450000Y11350000D03*
D38*
X29000000Y20730358D03*
X50100000Y20200000D03*
X69200000Y32400000D03*
X76650000Y34850000D03*
X71200000Y18100000D03*
X5050000Y18000000D03*
X13024910Y39591062D03*
X50100000Y25800000D03*
X70100000Y25400000D03*
X57550000Y29200000D03*
X16800000Y39600000D03*
X46100000Y28600000D03*
X77800000Y12900000D03*
X34200075Y43499994D03*
X76000000Y30900000D03*
D39*
X34100000Y24100000D03*
D38*
X68024910Y17600000D03*
X46100000Y17400000D03*
X69900000Y14600000D03*
%TO.N,/SCL*%
X17000000Y18500000D03*
X68100000Y15500000D03*
X23200000Y13600000D03*
D39*
X31700000Y21700000D03*
D38*
X38300000Y6500000D03*
X58500000Y21100000D03*
X26700000Y13600000D03*
%TO.N,+5V*%
X13700000Y7950000D03*
X13700000Y3000038D03*
X13700000Y7400000D03*
X40700000Y8000000D03*
X76600000Y28100000D03*
X77100000Y28100000D03*
X13700000Y2449820D03*
X76100000Y28100000D03*
X71000000Y20900000D03*
X75600000Y28100000D03*
X13700000Y9050000D03*
X69500000Y20900000D03*
X32800000Y4000000D03*
X13700000Y8500000D03*
X70500000Y20900000D03*
X70000000Y20900000D03*
%TO.N,/~{CY_RESET}*%
X24700000Y31100000D03*
X9400014Y5000000D03*
%TO.N,/USB_P*%
X5500000Y24750000D03*
X5500000Y23700000D03*
%TO.N,/USB_N*%
X7900000Y25300000D03*
X7900000Y24205100D03*
D39*
%TO.N,/D0*%
X31700000Y23300000D03*
D38*
X18750000Y18500000D03*
%TO.N,/D1*%
X19599999Y18500000D03*
D39*
X30900000Y24100000D03*
D38*
%TO.N,/D2*%
X29700000Y18700000D03*
D39*
X30900000Y21700000D03*
D38*
%TO.N,/FPGA_DONE*%
X26600000Y21300000D03*
X24899996Y24874990D03*
%TO.N,/~{FPGA_RESET}*%
X26000000Y20700000D03*
X24902957Y23814816D03*
%TO.N,+1V2*%
X19550000Y8450000D03*
X19550000Y9150000D03*
X27300000Y18600000D03*
D39*
X34900000Y25700000D03*
X32500000Y25700000D03*
X34900000Y23300000D03*
D38*
X39100000Y24500000D03*
D39*
X32500000Y23300000D03*
D38*
X26803211Y23015765D03*
%TO.N,/CLKIF*%
X26737231Y23762769D03*
X15900000Y19500022D03*
D39*
%TO.N,/FLAGD*%
X30900000Y27300000D03*
D38*
X28600000Y28700000D03*
%TO.N,Net-(U12-Vin+)*%
X72800000Y12900000D03*
%TO.N,Net-(U12-Vin-)*%
X73800000Y12900000D03*
%TO.N,Net-(U21-Vin+)*%
X73800000Y36100000D03*
%TO.N,Net-(U21-Vin-)*%
X72800000Y36100000D03*
%TO.N,Net-(U12-Vbus)*%
X77800000Y13800000D03*
%TO.N,/~{ALERT}*%
X76300000Y32900000D03*
X27541925Y26158075D03*
X25900000Y31800002D03*
X25973150Y27805042D03*
X70299992Y16100000D03*
%TO.N,/CLKREF*%
X17600000Y29550000D03*
D39*
X37300000Y25700000D03*
D38*
X23100000Y29550000D03*
X28600000Y25600000D03*
%TO.N,/ENVB*%
X75700000Y11500000D03*
X15050002Y30350000D03*
X77600000Y19200000D03*
X72600000Y8700000D03*
%TO.N,/ENVA*%
X74100000Y38200000D03*
X21450008Y31950000D03*
D39*
%TO.N,/WR*%
X30900000Y26500000D03*
D38*
X15042375Y29543947D03*
%TO.N,/RD*%
X15800010Y29550000D03*
D39*
X30900000Y25700000D03*
%TO.N,/VCCPLL1*%
X36500000Y24100000D03*
%TO.N,/VCCPLL0*%
X30900000Y24900000D03*
%TO.N,/GNDPLL1*%
X36500000Y24900000D03*
D38*
%TO.N,/GNDPLL0*%
X28100000Y24500000D03*
%TO.N,Net-(U21-Vbus)*%
X68800000Y35200000D03*
%TO.N,/IO_Banks/IO_Buffer_B/Z0*%
X56962190Y8424910D03*
%TO.N,/IO_Banks/IO_Buffer_B/Z7*%
X51200000Y8500000D03*
%TO.N,/IO_Banks/IO_Buffer_B/Z1*%
X56147478Y8447478D03*
%TO.N,/IO_Banks/IO_Buffer_B/Z2*%
X55200000Y8462872D03*
%TO.N,/IO_Banks/IO_Buffer_B/Z3*%
X54400000Y8500000D03*
%TO.N,/IO_Banks/IO_Buffer_B/Z5*%
X52800000Y8500000D03*
%TO.N,/IO_Banks/IO_Buffer_B/Z4*%
X53600000Y8500000D03*
%TO.N,/IO_Banks/IO_Buffer_B/Z6*%
X52000000Y8500000D03*
%TO.N,/IO_Banks/IO_Buffer_A/Z0*%
X51200000Y40500000D03*
%TO.N,/IO_Banks/IO_Buffer_A/Z7*%
X56800000Y40500000D03*
%TO.N,/IO_Banks/IO_Buffer_A/Z1*%
X52000000Y40500000D03*
%TO.N,/IO_Banks/IO_Buffer_A/Z2*%
X52800000Y40500000D03*
%TO.N,/IO_Banks/IO_Buffer_A/Z3*%
X53600000Y40500000D03*
%TO.N,/IO_Banks/IO_Buffer_A/Z5*%
X55200000Y40500000D03*
%TO.N,/IO_Banks/IO_Buffer_A/Z4*%
X54400000Y40500000D03*
%TO.N,/IO_Banks/IO_Buffer_A/Z6*%
X55981323Y40523659D03*
%TO.N,/IO_Banks/QA4*%
X39600000Y25850000D03*
X39500000Y28000000D03*
D39*
%TO.N,/IO_Banks/U1*%
X32500000Y21700000D03*
D38*
X9700000Y18000000D03*
%TO.N,/IO_Banks/IO_Buffer_A/VSENSE*%
X43500000Y38200000D03*
%TO.N,/IO_Banks/VIOB*%
X75000000Y17000000D03*
X75000000Y15600000D03*
X75000000Y16300000D03*
X47050000Y13050000D03*
X51850000Y20950000D03*
X47850000Y15350000D03*
X51850000Y18150000D03*
X47850000Y18150000D03*
X58250000Y14600000D03*
X51700000Y15875600D03*
X51850000Y23650000D03*
X57750000Y14600000D03*
X58100000Y17800000D03*
X47500000Y13050000D03*
X47850000Y23650000D03*
X56200000Y11350000D03*
X68600012Y19000000D03*
X57300000Y14600000D03*
X47850000Y20950000D03*
%TO.N,/IO_Banks/VIOA*%
X49700000Y37650000D03*
X71600000Y33400000D03*
X67000000Y31300000D03*
X51828832Y32128832D03*
X47850000Y34950000D03*
X57900000Y34400000D03*
X47850000Y35450000D03*
X47850000Y26550000D03*
X57400000Y34400000D03*
X71600000Y32700000D03*
X51850000Y29350000D03*
X47850000Y32150000D03*
X47850000Y29350000D03*
X51850000Y26550000D03*
X50134260Y35575612D03*
X71600000Y32000000D03*
X58400000Y34400000D03*
D39*
%TO.N,/IO_Banks/U2*%
X33300000Y22500000D03*
D38*
X9700000Y16000000D03*
%TO.N,/IO_Banks/IO_Buffer_B/VSENSE*%
X67500000Y10400000D03*
%TO.N,/IO_Banks/U5*%
X9700000Y10000000D03*
D39*
X34900000Y22500000D03*
D38*
X37499986Y19100000D03*
%TO.N,/IO_Banks/U4*%
X9700000Y12000000D03*
D39*
X35700000Y21700000D03*
%TO.N,/IO_Banks/U3*%
X34900000Y21700000D03*
D38*
X9700000Y14000000D03*
%TO.N,/IO_Banks/Z4_P*%
X28200000Y43500000D03*
D39*
X35700000Y28100000D03*
%TO.N,/IO_Banks/Z5_P*%
X34900000Y28100000D03*
D38*
X25700000Y43500000D03*
D39*
%TO.N,/IO_Banks/Z12_N*%
X30900000Y28100000D03*
D38*
X14250000Y43500000D03*
%TO.N,/IO_Banks/Z12_P*%
X13114727Y43494675D03*
D39*
X30100000Y28100000D03*
%TO.N,/IO_Banks/Z1_N*%
X36500000Y27300000D03*
D38*
X32000000Y43500000D03*
%TO.N,/IO_Banks/Z4_N*%
X29500000Y43500000D03*
D39*
X35700000Y27300000D03*
D38*
%TO.N,/IO_Banks/Z5_N*%
X24400000Y43500000D03*
D39*
X34900000Y27300000D03*
%TO.N,/IO_Banks/Z7_N*%
X33300000Y27300000D03*
D38*
X20600000Y43500000D03*
%TO.N,/IO_Banks/Z9_P*%
X18050000Y43500000D03*
D39*
X32500000Y27300000D03*
%TO.N,/IO_Banks/Z9_N*%
X32500000Y26500000D03*
D38*
X16785000Y43515000D03*
D39*
%TO.N,/IO_Banks/Z1_P*%
X36500000Y26500000D03*
D38*
X33295000Y43505000D03*
%TO.N,/IO_Banks/VIO_AUX*%
X37050000Y30000000D03*
X41050000Y32700000D03*
X41550000Y32700000D03*
X37150000Y31400000D03*
D39*
X34100000Y26500000D03*
D38*
X37650000Y31400000D03*
D39*
%TO.N,/IO_Banks/Z7_P*%
X33300000Y26500000D03*
D38*
X21850000Y43500000D03*
D39*
%TO.N,/IO_Banks/DA0*%
X36500000Y23300000D03*
D38*
X47850000Y34200000D03*
%TO.N,/IO_Banks/DA4*%
X47850000Y28600000D03*
X42350000Y25400000D03*
%TO.N,/IO_Banks/DA6*%
X47850000Y25800000D03*
X43450000Y24900000D03*
D39*
%TO.N,/IO_Banks/DA1*%
X36500000Y22500000D03*
D38*
X50208259Y33355419D03*
%TO.N,/IO_Banks/DA3*%
X42100000Y26150072D03*
X51850603Y31379236D03*
%TO.N,/IO_Banks/DA5*%
X42045340Y24650000D03*
X51850000Y28600000D03*
%TO.N,/IO_Banks/DA7*%
X43150000Y24200000D03*
X51850000Y25800000D03*
%TO.N,/IO_Banks/DB0*%
X34799998Y18750188D03*
X47850000Y22900000D03*
%TO.N,/IO_Banks/DB4*%
X31800000Y16000000D03*
X47850000Y17400000D03*
%TO.N,/IO_Banks/DB6*%
X47850000Y14600000D03*
X30600000Y14800000D03*
%TO.N,/IO_Banks/DB1*%
X33600000Y17800000D03*
X51850000Y22900000D03*
%TO.N,/IO_Banks/DB3*%
X32400000Y16600000D03*
X51850000Y20200000D03*
%TO.N,/IO_Banks/DB5*%
X31200000Y15400000D03*
X51850000Y17400000D03*
%TO.N,/IO_Banks/DB7*%
X50100000Y13850000D03*
X30000000Y14349722D03*
%TO.N,/IO_Banks/DA2*%
X47850000Y31400000D03*
D39*
X35700000Y23300000D03*
D38*
%TO.N,/IO_Banks/DB2*%
X33000000Y17200000D03*
X47850000Y20200000D03*
%TO.N,/xVBUS*%
X4400000Y25400000D03*
%TO.N,/IO_Banks/IO_Buffer_B/VIO_EN*%
X77600000Y20200000D03*
X70400000Y16900000D03*
%TO.N,/IO_Banks/IO_Buffer_A/VIO_EN*%
X76200000Y32100000D03*
X69000000Y28800000D03*
%TO.N,/SWSH*%
X22150000Y1350000D03*
X27150000Y1350000D03*
X22150000Y550000D03*
X27150000Y550000D03*
%TO.N,/~{MR}*%
X11300000Y7200000D03*
%TO.N,/IO_Banks/IO_Buffer_B/VDAC*%
X73300000Y21600000D03*
%TO.N,/IO_Banks/IO_Buffer_A/VDAC*%
X70900000Y27400000D03*
%TO.N,Net-(U14-OUT)*%
X73200000Y20050000D03*
X73200000Y20650000D03*
X75000000Y20650000D03*
%TO.N,Net-(U31-OUT)*%
X73400000Y28350000D03*
X71600000Y28350000D03*
X73400000Y28950000D03*
%TO.N,Net-(U30A-IOT_219)*%
X42650000Y21500000D03*
D40*
X38600000Y26800000D03*
D38*
%TO.N,Net-(U3-A1)*%
X20607500Y6692500D03*
%TD*%
D41*
%TO.N,/SDA*%
X65300000Y28700000D02*
X67000000Y28700000D01*
X19299998Y17100000D02*
X17899998Y18500000D01*
X36300000Y11900000D02*
X34675099Y13524901D01*
X57900000Y20600006D02*
X57900000Y21300000D01*
X24450000Y17100000D02*
X19299998Y17100000D01*
X58200006Y20300000D02*
X58899916Y19600090D01*
X34675099Y13524901D02*
X27624999Y13524901D01*
X28605268Y21255268D02*
X24450000Y17100000D01*
X75824136Y25500000D02*
X78075090Y27750952D01*
X58899916Y19600090D02*
X68875773Y19600089D01*
X30402224Y22500000D02*
X29157492Y21255268D01*
X23900000Y13300000D02*
X24200000Y13000000D01*
X29157492Y21255268D02*
X28605268Y21255268D01*
X27100098Y13000000D02*
X27400000Y13299902D01*
X30900000Y22500000D02*
X30402224Y22500000D01*
X78075090Y34624910D02*
X76700000Y36000000D01*
X36300000Y6000000D02*
X36300000Y11900000D01*
X68875773Y19600089D02*
X69200178Y19275684D01*
X57900000Y21300000D02*
X65300000Y28700000D01*
X73300000Y25500000D02*
X75824136Y25500000D01*
X69200178Y17400178D02*
X68100000Y16300000D01*
X27624999Y13524901D02*
X27400000Y13299902D01*
X24200000Y13000000D02*
X27100098Y13000000D01*
X78075090Y27750952D02*
X78075090Y34624910D01*
X58200006Y20300000D02*
X57900000Y20600006D01*
X69200178Y19275684D02*
X69200178Y17400178D01*
X38300000Y4000000D02*
X36300000Y6000000D01*
D42*
%TO.N,+3V3*%
X14900000Y24750000D02*
X15885000Y24750000D01*
X22600000Y19550000D02*
X22600000Y20535000D01*
X14900000Y26750000D02*
X15870000Y26750000D01*
X16800000Y29550000D02*
X16800000Y28465000D01*
X15885000Y22750000D02*
X15900000Y22735000D01*
X14900000Y22750000D02*
X15885000Y22750000D01*
X15870000Y26750000D02*
X15900000Y26720000D01*
X22985000Y28450000D02*
X23800000Y28450000D01*
X22600000Y20535000D02*
X22585000Y20550000D01*
X16800000Y28465000D02*
X16815000Y28450000D01*
X15885000Y24750000D02*
X15900000Y24735000D01*
X49815000Y23935000D02*
X49150000Y23935000D01*
X24800000Y22700000D02*
X23820000Y22700000D01*
X45915000Y26735000D02*
X46100000Y26550000D01*
X49915000Y18335000D02*
X50100000Y18150000D01*
X46100000Y23650000D02*
X45765000Y23985000D01*
X49150000Y15535000D02*
X49924524Y15535000D01*
X49150000Y18335000D02*
X49915000Y18335000D01*
X49150000Y21135000D02*
X49915000Y21135000D01*
X49150000Y32335000D02*
X49915000Y32335000D01*
X49915000Y21135000D02*
X50100000Y20950000D01*
X14612500Y20500000D02*
X14612500Y22462500D01*
D41*
X21915000Y9900000D02*
X21915000Y10615000D01*
X25415000Y9900000D02*
X25415000Y10615000D01*
D42*
X17600000Y19400000D02*
X17600000Y20535000D01*
X45150000Y29535000D02*
X45915000Y29535000D01*
X49915000Y26735000D02*
X50100000Y26550000D01*
X45915000Y32335000D02*
X46100000Y32150000D01*
X45150000Y18335000D02*
X45915000Y18335000D01*
X40665000Y21235000D02*
X40800000Y21100000D01*
X34100000Y23215000D02*
X34185000Y23300000D01*
X29200010Y20000000D02*
X30035000Y20000000D01*
X45915000Y35135000D02*
X46100000Y34950000D01*
X49458212Y34826788D02*
X50093878Y34826788D01*
X36800000Y21200000D02*
X36500000Y20900000D01*
X49915000Y29535000D02*
X50093477Y29356523D01*
X45915000Y21135000D02*
X46100000Y20950000D01*
X36012500Y20900000D02*
X35112500Y20000000D01*
X49150000Y26735000D02*
X49915000Y26735000D01*
X45150000Y26735000D02*
X45915000Y26735000D01*
X45915000Y18335000D02*
X46100000Y18150000D01*
X14612500Y22462500D02*
X14900000Y22750000D01*
X50100000Y23650000D02*
X49815000Y23935000D01*
X17600000Y20535000D02*
X17615000Y20550000D01*
X45150000Y15535000D02*
X45915000Y15535000D01*
X36500000Y20900000D02*
X36012500Y20900000D01*
X45150000Y35135000D02*
X45915000Y35135000D01*
X45915000Y15535000D02*
X46100000Y15350000D01*
X23820000Y22700000D02*
X23800000Y22720000D01*
X34100000Y22500000D02*
X34100000Y23215000D01*
X45765000Y23985000D02*
X45150000Y23985000D01*
X45150000Y32335000D02*
X45915000Y32335000D01*
D43*
X31500000Y9000000D02*
X32800000Y9000000D01*
D42*
X30035000Y20000000D02*
X30050000Y20015000D01*
X45915000Y29535000D02*
X46100000Y29350000D01*
X49150000Y35135000D02*
X49458212Y34826788D01*
X45150000Y21135000D02*
X45915000Y21135000D01*
X39800000Y21235000D02*
X40665000Y21235000D01*
X36800000Y21200000D02*
X37165000Y21200000D01*
X49915000Y32335000D02*
X50100000Y32150000D01*
X35700000Y24100000D02*
X35700000Y24715000D01*
D41*
X21915000Y10615000D02*
X22000000Y10700000D01*
X25415000Y10615000D02*
X25500000Y10700000D01*
D42*
X49924524Y15535000D02*
X50100153Y15359371D01*
X49150000Y29535000D02*
X49915000Y29535000D01*
%TO.N,GND*%
X18585000Y21955000D02*
X18580000Y21960000D01*
X17785000Y28450000D02*
X17785000Y26565000D01*
X15900000Y21765000D02*
X17115000Y21765000D01*
X17115000Y21765000D02*
X17310000Y21960000D01*
X17785000Y26565000D02*
X19850000Y24500000D01*
X22015000Y28450000D02*
X22015000Y26665000D01*
X22600000Y21750000D02*
X22390000Y21960000D01*
X21615000Y22735000D02*
X19850000Y24500000D01*
X18585000Y20550000D02*
X18585000Y21955000D01*
X15900000Y23765000D02*
X18045000Y23765000D01*
X18045000Y23765000D02*
X18580000Y23230000D01*
X22015000Y26665000D02*
X22090001Y26740001D01*
X22090001Y26740001D02*
X22390000Y27040000D01*
X21615000Y20550000D02*
X21615000Y22735000D01*
X23800000Y21750000D02*
X22600000Y21750000D01*
X50065000Y17365000D02*
X50100000Y17400000D01*
X51050000Y17365000D02*
X50135000Y17365000D01*
X34815000Y24900000D02*
X34900000Y24985000D01*
X31785000Y24900000D02*
X31700000Y24815000D01*
X46135000Y25765000D02*
X46100000Y25800000D01*
X34100000Y24900000D02*
X34815000Y24900000D01*
X33215000Y23245398D02*
X33215000Y23300000D01*
X50065000Y28565000D02*
X50100000Y28600000D01*
X45150000Y28565000D02*
X46065000Y28565000D01*
X16187500Y20787500D02*
X16187500Y20500000D01*
X50135000Y31365000D02*
X50100000Y31400000D01*
X17310000Y21960000D02*
X17310000Y21910000D01*
X46135000Y28565000D02*
X46100000Y28600000D01*
X50065000Y20165000D02*
X50100000Y20200000D01*
X46065000Y31365000D02*
X46100000Y31400000D01*
X50135000Y25765000D02*
X50100000Y25800000D01*
X32585000Y22500000D02*
X32585000Y22615398D01*
X38135000Y21200000D02*
X38135000Y20166891D01*
X49150000Y20165000D02*
X50065000Y20165000D01*
X50065000Y25765000D02*
X50100000Y25800000D01*
X37635371Y19835371D02*
X37796516Y19835371D01*
X46065000Y20165000D02*
X46100000Y20200000D01*
X50135000Y28565000D02*
X50100000Y28600000D01*
X47050000Y34165000D02*
X46135000Y34165000D01*
X35700000Y26415000D02*
X35785000Y26500000D01*
D41*
X26385000Y9900000D02*
X26385000Y9115000D01*
D42*
X32585000Y22615398D02*
X33215000Y23245398D01*
X49150000Y17365000D02*
X50065000Y17365000D01*
X29100000Y17800000D02*
X28237500Y17800000D01*
X39800000Y20265000D02*
X40715000Y20265000D01*
X29795358Y20730358D02*
X29000000Y20730358D01*
X46135000Y17365000D02*
X46100000Y17400000D01*
X37799998Y19831889D02*
X37631887Y20000000D01*
X45985000Y23015000D02*
X45150000Y23015000D01*
D41*
X22885000Y9900000D02*
X22885000Y9115000D01*
D42*
X47050000Y25765000D02*
X46135000Y25765000D01*
X49929605Y34165000D02*
X50013397Y34081208D01*
X46135000Y20165000D02*
X46100000Y20200000D01*
X15900000Y25750000D02*
X17290000Y25750000D01*
X47050000Y14565000D02*
X46135000Y14565000D01*
X47050000Y31365000D02*
X46135000Y31365000D01*
X33300000Y24100000D02*
X33300000Y24900000D01*
X46065000Y17365000D02*
X46100000Y17400000D01*
X33300000Y23385000D02*
X33215000Y23300000D01*
X50132434Y14565000D02*
X50087874Y14609560D01*
X50043314Y14565000D02*
X50087874Y14609560D01*
D41*
X22885000Y9115000D02*
X22900000Y9100000D01*
D42*
X46065000Y28565000D02*
X46100000Y28600000D01*
X33300000Y25615000D02*
X33215000Y25700000D01*
X46135000Y14565000D02*
X46100000Y14600000D01*
X50100000Y22900000D02*
X50035000Y22965000D01*
X51050000Y34165000D02*
X50097189Y34165000D01*
X49150000Y14565000D02*
X50043314Y14565000D01*
X46100000Y22900000D02*
X45985000Y23015000D01*
X50135000Y17365000D02*
X50100000Y17400000D01*
X32500000Y24900000D02*
X31785000Y24900000D01*
X45150000Y14565000D02*
X46065000Y14565000D01*
X47050000Y28565000D02*
X46135000Y28565000D01*
X32500000Y24900000D02*
X33300000Y24900000D01*
X51050000Y14565000D02*
X50132434Y14565000D01*
X45150000Y25765000D02*
X46065000Y25765000D01*
X49150000Y28565000D02*
X50065000Y28565000D01*
X33300000Y24100000D02*
X33300000Y23385000D01*
X34900000Y24985000D02*
X35000000Y24985000D01*
X50135000Y20165000D02*
X50100000Y20200000D01*
X17310000Y21910000D02*
X16187500Y20787500D01*
X46135000Y31365000D02*
X46100000Y31400000D01*
X51050000Y28565000D02*
X50135000Y28565000D01*
X47050000Y20165000D02*
X46135000Y20165000D01*
X50097189Y34165000D02*
X50013397Y34081208D01*
D41*
X26385000Y9115000D02*
X26400000Y9100000D01*
D42*
X40715000Y20265000D02*
X40800000Y20350000D01*
X46065000Y34165000D02*
X46100000Y34200000D01*
X50035000Y22965000D02*
X49150000Y22965000D01*
X50065000Y31365000D02*
X50100000Y31400000D01*
X51050000Y20165000D02*
X50135000Y20165000D01*
X33300000Y24900000D02*
X34100000Y24900000D01*
X49150000Y25765000D02*
X50065000Y25765000D01*
X49150000Y34165000D02*
X49929605Y34165000D01*
X50165000Y22965000D02*
X51050000Y22965000D01*
X17290000Y25750000D02*
X17310000Y25770000D01*
X46215000Y23015000D02*
X47050000Y23015000D01*
X34100000Y24100000D02*
X33300000Y24100000D01*
X30050000Y20985000D02*
X29795358Y20730358D01*
X45150000Y17365000D02*
X46065000Y17365000D01*
X49150000Y31365000D02*
X50065000Y31365000D01*
X35700000Y25685000D02*
X35700000Y26415000D01*
X46065000Y25765000D02*
X46100000Y25800000D01*
X45150000Y34165000D02*
X46065000Y34165000D01*
X46065000Y14565000D02*
X46100000Y14600000D01*
X46135000Y34165000D02*
X46100000Y34200000D01*
X51050000Y25765000D02*
X50135000Y25765000D01*
X51050000Y31365000D02*
X50135000Y31365000D01*
X33300000Y24900000D02*
X33300000Y25615000D01*
X37631887Y20000000D02*
X36687500Y20000000D01*
X34100000Y24900000D02*
X34100000Y24100000D01*
X46100000Y22900000D02*
X46215000Y23015000D01*
X45150000Y31365000D02*
X46065000Y31365000D01*
X38135000Y20166891D02*
X37799998Y19831889D01*
X50100000Y22900000D02*
X50165000Y22965000D01*
X35000000Y24985000D02*
X35700000Y25685000D01*
D43*
X38250000Y9000000D02*
X37200010Y9000000D01*
D42*
X37796516Y19835371D02*
X37799998Y19831889D01*
X28237500Y17800000D02*
X28150000Y17887500D01*
X47050000Y17365000D02*
X46135000Y17365000D01*
X45150000Y20165000D02*
X46065000Y20165000D01*
D41*
%TO.N,/SCL*%
X38300000Y6500000D02*
X38300000Y6500000D01*
X26700000Y13600000D02*
X26924812Y13824812D01*
X23450000Y13850000D02*
X23200000Y13600000D01*
X69500089Y16900089D02*
X68100000Y15500000D01*
X34875188Y13824812D02*
X36600000Y12100000D01*
X36600000Y12100000D02*
X36600000Y8200000D01*
X26924812Y13824812D02*
X34875188Y13824812D01*
X59700000Y19900000D02*
X69000000Y19900000D01*
X58500000Y21100000D02*
X59700000Y19900000D01*
X31700000Y19550000D02*
X28950000Y16800000D01*
X69500089Y19399911D02*
X69500089Y16900089D01*
X26450000Y13850000D02*
X23450000Y13850000D01*
X26700000Y13600000D02*
X26450000Y13850000D01*
X31700000Y21700000D02*
X31700000Y19550000D01*
X36600000Y8200000D02*
X38300000Y6500000D01*
X28950000Y16800000D02*
X18700000Y16800000D01*
X69000000Y19900000D02*
X69500089Y19399911D01*
X18700000Y16800000D02*
X17000000Y18500000D01*
D43*
%TO.N,+5V*%
X31500000Y4000000D02*
X32800000Y4000000D01*
D41*
%TO.N,/~{CY_RESET}*%
X13500000Y31100000D02*
X24700000Y31100000D01*
X8800000Y5600014D02*
X8800000Y26400000D01*
X8800000Y26400000D02*
X13500000Y31100000D01*
X9400014Y5000000D02*
X8800000Y5600014D01*
D44*
%TO.N,/USB_P*%
X5500000Y24750000D02*
X5500000Y23700000D01*
%TO.N,/USB_N*%
X7900000Y25300000D02*
X7900000Y24205100D01*
D41*
%TO.N,/D0*%
X24300000Y17400000D02*
X19850000Y17400000D01*
X30778086Y23300000D02*
X29033265Y21555179D01*
X19850000Y17400000D02*
X18750000Y18500000D01*
X31700000Y23300000D02*
X30778086Y23300000D01*
X28455179Y21555179D02*
X24300000Y17400000D01*
X29033265Y21555179D02*
X28455179Y21555179D01*
%TO.N,/D1*%
X30500000Y23446052D02*
X28909037Y21855089D01*
X20399999Y17700000D02*
X19599999Y18500000D01*
X28909037Y21855089D02*
X28330951Y21855089D01*
X24175862Y17700000D02*
X20399999Y17700000D01*
X30500000Y23700000D02*
X30500000Y23446052D01*
X28330951Y21855089D02*
X24175862Y17700000D01*
X30900000Y24100000D02*
X30500000Y23700000D01*
%TO.N,/D2*%
X30900000Y19900000D02*
X29700000Y18700000D01*
X30900000Y21700000D02*
X30900000Y19900000D01*
%TO.N,/FPGA_DONE*%
X24899996Y24874990D02*
X25800000Y23974986D01*
X25800000Y23974986D02*
X25800000Y22100000D01*
X25800000Y22100000D02*
X26600000Y21300000D01*
%TO.N,/~{FPGA_RESET}*%
X25399999Y21300001D02*
X25399999Y23317774D01*
X25399999Y23317774D02*
X24902957Y23814816D01*
X26000000Y20700000D02*
X25399999Y21300001D01*
D45*
%TO.N,+1V2*%
X19550000Y9150000D02*
X19550000Y8450000D01*
D42*
X31667622Y22500000D02*
X32467622Y23300000D01*
X27218976Y22600000D02*
X26803211Y23015765D01*
X39100000Y24500000D02*
X39335000Y24735000D01*
X31615000Y22500000D02*
X31667622Y22500000D01*
X34900000Y25700000D02*
X34900000Y26415000D01*
D43*
X28150000Y19462500D02*
X28150000Y19450000D01*
X28150000Y19450000D02*
X27300000Y18600000D01*
D42*
X34900000Y26415000D02*
X34815000Y26500000D01*
X39335000Y24735000D02*
X39850000Y24735000D01*
D45*
X19900000Y8800000D02*
X19550000Y8450000D01*
D42*
X34900000Y23300000D02*
X34900000Y24015000D01*
D45*
X19900000Y8800000D02*
X19550000Y9150000D01*
D42*
X31785000Y25700000D02*
X31700000Y25785000D01*
X27530000Y22600000D02*
X27218976Y22600000D01*
X32500000Y25700000D02*
X31785000Y25700000D01*
D45*
X20650000Y8800000D02*
X19900000Y8800000D01*
D42*
X32467622Y23300000D02*
X32500000Y23300000D01*
D41*
%TO.N,/CLKIF*%
X16374923Y19025099D02*
X15900000Y19500022D01*
X24050000Y18000000D02*
X20850000Y18000000D01*
X27200000Y21600000D02*
X27200000Y21150000D01*
X27200000Y21150000D02*
X24050000Y18000000D01*
X19824901Y19025099D02*
X16374923Y19025099D01*
X20850000Y18000000D02*
X19824901Y19025099D01*
X26200000Y23225538D02*
X26200000Y22600000D01*
X26737231Y23762769D02*
X26200000Y23225538D01*
X26200000Y22600000D02*
X27200000Y21600000D01*
%TO.N,/FLAGD*%
X30900000Y27300000D02*
X30000000Y27300000D01*
X30000000Y27300000D02*
X28600000Y28700000D01*
%TO.N,Net-(U12-Vin+)*%
X72800000Y13615000D02*
X72800000Y12900000D01*
X72800000Y12900000D02*
X72800000Y12215000D01*
X72800000Y12215000D02*
X72815000Y12200000D01*
%TO.N,Net-(U12-Vin-)*%
X73800000Y12215000D02*
X73785000Y12200000D01*
X73800000Y12900000D02*
X73800000Y12215000D01*
X73800000Y13615000D02*
X73800000Y12900000D01*
%TO.N,Net-(U21-Vin+)*%
X73800000Y36100000D02*
X73800000Y36785000D01*
X73800000Y36100000D02*
X73800000Y35385000D01*
X73800000Y36785000D02*
X73785000Y36800000D01*
%TO.N,Net-(U21-Vin-)*%
X72800000Y36100000D02*
X72800000Y36785000D01*
X72800000Y36100000D02*
X72800000Y35385000D01*
X72800000Y36785000D02*
X72815000Y36800000D01*
%TO.N,Net-(U12-Vbus)*%
X77185000Y13800000D02*
X77000000Y13615000D01*
X77800000Y13800000D02*
X77185000Y13800000D01*
%TO.N,/~{ALERT}*%
X65976060Y46700000D02*
X15563040Y46700000D01*
X15563040Y46700000D02*
X12500000Y43636960D01*
X77775179Y27875179D02*
X77775179Y31424821D01*
X73500000Y39176060D02*
X65976060Y46700000D01*
X76300000Y32900000D02*
X76100000Y33100000D01*
X73000000Y26100000D02*
X76000000Y26100000D01*
X24800002Y32900000D02*
X25900000Y31800002D01*
X70299992Y16100000D02*
X69800000Y16599992D01*
X76100000Y35400000D02*
X73500000Y38000000D01*
X76000000Y26100000D02*
X77775179Y27875179D01*
X68900000Y20500000D02*
X68900000Y22000000D01*
X69800000Y16599992D02*
X69800000Y19600000D01*
X77775179Y31424821D02*
X76300000Y32900000D01*
X73500000Y38000000D02*
X73500000Y39176060D01*
X69800000Y19600000D02*
X68900000Y20500000D01*
X25973150Y27805042D02*
X25973150Y27726850D01*
X12500000Y39000000D02*
X18600000Y32900000D01*
X18600000Y32900000D02*
X24800002Y32900000D01*
X68900000Y22000000D02*
X73000000Y26100000D01*
X12500000Y43636960D02*
X12500000Y39000000D01*
X76100000Y33100000D02*
X76100000Y35400000D01*
X25973150Y27726850D02*
X27541925Y26158075D01*
%TO.N,/CLKREF*%
X25350000Y29550000D02*
X28600000Y26300000D01*
X17600000Y29550000D02*
X25350000Y29550000D01*
X28600000Y26300000D02*
X28600000Y25600000D01*
%TO.N,/ENVB*%
X10000000Y3703956D02*
X11779046Y1924910D01*
X78075090Y18724910D02*
X78075090Y16175090D01*
X9100000Y6100000D02*
X10000000Y5200000D01*
X78075090Y16175090D02*
X77300000Y15400000D01*
X22600000Y1750000D02*
X26773146Y1750000D01*
X15050002Y30350000D02*
X9100000Y24399998D01*
X75700000Y14331668D02*
X75700000Y11500000D01*
X11779046Y1924910D02*
X22425090Y1924910D01*
X22425090Y1924910D02*
X22600000Y1750000D01*
X27423146Y2400000D02*
X66300000Y2400000D01*
X77300000Y15400000D02*
X76768332Y15400000D01*
X66300000Y2400000D02*
X72600000Y8700000D01*
X76768332Y15400000D02*
X75700000Y14331668D01*
X77600000Y19200000D02*
X78075090Y18724910D01*
X9100000Y24399998D02*
X9100000Y6100000D01*
X10000000Y5200000D02*
X10000000Y3703956D01*
X26773146Y1750000D02*
X27423146Y2400000D01*
%TO.N,/ENVA*%
X21450008Y31950000D02*
X18650000Y31950000D01*
X18650000Y31950000D02*
X11324803Y39275197D01*
X66150000Y47000000D02*
X74100000Y39050000D01*
X14650000Y47000000D02*
X66150000Y47000000D01*
X74100000Y39050000D02*
X74100000Y38200000D01*
X11324803Y39275197D02*
X11324803Y43674803D01*
X11324803Y43674803D02*
X14650000Y47000000D01*
%TO.N,/WR*%
X15948427Y30449999D02*
X15042375Y29543947D01*
X26072999Y30449999D02*
X15948427Y30449999D01*
X30900000Y26500000D02*
X30022998Y26500000D01*
X30022998Y26500000D02*
X26072999Y30449999D01*
%TO.N,/RD*%
X25600000Y30100000D02*
X16350010Y30100000D01*
X30000000Y25700000D02*
X25600000Y30100000D01*
X16350010Y30100000D02*
X15800010Y29550000D01*
X30900000Y25700000D02*
X30000000Y25700000D01*
D42*
%TO.N,/VCCPLL1*%
X37115000Y24100000D02*
X37200000Y24015000D01*
X38452500Y23765000D02*
X38400000Y23712500D01*
X36500000Y24100000D02*
X37115000Y24100000D01*
X37200000Y24015000D02*
X38097500Y24015000D01*
X38097500Y24015000D02*
X38400000Y23712500D01*
X39850000Y23765000D02*
X38452500Y23765000D01*
%TO.N,/VCCPLL0*%
X28385000Y22400000D02*
X28385000Y22597500D01*
X28385000Y22597500D02*
X29387500Y23600000D01*
X30300000Y25100000D02*
X30700000Y25100000D01*
X30700000Y25100000D02*
X30900000Y24900000D01*
X29387500Y23600000D02*
X29387500Y24187500D01*
X30300000Y25100000D02*
X29700000Y24500000D01*
X29387500Y24187500D02*
X29700000Y24500000D01*
%TO.N,/GNDPLL1*%
X36500000Y24900000D02*
X37115000Y24900000D01*
X37200000Y24985000D02*
X38097500Y24985000D01*
X37115000Y24900000D02*
X37200000Y24985000D01*
X38097500Y24985000D02*
X38400000Y25287500D01*
%TO.N,/GNDPLL0*%
X27812500Y24212500D02*
X28100000Y24500000D01*
X29330000Y25100000D02*
X28730000Y24500000D01*
X28730000Y24500000D02*
X28100000Y24500000D01*
X27812500Y23600000D02*
X27812500Y24212500D01*
D41*
%TO.N,Net-(U21-Vbus)*%
X68800000Y35200000D02*
X70615000Y35200000D01*
X70615000Y35200000D02*
X70800000Y35385000D01*
%TO.N,/IO_Banks/IO_Buffer_B/Z0*%
X63900000Y8700000D02*
X57237280Y8700000D01*
X57237280Y8700000D02*
X56962190Y8424910D01*
X66700000Y11500000D02*
X63900000Y8700000D01*
%TO.N,/IO_Banks/IO_Buffer_B/Z7*%
X51200000Y8500000D02*
X53500099Y10800099D01*
X53500099Y10800099D02*
X57100099Y10800099D01*
X57800000Y11500000D02*
X57810000Y11500000D01*
X57100099Y10800099D02*
X57800000Y11500000D01*
%TO.N,/IO_Banks/IO_Buffer_B/Z1*%
X56700000Y9000000D02*
X56147478Y8447478D01*
X65430000Y11500000D02*
X62930000Y9000000D01*
X62930000Y9000000D02*
X56700000Y9000000D01*
%TO.N,/IO_Banks/IO_Buffer_B/Z2*%
X61960000Y9300000D02*
X56076311Y9300000D01*
X56076311Y9300000D02*
X55239183Y8462872D01*
X64160000Y11500000D02*
X61960000Y9300000D01*
X55239183Y8462872D02*
X55200000Y8462872D01*
%TO.N,/IO_Banks/IO_Buffer_B/Z3*%
X54400000Y8500000D02*
X55500000Y9600000D01*
X60990000Y9600000D02*
X62890000Y11500000D01*
X55500000Y9600000D02*
X60990000Y9600000D01*
%TO.N,/IO_Banks/IO_Buffer_B/Z5*%
X52800000Y8500000D02*
X54500279Y10200279D01*
X59050279Y10200279D02*
X60350000Y11500000D01*
X54500279Y10200279D02*
X59050279Y10200279D01*
%TO.N,/IO_Banks/IO_Buffer_B/Z4*%
X53600000Y8500000D02*
X55000000Y9900000D01*
X55000000Y9900000D02*
X60020000Y9900000D01*
X60020000Y9900000D02*
X61620000Y11500000D01*
%TO.N,/IO_Banks/IO_Buffer_B/Z6*%
X52000000Y8500000D02*
X54000000Y10500000D01*
X58080000Y10500000D02*
X59080000Y11500000D01*
X54000000Y10500000D02*
X58080000Y10500000D01*
%TO.N,/IO_Banks/IO_Buffer_A/Z0*%
X51200000Y40500000D02*
X53566982Y38133018D01*
X57166982Y38133018D02*
X57800000Y37500000D01*
X53566982Y38133018D02*
X57166982Y38133018D01*
%TO.N,/IO_Banks/IO_Buffer_A/Z7*%
X63900000Y40300000D02*
X66700000Y37500000D01*
X56800000Y40500000D02*
X57000000Y40300000D01*
X57000000Y40300000D02*
X63900000Y40300000D01*
%TO.N,/IO_Banks/IO_Buffer_A/Z1*%
X58217071Y38432929D02*
X54067071Y38432929D01*
X53150089Y39349911D02*
X52000000Y40500000D01*
X59080000Y37570000D02*
X58217071Y38432929D01*
X54067071Y38432929D02*
X53150089Y39349911D01*
X59080000Y37500000D02*
X59080000Y37570000D01*
%TO.N,/IO_Banks/IO_Buffer_A/Z2*%
X52800000Y40500000D02*
X54567160Y38732840D01*
X54567160Y38732840D02*
X59117160Y38732840D01*
X59117160Y38732840D02*
X60350000Y37500000D01*
%TO.N,/IO_Banks/IO_Buffer_A/Z3*%
X53600000Y40500000D02*
X55050000Y39050000D01*
X55050000Y39050000D02*
X60070000Y39050000D01*
X60070000Y39050000D02*
X61620000Y37500000D01*
%TO.N,/IO_Banks/IO_Buffer_A/Z5*%
X56024811Y39675189D02*
X61984811Y39675189D01*
X61984811Y39675189D02*
X64160000Y37500000D01*
X55200000Y40500000D02*
X56024811Y39675189D01*
%TO.N,/IO_Banks/IO_Buffer_A/Z4*%
X55524721Y39375279D02*
X61014721Y39375279D01*
X61014721Y39375279D02*
X62890000Y37500000D01*
X54400000Y40500000D02*
X55524721Y39375279D01*
%TO.N,/IO_Banks/IO_Buffer_A/Z6*%
X56529883Y39975099D02*
X55981323Y40523659D01*
X65430000Y37500000D02*
X62954901Y39975099D01*
X62954901Y39975099D02*
X56529883Y39975099D01*
%TO.N,/IO_Banks/QA4*%
X39600000Y25850000D02*
X39500000Y25950000D01*
X39500000Y25950000D02*
X39500000Y28000000D01*
%TO.N,/IO_Banks/U1*%
X29151813Y16500090D02*
X32500000Y19848277D01*
X9700000Y18000000D02*
X11199911Y16500089D01*
X32500000Y19848277D02*
X32500000Y21700000D01*
X11199911Y16500089D02*
X29151813Y16500090D01*
%TO.N,/IO_Banks/IO_Buffer_A/VSENSE*%
X44200000Y38900000D02*
X43500000Y38200000D01*
X53800000Y36700000D02*
X51600000Y38900000D01*
X51600000Y38900000D02*
X44200000Y38900000D01*
X66400000Y36700000D02*
X53800000Y36700000D01*
X68685000Y34415000D02*
X66400000Y36700000D01*
X70800000Y34415000D02*
X68685000Y34415000D01*
D42*
%TO.N,/IO_Banks/VIOB*%
X47665000Y18335000D02*
X47850000Y18150000D01*
X47665000Y15535000D02*
X47850000Y15350000D01*
D45*
X75000000Y12000000D02*
X74200000Y11200000D01*
D43*
X56200000Y14600000D02*
X52700000Y14600000D01*
D42*
X47665000Y21135000D02*
X47850000Y20950000D01*
D43*
X52700000Y20950000D02*
X52700000Y23100000D01*
X52700000Y18150000D02*
X52700000Y20950000D01*
D42*
X47050000Y15535000D02*
X47665000Y15535000D01*
D43*
X52675600Y15875600D02*
X52700000Y15900000D01*
X52700000Y14600000D02*
X52700000Y13950000D01*
D42*
X47515000Y23985000D02*
X47050000Y23985000D01*
D43*
X57300000Y14600000D02*
X56200000Y14600000D01*
D42*
X51050000Y21135000D02*
X51665000Y21135000D01*
D43*
X52700000Y13950000D02*
X51800000Y13050000D01*
X51850000Y23650000D02*
X52150000Y23650000D01*
D42*
X56900000Y14600000D02*
X56900000Y16816854D01*
D41*
X73800000Y15562500D02*
X74050000Y15812500D01*
D43*
X52700000Y20950000D02*
X51850000Y20950000D01*
D45*
X74200000Y11200000D02*
X70900000Y11200000D01*
X70900000Y11200000D02*
X67500000Y14600000D01*
X67500000Y14600000D02*
X58250000Y14600000D01*
D42*
X51390600Y15875600D02*
X51050000Y15535000D01*
D41*
X73800000Y14585000D02*
X73800000Y15562500D01*
X67500000Y14600000D02*
X67500000Y17900000D01*
D43*
X51700000Y15875600D02*
X52675600Y15875600D01*
D41*
X67500000Y17900000D02*
X68600000Y19000000D01*
D43*
X47500000Y13050000D02*
X47050000Y13050000D01*
D42*
X57883146Y17800000D02*
X58100000Y17800000D01*
X51850000Y23650000D02*
X51565000Y23935000D01*
D43*
X52700000Y18150000D02*
X51850000Y18150000D01*
D42*
X47050000Y21135000D02*
X47665000Y21135000D01*
D43*
X52150000Y23650000D02*
X52700000Y23100000D01*
D42*
X51050000Y18335000D02*
X51665000Y18335000D01*
X51700000Y15875600D02*
X51390600Y15875600D01*
D45*
X75000000Y15600000D02*
X75000000Y12000000D01*
D42*
X51665000Y18335000D02*
X51850000Y18150000D01*
D43*
X51800000Y13050000D02*
X47500000Y13050000D01*
D42*
X51665000Y21135000D02*
X51850000Y20950000D01*
X51565000Y23935000D02*
X51050000Y23935000D01*
D45*
X57750000Y14600000D02*
X58250000Y14600000D01*
X58250000Y14600000D02*
X57300000Y14600000D01*
D42*
X47050000Y18335000D02*
X47665000Y18335000D01*
X56900000Y16816854D02*
X57883146Y17800000D01*
D43*
X52700000Y15900000D02*
X52700000Y18150000D01*
D42*
X47850000Y23650000D02*
X47515000Y23985000D01*
D43*
X56200000Y11350000D02*
X56200000Y14600000D01*
D41*
X68600000Y19000000D02*
X68600012Y19000000D01*
D43*
X52700000Y14600000D02*
X52700000Y15900000D01*
%TO.N,/IO_Banks/VIOA*%
X52700000Y31150000D02*
X52700000Y30200000D01*
X52700000Y32200000D02*
X52700000Y31150000D01*
X52700000Y31150000D02*
X52700000Y29800000D01*
D42*
X51665000Y29535000D02*
X51850000Y29350000D01*
D41*
X67475105Y31775105D02*
X67475105Y33324895D01*
D43*
X48900000Y36000000D02*
X49700000Y36000000D01*
D42*
X50765000Y35135000D02*
X50324388Y35575612D01*
D45*
X70512605Y33324895D02*
X70650000Y33187500D01*
D43*
X49700000Y37650000D02*
X49700000Y36000000D01*
X52700000Y27400000D02*
X52700000Y29800000D01*
X49700000Y36000000D02*
X50100000Y36000000D01*
D45*
X57400000Y34400000D02*
X57800000Y34400000D01*
D42*
X47665000Y29535000D02*
X47050000Y29535000D01*
D43*
X47850000Y34950000D02*
X48900000Y36000000D01*
X50100000Y36000000D02*
X52100000Y36000000D01*
X51850000Y26550000D02*
X52700000Y27400000D01*
D42*
X51665000Y26735000D02*
X51850000Y26550000D01*
D43*
X52700000Y35400000D02*
X52700000Y34400000D01*
D45*
X67475105Y33324895D02*
X70512605Y33324895D01*
D43*
X47850000Y34950000D02*
X47850000Y35450000D01*
X50100000Y35609872D02*
X50134260Y35575612D01*
D45*
X57900000Y34400000D02*
X58450000Y34400000D01*
D41*
X72800000Y33437500D02*
X72550000Y33187500D01*
D42*
X47050000Y26735000D02*
X47665000Y26735000D01*
D41*
X72800000Y34415000D02*
X72800000Y33437500D01*
D42*
X47665000Y35135000D02*
X47850000Y34950000D01*
D43*
X51850000Y29350000D02*
X52700000Y29350000D01*
D42*
X50324388Y35575612D02*
X50134260Y35575612D01*
D43*
X52700000Y34400000D02*
X52700000Y32200000D01*
X57800000Y34400000D02*
X52700000Y34400000D01*
D42*
X51050000Y29535000D02*
X51665000Y29535000D01*
X51050000Y35135000D02*
X50765000Y35135000D01*
X51622664Y32335000D02*
X51828832Y32128832D01*
X47050000Y35135000D02*
X47665000Y35135000D01*
X51050000Y26735000D02*
X51665000Y26735000D01*
D45*
X58400000Y34400000D02*
X66400000Y34400000D01*
D42*
X47850000Y29350000D02*
X47665000Y29535000D01*
D43*
X52100000Y36000000D02*
X52700000Y35400000D01*
D45*
X66400000Y34400000D02*
X67475105Y33324895D01*
D43*
X50100000Y36000000D02*
X50100000Y35609872D01*
D45*
X58450000Y34400000D02*
X57800000Y34400000D01*
D42*
X47050000Y32335000D02*
X47665000Y32335000D01*
X51050000Y32335000D02*
X51622664Y32335000D01*
D43*
X52628832Y32128832D02*
X51828832Y32128832D01*
D42*
X47665000Y26735000D02*
X47850000Y26550000D01*
D41*
X67000000Y31300000D02*
X67475105Y31775105D01*
D42*
X47665000Y32335000D02*
X47850000Y32150000D01*
D41*
%TO.N,/IO_Banks/U2*%
X9700000Y16000000D02*
X9900179Y16200179D01*
X29313972Y16200179D02*
X33300000Y20186207D01*
X33300000Y20186207D02*
X33300000Y22500000D01*
X9900179Y16200179D02*
X29313972Y16200179D01*
%TO.N,/IO_Banks/IO_Buffer_B/VSENSE*%
X76300000Y13885000D02*
X77000000Y14585000D01*
X76300000Y11300000D02*
X75400000Y10400000D01*
X76300000Y11300000D02*
X76300000Y13885000D01*
X75400000Y10400000D02*
X67500000Y10400000D01*
%TO.N,/IO_Banks/U5*%
X9700000Y10000000D02*
X9700000Y11200000D01*
X9700000Y11200000D02*
X13800448Y15300448D01*
X37299986Y19300000D02*
X37499986Y19100000D01*
X33724138Y19300000D02*
X37299986Y19300000D01*
X13800448Y15300448D02*
X29724586Y15300448D01*
X29724586Y15300448D02*
X33724138Y19300000D01*
%TO.N,/IO_Banks/U4*%
X9700000Y12000000D02*
X9700000Y13100000D01*
X12200359Y15600359D02*
X29600359Y15600359D01*
X29600359Y15600359D02*
X35700000Y21700000D01*
X9700000Y13100000D02*
X12200359Y15600359D01*
%TO.N,/IO_Banks/U3*%
X11600269Y15900269D02*
X29450269Y15900269D01*
X9700000Y14000000D02*
X11600269Y15900269D01*
X34900000Y21350000D02*
X29450269Y15900269D01*
X34900000Y21700000D02*
X34900000Y21350000D01*
D44*
%TO.N,/IO_Banks/Z4_P*%
X37154029Y33831537D02*
X37176666Y33867563D01*
X37195482Y33950000D02*
X37190718Y33992279D01*
X35452772Y33747480D02*
X35563893Y33760000D01*
X36017047Y29965451D02*
X36064550Y30012954D01*
X35347223Y33710547D02*
X35452772Y33747480D01*
X37154029Y34068464D02*
X37123945Y34098548D01*
X35896757Y29907522D02*
X35960166Y29929710D01*
X37190718Y33907722D02*
X37195482Y33950000D01*
X35982279Y32695237D02*
X35940000Y32700000D01*
X36629374Y34140000D02*
X36518253Y34152521D01*
X35064518Y33260626D02*
X35077039Y33371747D01*
X36130000Y34639375D02*
X36130000Y34924982D01*
X36130000Y29000000D02*
X36122479Y29066757D01*
X29907582Y35502000D02*
X29280000Y36129582D01*
X35793557Y29300000D02*
X35726801Y29307522D01*
X36318019Y34248948D02*
X36238947Y34328020D01*
X36122479Y30133244D02*
X36130000Y30200000D01*
X36142520Y34528254D02*
X36130000Y34639375D01*
X36179453Y34422705D02*
X36142520Y34528254D01*
X36125237Y32552279D02*
X36111185Y32592438D01*
X37005482Y34140000D02*
X36629374Y34140000D01*
X37047760Y34135237D02*
X37005482Y34140000D01*
X37123945Y34098548D02*
X37087919Y34121185D01*
X36130000Y28210833D02*
X36130000Y29000000D01*
X35606511Y29365451D02*
X35559008Y29412954D01*
X37005482Y33760000D02*
X37047760Y33764764D01*
X35606511Y29834550D02*
X35663392Y29870291D01*
X35960166Y29929710D02*
X36017047Y29965451D01*
X36058464Y32658548D02*
X36022438Y32681185D01*
X36122479Y29066757D02*
X36100291Y29130166D01*
X35663392Y29870291D02*
X35726801Y29892479D01*
X28680000Y40379582D02*
X29280000Y39779582D01*
X35252538Y33651053D02*
X35347223Y33710547D01*
X35940000Y32700000D02*
X35563893Y32700000D01*
X36088548Y32628464D02*
X36058464Y32658548D01*
X35077039Y33088254D02*
X35064518Y33199375D01*
X35452772Y32712521D02*
X35347223Y32749454D01*
X35559008Y29787047D02*
X35606511Y29834550D01*
X35064518Y33199375D02*
X35064518Y33260626D01*
X35700000Y28100000D02*
X36019167Y28100000D01*
X36022438Y32681185D02*
X35982279Y32695237D01*
X36111185Y32592438D02*
X36088548Y32628464D01*
X36518253Y34152521D02*
X36412704Y34189454D01*
X35559008Y29412954D02*
X35523267Y29469835D01*
X36238947Y34328020D02*
X36179453Y34422705D01*
X36412704Y34189454D02*
X36318019Y34248948D01*
X35347223Y32749454D02*
X35252538Y32808948D01*
X35726801Y29307522D02*
X35663392Y29329710D01*
X36100291Y29130166D02*
X36064550Y29187047D01*
X29280000Y39779582D02*
X29280000Y36129582D01*
X37176666Y34032438D02*
X37154029Y34068464D01*
X36130000Y34924982D02*
X35552982Y35502000D01*
X37190718Y33992279D02*
X37176666Y34032438D01*
X36017047Y29234550D02*
X35960166Y29270291D01*
X35113972Y32982705D02*
X35077039Y33088254D01*
X37123945Y33801453D02*
X37154029Y33831537D01*
X35501079Y29533244D02*
X35493557Y29600000D01*
X36064550Y30012954D02*
X36100291Y30069835D01*
X36019167Y28100000D02*
X36130000Y28210833D01*
X35896757Y29292479D02*
X35830000Y29300000D01*
X35830000Y29300000D02*
X35793557Y29300000D01*
X28680000Y43020000D02*
X28680000Y40379582D01*
X36130000Y30200000D02*
X36130000Y32510000D01*
X28680000Y43020000D02*
X28200000Y43500000D01*
X35663392Y29329710D02*
X35606511Y29365451D01*
X35173466Y33571981D02*
X35252538Y33651053D01*
X35960166Y29270291D02*
X35896757Y29292479D01*
X35563893Y33760000D02*
X37005482Y33760000D01*
X35726801Y29892479D02*
X35793557Y29900000D01*
X35173466Y32888020D02*
X35113972Y32982705D01*
X37176666Y33867563D02*
X37190718Y33907722D01*
X37087919Y34121185D02*
X37047760Y34135237D01*
X37087919Y33778816D02*
X37123945Y33801453D01*
X35793557Y29900000D02*
X35830000Y29900000D01*
X36064550Y29187047D02*
X36017047Y29234550D01*
X37047760Y33764764D02*
X37087919Y33778816D01*
X35830000Y29900000D02*
X35896757Y29907522D01*
X35493557Y29600000D02*
X35501079Y29666757D01*
X35501079Y29666757D02*
X35523267Y29730166D01*
X36100291Y30069835D02*
X36122479Y30133244D01*
X35077039Y33371747D02*
X35113972Y33477296D01*
X35523267Y29469835D02*
X35501079Y29533244D01*
X35552982Y35502000D02*
X29907582Y35502000D01*
X36130000Y32510000D02*
X36125237Y32552279D01*
X35563893Y32700000D02*
X35452772Y32712521D01*
X35252538Y32808948D02*
X35173466Y32888020D01*
X35113972Y33477296D02*
X35173466Y33571981D01*
X35523267Y29730166D02*
X35559008Y29787047D01*
%TO.N,/IO_Banks/Z5_P*%
X27852006Y36397034D02*
X27861474Y36355554D01*
X31615013Y32582141D02*
X31653346Y32563681D01*
X26887575Y38803395D02*
X26996596Y38778512D01*
X26565979Y38729994D02*
X26666730Y38778512D01*
X27371207Y38207940D02*
X27346324Y38098919D01*
X27879935Y36317220D02*
X27906461Y36283956D01*
X33136548Y32795481D02*
X33161432Y32686459D01*
X26861704Y37335450D02*
X26888231Y37302187D01*
X33088028Y32896234D02*
X33136548Y32795481D01*
X27906461Y36283956D02*
X31581749Y32608668D01*
X33792687Y30637913D02*
X33853213Y30667061D01*
X25220000Y43020000D02*
X25220000Y40520418D01*
X32573471Y31825855D02*
X32555011Y31787521D01*
X27043852Y37247734D02*
X27085333Y37257200D01*
X33161432Y32574632D02*
X33136548Y32465609D01*
X27001306Y37247734D02*
X27043852Y37247734D01*
X33594519Y30637913D02*
X33660014Y30622964D01*
X28224661Y36870854D02*
X27906461Y36552657D01*
X27097347Y38729993D02*
X27184774Y38660272D01*
X27085333Y37257200D02*
X27123665Y37275661D01*
X34423871Y30420567D02*
X34394723Y30360041D01*
X27852006Y36439580D02*
X27852006Y36397034D01*
X33018305Y32277427D02*
X32599998Y31859119D01*
X32555011Y31662015D02*
X32573471Y31623682D01*
X34470000Y28210833D02*
X34580833Y28100000D01*
X31653346Y32563681D02*
X31694826Y32554213D01*
X33533993Y30667061D02*
X33594519Y30637913D01*
X27228084Y38616963D02*
X27297806Y38529534D01*
X32545543Y31703495D02*
X32555011Y31662015D01*
X26888231Y37302187D02*
X26921493Y37275661D01*
X26996596Y38778512D02*
X27097347Y38729993D01*
X26833775Y37415264D02*
X26843243Y37373784D01*
X27906461Y36552657D02*
X27879935Y36519392D01*
X31850449Y32608668D02*
X32268758Y33026975D01*
X33905735Y30708946D02*
X33928573Y30731783D01*
X27793982Y37785165D02*
X27905806Y37785165D01*
X26138698Y38320419D02*
X26478552Y38660272D01*
X33928573Y30731783D02*
X33981096Y30773669D01*
X26025621Y38265964D02*
X26067102Y38275430D01*
X27346324Y38098919D02*
X27297805Y37998168D01*
X32565963Y33170101D02*
X32677789Y33170101D01*
X34244019Y30106138D02*
X34244019Y30038959D01*
X31817185Y32582141D02*
X31850449Y32608668D01*
X27156929Y37302189D02*
X27496783Y37642042D01*
X32599998Y31590418D02*
X33481472Y30708945D01*
X26843243Y37499290D02*
X26833775Y37457810D01*
X31694826Y32554213D02*
X31737372Y32554213D01*
X25870000Y39870418D02*
X25870000Y38320417D01*
X33088028Y32364857D02*
X33018305Y32277427D01*
X32456940Y33145218D02*
X32565963Y33170101D01*
X27584210Y37711764D02*
X27684961Y37760282D01*
X34423871Y30618735D02*
X34438820Y30553240D01*
X32677789Y33170101D02*
X32786812Y33145218D01*
X26105434Y38293891D02*
X26138698Y38320419D01*
X32786812Y33145218D02*
X32887564Y33096698D01*
X27297805Y37998168D02*
X27228084Y37910741D01*
X28014827Y37760282D02*
X28115578Y37711763D01*
X28316037Y37511304D02*
X28364555Y37410555D01*
X34330001Y29860416D02*
X34470000Y29720418D01*
X27861474Y36355554D02*
X27879935Y36317220D01*
X33853213Y30667061D02*
X33905735Y30708946D01*
X32887564Y33096698D02*
X32974994Y33026975D01*
X34330001Y30284681D02*
X34288115Y30232158D01*
X34300315Y30773669D02*
X34352838Y30731783D01*
X33481472Y30708945D02*
X33533993Y30667061D01*
X33018306Y32983663D02*
X33088028Y32896234D01*
X26067102Y38275430D02*
X26105434Y38293891D01*
X34174295Y30817765D02*
X34239789Y30802816D01*
X33136548Y32465609D02*
X33088028Y32364857D01*
X27861474Y36481060D02*
X27852006Y36439580D01*
X34352838Y30307519D02*
X34330001Y30284681D01*
X27297806Y38529534D02*
X27346324Y38428785D01*
X34394723Y30679261D02*
X34423871Y30618735D01*
X26833775Y37457810D02*
X26833775Y37415264D01*
X28364555Y37080689D02*
X28316036Y36979938D01*
X28389438Y37189710D02*
X28364555Y37080689D01*
X25700000Y43500000D02*
X25220000Y43020000D01*
X34041622Y30802816D02*
X34107116Y30817765D01*
X34580833Y28100000D02*
X34900000Y28100000D01*
X34288115Y29912939D02*
X34330001Y29860416D01*
X34438820Y30486062D02*
X34423871Y30420567D01*
X34239789Y30802816D02*
X34300315Y30773669D01*
X33660014Y30622964D02*
X33727192Y30622964D01*
X27879935Y36519392D02*
X27861474Y36481060D01*
X27123665Y37275661D02*
X27156929Y37302189D01*
X28389438Y37301534D02*
X28389438Y37189710D01*
X32974994Y33026975D02*
X33018306Y32983663D01*
X33727192Y30622964D02*
X33792687Y30637913D01*
X27684961Y37760282D02*
X27793982Y37785165D01*
X25903262Y38293891D02*
X25941596Y38275430D01*
X26888230Y37570887D02*
X26861704Y37537622D01*
X26478552Y38660272D02*
X26565979Y38729994D01*
X26861704Y37537622D02*
X26843243Y37499290D01*
X27184774Y38660272D02*
X27228084Y38616963D01*
X32555011Y31787521D02*
X32545543Y31746042D01*
X28246315Y36892511D02*
X28224661Y36870854D01*
X31737372Y32554213D02*
X31778852Y32563681D01*
X27228084Y37910741D02*
X27206430Y37889084D01*
X31778852Y32563681D02*
X31817185Y32582141D01*
X34244019Y30038959D02*
X34258968Y29973465D01*
X32268758Y33026975D02*
X32356187Y33096698D01*
X26921493Y37275661D02*
X26959827Y37257200D01*
X34288115Y30232158D02*
X34258968Y30171632D01*
X34258968Y29973465D02*
X34288115Y29912939D01*
X27206430Y37889084D02*
X26888230Y37570887D01*
X32545543Y31746042D02*
X32545543Y31703495D01*
X25220000Y40520418D02*
X25870000Y39870418D01*
X34352838Y30731783D02*
X34394723Y30679261D01*
X28364555Y37410555D02*
X28389438Y37301534D01*
X32599998Y31859119D02*
X32573471Y31825855D01*
X28203005Y37642042D02*
X28246315Y37598733D01*
X26959827Y37257200D02*
X27001306Y37247734D01*
X34258968Y30171632D02*
X34244019Y30106138D01*
X27905806Y37785165D02*
X28014827Y37760282D01*
X34470000Y29720418D02*
X34470000Y28210833D01*
X26843243Y37373784D02*
X26861704Y37335450D01*
X34107116Y30817765D02*
X34174295Y30817765D01*
X28115578Y37711763D02*
X28203005Y37642042D01*
X27496783Y37642042D02*
X27584210Y37711764D01*
X27371207Y38319764D02*
X27371207Y38207940D01*
X26666730Y38778512D02*
X26775751Y38803395D01*
X28246315Y37598733D02*
X28316037Y37511304D01*
X31581749Y32608668D02*
X31615013Y32582141D01*
X34438820Y30553240D02*
X34438820Y30486062D01*
X32356187Y33096698D02*
X32456940Y33145218D01*
X28316036Y36979938D02*
X28246315Y36892511D01*
X33981096Y30773669D02*
X34041622Y30802816D01*
X34394723Y30360041D02*
X34352838Y30307519D01*
X25941596Y38275430D02*
X25983075Y38265964D01*
X32573471Y31623682D02*
X32599998Y31590418D01*
X25870000Y38320417D02*
X25903262Y38293891D01*
X25983075Y38265964D02*
X26025621Y38265964D01*
X27346324Y38428785D02*
X27371207Y38319764D01*
X26775751Y38803395D02*
X26887575Y38803395D01*
X33161432Y32686459D02*
X33161432Y32574632D01*
%TO.N,/IO_Banks/Z12_N*%
X13909722Y38830696D02*
X18790418Y33950000D01*
X30670000Y28660418D02*
X30670000Y28330000D01*
X30670000Y28330000D02*
X30900000Y28100000D01*
X13795000Y43045000D02*
X13795000Y40108132D01*
X13795000Y40108132D02*
X13909722Y39993410D01*
X25380418Y33950000D02*
X30670000Y28660418D01*
X14250000Y43500000D02*
X13795000Y43045000D01*
X13909722Y39993410D02*
X13909722Y38830696D01*
X18790418Y33950000D02*
X25380418Y33950000D01*
%TO.N,/IO_Banks/Z12_P*%
X25239582Y33610000D02*
X18649582Y33610000D01*
X18649582Y33610000D02*
X13569811Y38689771D01*
X13455000Y43154402D02*
X13114727Y43494675D01*
X13455000Y39967426D02*
X13455000Y43154402D01*
X13569811Y38689771D02*
X13569811Y39852615D01*
X30100000Y28100000D02*
X30330000Y28330000D01*
X30330000Y28519582D02*
X25239582Y33610000D01*
X30330000Y28330000D02*
X30330000Y28519582D01*
X13569811Y39852615D02*
X13455000Y39967426D01*
%TO.N,/IO_Banks/Z1_N*%
X37103852Y32777296D02*
X37163346Y32871981D01*
X37979582Y27450000D02*
X38190000Y27660418D01*
X38190000Y27660418D02*
X38182479Y27727175D01*
X36500000Y27300000D02*
X36650000Y27450000D01*
X37956757Y27952897D02*
X37890000Y27960418D01*
X39135601Y32000000D02*
X37553773Y32000000D01*
X38689375Y31620000D02*
X39135601Y31620000D01*
X38378020Y31511053D02*
X38472705Y31570547D01*
X37553773Y32000000D02*
X37442652Y32012521D01*
X37859770Y28560418D02*
X37890000Y28560418D01*
X38020166Y28590128D02*
X38077047Y28625869D01*
X39177880Y31995237D02*
X39135601Y32000000D01*
X37163346Y32871981D02*
X37242418Y32951053D01*
X36650000Y27450000D02*
X37979582Y27450000D01*
X37890000Y28560418D02*
X37956757Y28567940D01*
X38182479Y27727175D02*
X38160291Y27790584D01*
X39254065Y31661453D02*
X39284149Y31691537D01*
X38160291Y28730253D02*
X38182479Y28793662D01*
X38000000Y33060000D02*
X38042278Y33064764D01*
X37054399Y32499375D02*
X37054399Y32560626D01*
X37793014Y27967940D02*
X37729605Y27990128D01*
X37442652Y32012521D02*
X37337103Y32049454D01*
X37066919Y32388254D02*
X37054399Y32499375D01*
X38118463Y33101453D02*
X38148547Y33131537D01*
X33130000Y39729582D02*
X32480000Y40379582D01*
X38077047Y28625869D02*
X38124550Y28673372D01*
X38190000Y28860418D02*
X38190000Y31120626D01*
X38202521Y31231747D02*
X38239454Y31337296D01*
X32480000Y40379582D02*
X32480000Y43020000D01*
X38082437Y33078816D02*
X38118463Y33101453D01*
X38472705Y31570547D02*
X38578254Y31607480D01*
X39177880Y31624764D02*
X39218039Y31638816D01*
X37625221Y28447465D02*
X37672724Y28494968D01*
X38148547Y33131537D02*
X38171184Y33167563D01*
X38124550Y27847465D02*
X38077047Y27894968D01*
X38077047Y27894968D02*
X38020166Y27930709D01*
X37242418Y32951053D02*
X37337103Y33010547D01*
X37553773Y33060000D02*
X38000000Y33060000D01*
X38042278Y33064764D02*
X38082437Y33078816D01*
X38239454Y31337296D02*
X38298948Y31431981D01*
X37672724Y28025869D02*
X37625221Y28073372D01*
X38190000Y31120626D02*
X38202521Y31231747D01*
X39135601Y31620000D02*
X39177880Y31624764D01*
X33130000Y37112182D02*
X33130000Y39729582D01*
X37337103Y32049454D02*
X37242418Y32108948D01*
X37672724Y28494968D02*
X37729605Y28530709D01*
X37793014Y28552897D02*
X37859770Y28560418D01*
X38020166Y27930709D02*
X37956757Y27952897D01*
X39218039Y31981185D02*
X39177880Y31995237D01*
X37589480Y28130253D02*
X37567292Y28193662D01*
X37066919Y32671747D02*
X37103852Y32777296D01*
X39306786Y31892438D02*
X39284149Y31928464D01*
X37442652Y33047480D02*
X37553773Y33060000D01*
X38298948Y31431981D02*
X38378020Y31511053D01*
X37103852Y32282705D02*
X37066919Y32388254D01*
X38190000Y35100182D02*
X36848382Y36441800D01*
X39254065Y31958548D02*
X39218039Y31981185D01*
X32480000Y43020000D02*
X32000000Y43500000D01*
X37890000Y27960418D02*
X37859770Y27960418D01*
X37729605Y27990128D02*
X37672724Y28025869D01*
X37625221Y28073372D02*
X37589480Y28130253D01*
X39320838Y31767722D02*
X39325601Y31810000D01*
X39306786Y31727563D02*
X39320838Y31767722D01*
X39284149Y31691537D02*
X39306786Y31727563D01*
X37567292Y28327175D02*
X37589480Y28390584D01*
X38124550Y28673372D02*
X38160291Y28730253D01*
X37242418Y32108948D02*
X37163346Y32188020D01*
X38160291Y27790584D02*
X38124550Y27847465D01*
X37567292Y28193662D02*
X37559770Y28260418D01*
X39325601Y31810000D02*
X39320838Y31852279D01*
X38171184Y33167563D02*
X38185236Y33207722D01*
X37956757Y28567940D02*
X38020166Y28590128D01*
X37559770Y28260418D02*
X37567292Y28327175D01*
X38578254Y31607480D02*
X38689375Y31620000D01*
X37054399Y32560626D02*
X37066919Y32671747D01*
X37729605Y28530709D02*
X37793014Y28552897D01*
X38185236Y33207722D02*
X38190000Y33250000D01*
X37163346Y32188020D02*
X37103852Y32282705D01*
X37859770Y27960418D02*
X37793014Y27967940D01*
X38190000Y33250000D02*
X38190000Y35100182D01*
X37337103Y33010547D02*
X37442652Y33047480D01*
X36848382Y36441800D02*
X33800382Y36441800D01*
X39320838Y31852279D02*
X39306786Y31892438D01*
X39218039Y31638816D02*
X39254065Y31661453D01*
X38182479Y28793662D02*
X38190000Y28860418D01*
X39284149Y31928464D02*
X39254065Y31958548D01*
X37589480Y28390584D02*
X37625221Y28447465D01*
X33800382Y36441800D02*
X33130000Y37112182D01*
%TO.N,/IO_Banks/Z4_N*%
X36470000Y35065818D02*
X35693818Y35842000D01*
X29020000Y43020000D02*
X29020000Y40520418D01*
X30048418Y35842000D02*
X29620000Y36270418D01*
X29020000Y40520418D02*
X29620000Y39920418D01*
X36617721Y34484764D02*
X36577562Y34498816D01*
X36457480Y32651747D02*
X36420547Y32757296D01*
X35700000Y27300000D02*
X36470000Y28070000D01*
X37535482Y33980626D02*
X37522961Y34091747D01*
X36081747Y33027480D02*
X35970626Y33040000D01*
X35423334Y33147563D02*
X35409282Y33187722D01*
X36511452Y34551537D02*
X36488815Y34587563D01*
X37486028Y33702705D02*
X37522961Y33808254D01*
X37347462Y33528948D02*
X37426534Y33608020D01*
X36577562Y34498816D02*
X36541536Y34521453D01*
X36361053Y32851981D02*
X36281981Y32931053D01*
X35512081Y33401185D02*
X35552240Y33415237D01*
X36660000Y34480000D02*
X36617721Y34484764D01*
X36470000Y34670000D02*
X36470000Y35065818D01*
X35552240Y33044764D02*
X35512081Y33058816D01*
X35404518Y33230000D02*
X35409282Y33272279D01*
X37147228Y33432521D02*
X37252777Y33469454D01*
X35445971Y33348464D02*
X35476055Y33378548D01*
X37252777Y34430547D02*
X37147228Y34467480D01*
X37036107Y33420000D02*
X37147228Y33432521D01*
X35594518Y33040000D02*
X35552240Y33044764D01*
X37486028Y34197296D02*
X37426534Y34291981D01*
X36488815Y34587563D02*
X36474763Y34627722D01*
X36420547Y32757296D02*
X36361053Y32851981D01*
X35594518Y33420000D02*
X37036107Y33420000D01*
X37426534Y34291981D02*
X37347462Y34371053D01*
X29620000Y39920418D02*
X29620000Y36270418D01*
X36470000Y32540626D02*
X36457480Y32651747D01*
X37426534Y33608020D02*
X37486028Y33702705D01*
X35476055Y33378548D02*
X35512081Y33401185D01*
X35445971Y33111537D02*
X35423334Y33147563D01*
X36541536Y34521453D02*
X36511452Y34551537D01*
X37522961Y34091747D02*
X37486028Y34197296D01*
X35423334Y33312438D02*
X35445971Y33348464D01*
X36470000Y28070000D02*
X36470000Y32540626D01*
X35409282Y33187722D02*
X35404518Y33230000D01*
X35693818Y35842000D02*
X30048418Y35842000D01*
X36474763Y34627722D02*
X36470000Y34670000D01*
X37522961Y33808254D02*
X37535482Y33919375D01*
X35552240Y33415237D02*
X35594518Y33420000D01*
X37036107Y34480000D02*
X36660000Y34480000D01*
X36281981Y32931053D02*
X36187296Y32990547D01*
X35512081Y33058816D02*
X35476055Y33081453D01*
X37147228Y34467480D02*
X37036107Y34480000D01*
X35476055Y33081453D02*
X35445971Y33111537D01*
X36187296Y32990547D02*
X36081747Y33027480D01*
X35970626Y33040000D02*
X35594518Y33040000D01*
X29020000Y43020000D02*
X29500000Y43500000D01*
X35409282Y33272279D02*
X35423334Y33312438D01*
X37535482Y33919375D02*
X37535482Y33980626D01*
X37252777Y33469454D02*
X37347462Y33528948D01*
X37347462Y34371053D02*
X37252777Y34430547D01*
%TO.N,/IO_Banks/Z5_N*%
X27501267Y36362395D02*
X27526150Y36253374D01*
X32194793Y31668855D02*
X32219677Y31559832D01*
X27984245Y37111270D02*
X27644390Y36771418D01*
X26852937Y38452655D02*
X26894417Y38443187D01*
X27526150Y36253374D02*
X27574669Y36152623D01*
X26730577Y38424728D02*
X26768911Y38443187D01*
X31660186Y32203463D02*
X31772013Y32203462D01*
X27020469Y38285123D02*
X27020469Y38242577D01*
X32268196Y31459080D02*
X32337919Y31371650D01*
X27574670Y36683989D02*
X27526150Y36583240D01*
X25530000Y38179582D02*
X25651238Y38058346D01*
X24400000Y43500000D02*
X24880000Y43020000D01*
X26966014Y38398200D02*
X26992540Y38364937D01*
X27748808Y37406498D02*
X27787142Y37424957D01*
X31981788Y32276866D02*
X32069218Y32346589D01*
X27574669Y36152623D02*
X27644390Y36065196D01*
X26483036Y37492449D02*
X26483036Y37380625D01*
X26556438Y37170853D02*
X26626159Y37083426D01*
X32810682Y32651818D02*
X32810682Y32609272D01*
X26966014Y38129500D02*
X26626159Y37789648D01*
X26894417Y38443187D02*
X26932749Y38424728D01*
X27187513Y36921876D02*
X27288262Y36970396D01*
X27787142Y37424957D02*
X27828622Y37434425D01*
X32722962Y32791423D02*
X32756227Y32764895D01*
X27950980Y37406498D02*
X27984245Y37379970D01*
X32219677Y31889705D02*
X32194793Y31780682D01*
X27526150Y36583240D02*
X27501267Y36474219D01*
X26669469Y37040116D02*
X26756896Y36970395D01*
X26756896Y36970395D02*
X26857647Y36921876D01*
X32194793Y31780682D02*
X32194793Y31668855D01*
X28010771Y37346707D02*
X28029232Y37308373D01*
X27288262Y36970396D02*
X27375691Y37040116D01*
X31772013Y32203462D02*
X31881036Y32228346D01*
X24880000Y43020000D02*
X24880000Y40379582D01*
X26060261Y37915223D02*
X26169282Y37940106D01*
X25948437Y37915223D02*
X26060261Y37915223D01*
X28038700Y37224347D02*
X28029232Y37182867D01*
X26932749Y38424728D02*
X26966014Y38398200D01*
X32810682Y32609272D02*
X32801214Y32567792D01*
X27644390Y36771418D02*
X27574670Y36683989D01*
X26169282Y37940106D02*
X26270031Y37988626D01*
X32782754Y32529459D02*
X32756227Y32496195D01*
X34130000Y29579582D02*
X34130000Y28070000D01*
X27501267Y36474219D02*
X27501267Y36362395D01*
X26626159Y37083426D02*
X26669469Y37040116D01*
X31450411Y32276866D02*
X31551163Y32228346D01*
X26992540Y38162765D02*
X26966014Y38129500D01*
X25530000Y39729582D02*
X25530000Y38179582D01*
X27011001Y38326603D02*
X27020469Y38285123D01*
X32337919Y31371650D02*
X34129988Y29579582D01*
X25839416Y37940106D02*
X25948437Y37915223D01*
X27375691Y37040116D02*
X27715545Y37379970D01*
X27644390Y36065196D02*
X27644390Y36065180D01*
X27011001Y38201097D02*
X26992540Y38162765D01*
X25651238Y38058346D02*
X25738665Y37988625D01*
X28029232Y37182867D02*
X28010771Y37144535D01*
X26992540Y38364937D02*
X27011001Y38326603D01*
X26507919Y37271604D02*
X26556438Y37170853D01*
X34129988Y29579582D02*
X34130000Y29579582D01*
X31881036Y32228346D02*
X31981788Y32276866D01*
X26507919Y37601470D02*
X26483036Y37492449D01*
X26270031Y37988626D02*
X26357460Y38058346D01*
X32520790Y32791423D02*
X32559123Y32809883D01*
X26357460Y38058346D02*
X26697314Y38398200D01*
X32559123Y32809883D02*
X32600603Y32819351D01*
X32782754Y32731631D02*
X32801214Y32693298D01*
X27828622Y37434425D02*
X27871168Y37434425D01*
X27912648Y37424957D02*
X27950980Y37406498D01*
X32268197Y31990457D02*
X32219677Y31889705D01*
X32801214Y32693298D02*
X32810682Y32651818D01*
X26857647Y36921876D02*
X26966668Y36896993D01*
X32684629Y32809883D02*
X32722962Y32791423D01*
X28010771Y37144535D02*
X27984245Y37111270D01*
X32801214Y32567792D02*
X32782754Y32529459D01*
X32643149Y32819351D02*
X32684629Y32809883D01*
X27020469Y38242577D02*
X27011001Y38201097D01*
X27715545Y37379970D02*
X27748808Y37406498D01*
X31551163Y32228346D02*
X31660186Y32203463D01*
X32219677Y31559832D02*
X32268196Y31459080D01*
X31362981Y32346589D02*
X31450411Y32276866D01*
X26556439Y37702219D02*
X26507919Y37601470D01*
X32487526Y32764896D02*
X32520790Y32791423D01*
X26626159Y37789648D02*
X26556439Y37702219D01*
X24880000Y40379582D02*
X25530000Y39729582D01*
X32069218Y32346589D02*
X32487526Y32764896D01*
X32756227Y32764895D02*
X32782754Y32731631D01*
X25738665Y37988625D02*
X25839416Y37940106D01*
X26697314Y38398200D02*
X26730577Y38424728D01*
X28038700Y37266893D02*
X28038700Y37224347D01*
X26966668Y36896993D02*
X27078492Y36896993D01*
X26483036Y37380625D02*
X26507919Y37271604D01*
X27984245Y37379970D02*
X28010771Y37346707D01*
X28029232Y37308373D02*
X28038700Y37266893D01*
X26768911Y38443187D02*
X26810391Y38452655D01*
X32600603Y32819351D02*
X32643149Y32819351D01*
X27871168Y37434425D02*
X27912648Y37424957D01*
X27644390Y36065180D02*
X31362981Y32346589D01*
X32337919Y32077887D02*
X32268197Y31990457D01*
X26810391Y38452655D02*
X26852937Y38452655D01*
X27078492Y36896993D02*
X27187513Y36921876D01*
X32756227Y32496195D02*
X32337919Y32077887D01*
X34130000Y28070000D02*
X34900000Y27300000D01*
%TO.N,/IO_Banks/Z7_N*%
X22963296Y38396286D02*
X22893573Y38483716D01*
X23269885Y39737591D02*
X23231552Y39756052D01*
X32522503Y29595062D02*
X32493355Y29655589D01*
X32493356Y29336369D02*
X32522502Y29396896D01*
X25299600Y36840400D02*
X25290010Y36849990D01*
X32234081Y28906716D02*
X32234080Y28973896D01*
X22963296Y39102512D02*
X23303148Y39442365D01*
X21502587Y39830385D02*
X21484127Y39868718D01*
X32451470Y29283848D02*
X32493356Y29336369D01*
X23348135Y39639468D02*
X23329676Y39677800D01*
X22461694Y39138306D02*
X21867282Y38543894D01*
X32744326Y28728174D02*
X32691805Y28686288D01*
X21484127Y39868718D02*
X21457600Y39901983D01*
X32522502Y29396896D02*
X32537452Y29462389D01*
X22893574Y39015084D02*
X22963296Y39102512D01*
X23147525Y39765520D02*
X23106046Y39756052D01*
X32320063Y29152438D02*
X32451470Y29283848D01*
X33300000Y28859582D02*
X33247478Y28901467D01*
X21779854Y38474172D02*
X21679103Y38425653D01*
X32691805Y28686288D02*
X32631278Y28657142D01*
X21512055Y39746359D02*
X21512055Y39788906D01*
X32372585Y28686289D02*
X32320062Y28728174D01*
X21502587Y39704879D02*
X21512055Y39746359D01*
X23329676Y39677800D02*
X23303148Y39711065D01*
X33300000Y27300000D02*
X33300000Y28859582D01*
X23357603Y39597988D02*
X23348135Y39639468D01*
X22461692Y39138308D02*
X22461694Y39138306D01*
X23106046Y39756052D02*
X23067713Y39737591D01*
X32249029Y28841223D02*
X32234081Y28906716D01*
X32249030Y29039389D02*
X32278176Y29099916D01*
X21458257Y38400770D02*
X21349236Y38425653D01*
X32451471Y29708111D02*
X25319182Y36840400D01*
X23190071Y39765520D02*
X23147525Y39765520D01*
X23303148Y39442365D02*
X23329676Y39475628D01*
X23329676Y39475628D02*
X23348135Y39513962D01*
X20974623Y38996230D02*
X20999506Y39105251D01*
X24509592Y36849990D02*
X22963296Y38396286D01*
X22820172Y38805312D02*
X22845055Y38914333D01*
X32928258Y28901468D02*
X32875736Y28859581D01*
X32537451Y29529569D02*
X32522503Y29595062D01*
X32433112Y28657141D02*
X32372585Y28686289D01*
X20999506Y38775383D02*
X20974623Y38884405D01*
X21570082Y38400770D02*
X21458257Y38400770D01*
X33054278Y28945564D02*
X32988785Y28930614D01*
X21117747Y39293430D02*
X21457600Y39633282D01*
X22893573Y38483716D02*
X22845055Y38584465D01*
X21867282Y38543894D02*
X21779854Y38474172D01*
X32278176Y29099916D02*
X32320063Y29152438D01*
X21457600Y39901983D02*
X21080000Y40279582D01*
X32988785Y28930614D02*
X32928258Y28901468D01*
X23067713Y39737591D02*
X23034448Y39711065D01*
X33121458Y28945563D02*
X33054278Y28945564D01*
X22845055Y38914333D02*
X22893574Y39015084D01*
X23357603Y39555442D02*
X23357603Y39597988D01*
X21512055Y39788906D02*
X21502587Y39830385D01*
X21048025Y39206002D02*
X21117747Y39293430D01*
X32278177Y28780696D02*
X32249029Y28841223D01*
X32234080Y28973896D02*
X32249030Y29039389D01*
X23303148Y39711065D02*
X23269885Y39737591D01*
X21080000Y43020000D02*
X20600000Y43500000D01*
X21484127Y39666546D02*
X21502587Y39704879D01*
X20974623Y38884405D02*
X20974623Y38996230D01*
X21679103Y38425653D02*
X21570082Y38400770D01*
X21349236Y38425653D02*
X21248485Y38474172D01*
X32493355Y29655589D02*
X32451471Y29708111D01*
X23231552Y39756052D02*
X23190071Y39765520D01*
X22845055Y38584465D02*
X22820171Y38693488D01*
X25319182Y36840400D02*
X25299600Y36840400D01*
X32537452Y29462389D02*
X32537451Y29529569D01*
X20999506Y39105251D02*
X21048025Y39206002D01*
X23034448Y39711065D02*
X22461692Y39138308D01*
X21117747Y38587204D02*
X21048025Y38674633D01*
X32498605Y28642193D02*
X32433112Y28657141D01*
X23348135Y39513962D02*
X23357603Y39555442D01*
X32875736Y28859581D02*
X32744326Y28728174D01*
X21457600Y39633282D02*
X21484127Y39666546D01*
X21248485Y38474172D02*
X21161057Y38543894D01*
X32565785Y28642192D02*
X32498605Y28642193D01*
X32631278Y28657142D02*
X32565785Y28642192D01*
X22820171Y38693488D02*
X22820172Y38805312D01*
X33186951Y28930615D02*
X33121458Y28945563D01*
X21080000Y40279582D02*
X21080000Y43020000D01*
X21161057Y38543894D02*
X21117747Y38587204D01*
X32320062Y28728174D02*
X32278177Y28780696D01*
X21048025Y38674633D02*
X20999506Y38775383D01*
X33247478Y28901467D02*
X33186951Y28930615D01*
X25290010Y36849990D02*
X24509592Y36849990D01*
%TO.N,/IO_Banks/Z9_P*%
X23232401Y36931053D02*
X23137716Y36990548D01*
X31469908Y29444592D02*
X31511793Y29497115D01*
X22355654Y36017722D02*
X22341602Y35977563D01*
X22372938Y36651747D02*
X22360418Y36540625D01*
X30912686Y29777915D02*
X30847191Y29762966D01*
X30653992Y29807063D02*
X30601471Y29848947D01*
X22341602Y35977563D02*
X22318965Y35941537D01*
X31540941Y29557640D02*
X31555890Y29623135D01*
X23425185Y36017722D02*
X23420422Y36060001D01*
X24580417Y35870001D02*
X23610422Y35870001D01*
X31511793Y29816334D02*
X31469908Y29868856D01*
X17570000Y40470418D02*
X17570000Y43020000D01*
X22548438Y36931053D02*
X22469366Y36851981D01*
X32070000Y28380418D02*
X31450000Y29000418D01*
X32180833Y27300000D02*
X32070000Y27410833D01*
X31408114Y29372160D02*
X31450000Y29424683D01*
X31469908Y29868856D02*
X31417385Y29910742D01*
X22318965Y35941537D02*
X22288881Y35911453D01*
X23137716Y36990548D02*
X23032167Y37027481D01*
X22748672Y37027481D02*
X22643123Y36990548D01*
X31098166Y29910742D02*
X31045643Y29868856D01*
X23370968Y36757296D02*
X23311473Y36851981D01*
X23610422Y35870001D02*
X23568143Y35874764D01*
X32500000Y27300000D02*
X32180833Y27300000D01*
X23420422Y36540625D02*
X23407901Y36651747D01*
X22288881Y35911453D02*
X22252855Y35888816D01*
X22252855Y35888816D02*
X22212696Y35874764D01*
X31045643Y29868856D02*
X31025734Y29848948D01*
X23568143Y35874764D02*
X23527984Y35888816D01*
X22921045Y37040002D02*
X22859794Y37040002D01*
X23461874Y35941537D02*
X23439237Y35977563D01*
X31450000Y29000418D02*
X31408114Y29052941D01*
X22469366Y36851981D02*
X22409871Y36757296D01*
X30847191Y29762966D02*
X30780013Y29762966D01*
X22643123Y36990548D02*
X22548438Y36931053D01*
X31224186Y29954838D02*
X31158692Y29939889D01*
X22409871Y36757296D02*
X22372938Y36651747D01*
X31378967Y29311634D02*
X31408114Y29372160D01*
X30601471Y29848947D02*
X24580417Y35870001D01*
X23032167Y37027481D02*
X22921045Y37040002D01*
X30714518Y29777915D02*
X30653992Y29807063D01*
X32070000Y27410833D02*
X32070000Y28380418D01*
X23311473Y36851981D02*
X23232401Y36931053D01*
X23420422Y36060001D02*
X23420422Y36540625D01*
X23407901Y36651747D02*
X23370968Y36757296D01*
X22170418Y35870001D02*
X17570000Y40470418D01*
X30973211Y29807063D02*
X30912686Y29777915D01*
X22212696Y35874764D02*
X22170418Y35870001D01*
X23491958Y35911453D02*
X23461874Y35941537D01*
X31025734Y29848948D02*
X30973211Y29807063D01*
X31450000Y29424683D02*
X31469908Y29444592D01*
X31378967Y29113467D02*
X31364018Y29178961D01*
X22859794Y37040002D02*
X22748672Y37027481D01*
X31291365Y29954838D02*
X31224186Y29954838D01*
X31364018Y29178961D02*
X31364018Y29246140D01*
X22360418Y36060001D02*
X22355654Y36017722D01*
X23439237Y35977563D02*
X23425185Y36017722D01*
X31356859Y29939889D02*
X31291365Y29954838D01*
X23527984Y35888816D02*
X23491958Y35911453D01*
X31408114Y29052941D02*
X31378967Y29113467D01*
X31555890Y29623135D02*
X31555890Y29690313D01*
X31158692Y29939889D02*
X31098166Y29910742D01*
X31364018Y29246140D02*
X31378967Y29311634D01*
X31540941Y29755808D02*
X31511793Y29816334D01*
X31417385Y29910742D02*
X31356859Y29939889D01*
X30780013Y29762966D02*
X30714518Y29777915D01*
X22360418Y36540625D02*
X22360418Y36060001D01*
X31511793Y29497115D02*
X31540941Y29557640D01*
X31555890Y29690313D02*
X31540941Y29755808D01*
X17570000Y43020000D02*
X18050000Y43500000D01*
%TO.N,/IO_Banks/Z9_N*%
X22890420Y36700000D02*
X22932698Y36695236D01*
X22029582Y35530000D02*
X22201043Y35529999D01*
X22972857Y36681184D02*
X23008883Y36658547D01*
X22771956Y36658547D02*
X22807982Y36681184D01*
X22417714Y35579452D02*
X22512399Y35638947D01*
X22650966Y35812704D02*
X22687899Y35918253D01*
X17230000Y40329582D02*
X22029582Y35530000D01*
X22807982Y36681184D02*
X22848141Y36695236D01*
X22719235Y36592437D02*
X22741872Y36628463D01*
X22700420Y36029375D02*
X22700420Y36510000D01*
X23468674Y35542519D02*
X23579796Y35529999D01*
X31730000Y28239582D02*
X31730000Y27270000D01*
X22512399Y35638947D02*
X22591471Y35718019D01*
X23038967Y36628463D02*
X23061604Y36592437D01*
X22700420Y36510000D02*
X22705183Y36552278D01*
X22687899Y35918253D02*
X22700420Y36029375D01*
X22932698Y36695236D02*
X22972857Y36681184D01*
X22312165Y35542519D02*
X22417714Y35579452D01*
X22201043Y35529999D02*
X22312165Y35542519D01*
X23061604Y36592437D02*
X23075656Y36552278D01*
X22705183Y36552278D02*
X22719235Y36592437D01*
X23268440Y35638947D02*
X23363125Y35579452D01*
X22591471Y35718019D02*
X22650966Y35812704D01*
X23129873Y35812704D02*
X23189368Y35718019D01*
X24439583Y35529999D02*
X31730000Y28239582D01*
X16785000Y43515000D02*
X17230000Y43070000D01*
X23363125Y35579452D02*
X23468674Y35542519D01*
X23189368Y35718019D02*
X23268440Y35638947D01*
X17230000Y43070000D02*
X17230000Y40329582D01*
X23080420Y36510000D02*
X23080420Y36029375D01*
X22848141Y36695236D02*
X22890420Y36700000D01*
X23008883Y36658547D02*
X23038967Y36628463D01*
X31730000Y27270000D02*
X32500000Y26500000D01*
X23080420Y36029375D02*
X23092940Y35918253D01*
X22741872Y36628463D02*
X22771956Y36658547D01*
X23092940Y35918253D02*
X23129873Y35812704D01*
X23075656Y36552278D02*
X23080420Y36510000D01*
X23579796Y35529999D02*
X24439583Y35529999D01*
%TO.N,/IO_Banks/Z1_P*%
X37399162Y32487722D02*
X37413214Y32447563D01*
X38601537Y31238548D02*
X38571453Y31208464D01*
X33295000Y43505000D02*
X32820000Y43030000D01*
X37100000Y27100000D02*
X36500000Y26500000D01*
X37394399Y32530000D02*
X37399162Y32487722D01*
X39616148Y31562705D02*
X39556654Y31468020D01*
X39166227Y31280000D02*
X38720000Y31280000D01*
X38571453Y31208464D02*
X38548816Y31172438D01*
X38480546Y33002705D02*
X38421052Y32908020D01*
X39477582Y31388948D02*
X39382897Y31329454D01*
X38548816Y31172438D02*
X38534764Y31132279D01*
X38530000Y35241018D02*
X38530000Y33219375D01*
X38517479Y33108254D02*
X38480546Y33002705D01*
X37465935Y32381453D02*
X37501961Y32358816D01*
X38530000Y31090000D02*
X38530000Y27519582D01*
X39665601Y31779375D02*
X39653081Y31668254D01*
X36989218Y36781800D02*
X38530000Y35241018D01*
X38141746Y32732521D02*
X38030625Y32720000D01*
X38720000Y31280000D02*
X38677722Y31275237D01*
X37501961Y32358816D02*
X37542120Y32344764D01*
X39653081Y31951747D02*
X39665601Y31840626D01*
X38247295Y32769454D02*
X38141746Y32732521D01*
X37435851Y32411537D02*
X37465935Y32381453D01*
X38110418Y27100000D02*
X37100000Y27100000D01*
X38677722Y31275237D02*
X38637563Y31261185D01*
X39382897Y32290547D02*
X39477582Y32231053D01*
X37399162Y32572279D02*
X37394399Y32530000D01*
X32820000Y43030000D02*
X32820000Y40520418D01*
X39382897Y31329454D02*
X39277348Y31292521D01*
X37584399Y32340000D02*
X39166227Y32340000D01*
X39277348Y32327480D02*
X39382897Y32290547D01*
X37465935Y32678548D02*
X37435851Y32648464D01*
X38341980Y32828948D02*
X38247295Y32769454D01*
X39556654Y31468020D02*
X39477582Y31388948D01*
X38530000Y33219375D02*
X38517479Y33108254D01*
X37542120Y32715237D02*
X37501961Y32701185D01*
X39277348Y31292521D02*
X39166227Y31280000D01*
X33470000Y37253018D02*
X33941218Y36781800D01*
X33941218Y36781800D02*
X36989218Y36781800D01*
X38530000Y27519582D02*
X38110418Y27100000D01*
X37584399Y32720000D02*
X37542120Y32715237D01*
X39556654Y32151981D02*
X39616148Y32057296D01*
X37435851Y32648464D02*
X37413214Y32612438D01*
X39653081Y31668254D02*
X39616148Y31562705D01*
X37542120Y32344764D02*
X37584399Y32340000D01*
X38637563Y31261185D02*
X38601537Y31238548D01*
X37501961Y32701185D02*
X37465935Y32678548D01*
X37413214Y32447563D02*
X37435851Y32411537D01*
X38030625Y32720000D02*
X37584399Y32720000D01*
X32820000Y40520418D02*
X33470000Y39870418D01*
X39616148Y32057296D02*
X39653081Y31951747D01*
X33470000Y39870418D02*
X33470000Y37253018D01*
X38534764Y31132279D02*
X38530000Y31090000D01*
X39665601Y31840626D02*
X39665601Y31779375D01*
X39477582Y32231053D02*
X39556654Y32151981D01*
X38421052Y32908020D02*
X38341980Y32828948D01*
X39166227Y32340000D02*
X39277348Y32327480D01*
X37413214Y32612438D02*
X37399162Y32572279D01*
D42*
%TO.N,/IO_Banks/VIO_AUX*%
X37050000Y30800000D02*
X37650000Y31400000D01*
X34100000Y26500000D02*
X34100000Y25785000D01*
X37150000Y31400000D02*
X37150000Y30900000D01*
X34100000Y25685000D02*
X34085000Y25700000D01*
X37650000Y31400000D02*
X37150000Y31400000D01*
X34100000Y25785000D02*
X34185000Y25700000D01*
X37150000Y30900000D02*
X37050000Y30800000D01*
X37050000Y30000000D02*
X37050000Y30800000D01*
D44*
%TO.N,/IO_Banks/Z7_P*%
X24650418Y37190000D02*
X23225369Y38615049D01*
X23565221Y39929828D02*
X23521911Y39973138D01*
X23180382Y38686646D02*
X23170914Y38728126D01*
X23333732Y40091379D02*
X23224711Y40116262D01*
X33640000Y29000428D02*
X25450428Y37190000D01*
X21648519Y38805967D02*
X21615255Y38779440D01*
X21379819Y39074667D02*
X21719673Y39414520D01*
X21837913Y39932566D02*
X21789394Y40033317D01*
X23565222Y39223602D02*
X23634944Y39311030D01*
X23198841Y38648314D02*
X23180382Y38686646D01*
X21862797Y39823545D02*
X21837913Y39932566D01*
X33795001Y27537601D02*
X33640000Y27692602D01*
X21789394Y39501948D02*
X21837913Y39602699D01*
X23434483Y40042860D02*
X23333732Y40091379D01*
X33795001Y26995001D02*
X33795001Y27537601D01*
X21719673Y40120745D02*
X21420000Y40420418D01*
X21334832Y38877564D02*
X21325364Y38919044D01*
X21789394Y40033317D02*
X21719673Y40120745D01*
X21420000Y43070000D02*
X21850000Y43500000D01*
X23683463Y39411781D02*
X23708346Y39520802D01*
X21535442Y38751512D02*
X21492896Y38751512D01*
X23198841Y38850486D02*
X23225369Y38883749D01*
X23683462Y39741649D02*
X23634943Y39842400D01*
X23003866Y40091377D02*
X22903115Y40042859D01*
X21862797Y39711720D02*
X21862797Y39823545D01*
X23170914Y38770672D02*
X23180382Y38812152D01*
X21492896Y38751512D02*
X21451416Y38760980D01*
X21576922Y38760980D02*
X21535442Y38751512D01*
X21353292Y39041403D02*
X21379819Y39074667D01*
X23708345Y39632628D02*
X23683462Y39741649D01*
X22815687Y39973136D02*
X21648519Y38805967D01*
X23634943Y39842400D02*
X23565221Y39929828D01*
X21420000Y40420418D02*
X21420000Y43070000D01*
X23224711Y40116262D02*
X23112887Y40116261D01*
X21353292Y38839231D02*
X21334832Y38877564D01*
X23634944Y39311030D02*
X23683463Y39411781D01*
X33300000Y26500000D02*
X33795001Y26995001D01*
X23225369Y38883749D02*
X23565222Y39223602D01*
X21615255Y38779440D02*
X21576922Y38760980D01*
X22903115Y40042859D02*
X22815687Y39973136D01*
X21719673Y39414520D02*
X21789394Y39501948D01*
X33640000Y27692602D02*
X33640000Y29000428D01*
X23170914Y38728126D02*
X23170914Y38770672D01*
X23112887Y40116261D02*
X23003866Y40091377D01*
X21325364Y38961590D02*
X21334832Y39003070D01*
X21413083Y38779440D02*
X21379819Y38805967D01*
X23180382Y38812152D02*
X23198841Y38850486D01*
X23521911Y39973138D02*
X23434483Y40042860D01*
X21837913Y39602699D02*
X21862797Y39711720D01*
X21379819Y38805967D02*
X21353292Y38839231D01*
X23225369Y38615049D02*
X23198841Y38648314D01*
X23708346Y39520802D02*
X23708345Y39632628D01*
X21325364Y38919044D02*
X21325364Y38961590D01*
X21334832Y39003070D02*
X21353292Y39041403D01*
X21451416Y38760980D02*
X21413083Y38779440D01*
X25450428Y37190000D02*
X24650418Y37190000D01*
D41*
%TO.N,/IO_Banks/DA0*%
X45050000Y33600000D02*
X47350000Y33600000D01*
X39650000Y22700000D02*
X40900000Y23950000D01*
X40900000Y29450000D02*
X45050000Y33600000D01*
X47850000Y34100000D02*
X47850000Y34200000D01*
X36500000Y23300000D02*
X37100000Y22700000D01*
X37100000Y22700000D02*
X39650000Y22700000D01*
X40900000Y23950000D02*
X40900000Y29450000D01*
X47350000Y33600000D02*
X47850000Y34100000D01*
%TO.N,/IO_Banks/DA4*%
X42350000Y25400000D02*
X42650000Y25700000D01*
X44150000Y28000000D02*
X47350000Y28000000D01*
X47850000Y28600000D02*
X47850000Y28500000D01*
X47350000Y28000000D02*
X47850000Y28500000D01*
X42650000Y26500000D02*
X44150000Y28000000D01*
X42650000Y25700000D02*
X42650000Y26500000D01*
%TO.N,/IO_Banks/DA6*%
X43750000Y25200000D02*
X47350000Y25200000D01*
X47350000Y25200000D02*
X47850000Y25700000D01*
X43450000Y24900000D02*
X43750000Y25200000D01*
X47850000Y25700000D02*
X47850000Y25800000D01*
%TO.N,/IO_Banks/DA1*%
X36500000Y22500000D02*
X36749999Y22250001D01*
X41199911Y29199911D02*
X41200000Y29200000D01*
X41200000Y29200000D02*
X41200000Y29300000D01*
X41200000Y29300000D02*
X45200000Y33300000D01*
X41199911Y23799911D02*
X41199911Y29199911D01*
X50152840Y33300000D02*
X50208259Y33355419D01*
X36749999Y22250001D02*
X39650001Y22250001D01*
X39650001Y22250001D02*
X41199911Y23799911D01*
X45200000Y33300000D02*
X50152840Y33300000D01*
%TO.N,/IO_Banks/DA3*%
X42100000Y28150000D02*
X44450000Y30500000D01*
X42100000Y26150072D02*
X42100000Y28150000D01*
X44450000Y30500000D02*
X51050000Y30500000D01*
X51050000Y30500000D02*
X51850603Y31300603D01*
X51850603Y31300603D02*
X51850603Y31379236D01*
%TO.N,/IO_Banks/DA5*%
X42450000Y24650000D02*
X42045340Y24650000D01*
X42949911Y26349911D02*
X42949911Y25149911D01*
X51850000Y28500000D02*
X51050000Y27700000D01*
X44300000Y27700000D02*
X42949911Y26349911D01*
X51850000Y28600000D02*
X51850000Y28500000D01*
X51050000Y27700000D02*
X44300000Y27700000D01*
X42949911Y25149911D02*
X42450000Y24650000D01*
%TO.N,/IO_Banks/DA7*%
X43150000Y24200000D02*
X43500000Y24200000D01*
X51850000Y25700000D02*
X51850000Y25800000D01*
X48000000Y25200000D02*
X51350000Y25200000D01*
X43500000Y24200000D02*
X44200000Y24900000D01*
X47700000Y24900000D02*
X48000000Y25200000D01*
X44200000Y24900000D02*
X47700000Y24900000D01*
X51350000Y25200000D02*
X51850000Y25700000D01*
%TO.N,/IO_Banks/DB0*%
X47800000Y22900000D02*
X47250000Y22350000D01*
X47850000Y22900000D02*
X47800000Y22900000D01*
X40100000Y18200000D02*
X35350186Y18200000D01*
X35350186Y18200000D02*
X34799998Y18750188D01*
X47250000Y22350000D02*
X44250000Y22350000D01*
X44250000Y22350000D02*
X40100000Y18200000D01*
%TO.N,/IO_Banks/DB4*%
X47850000Y17300000D02*
X47850000Y17400000D01*
X42200000Y16800000D02*
X47350000Y16800000D01*
X41400000Y16000000D02*
X42200000Y16800000D01*
X47350000Y16800000D02*
X47850000Y17300000D01*
X31800000Y16000000D02*
X41400000Y16000000D01*
%TO.N,/IO_Banks/DB6*%
X47350000Y14000000D02*
X47850000Y14500000D01*
X41300000Y14800000D02*
X42100000Y14000000D01*
X47850000Y14500000D02*
X47850000Y14600000D01*
X30600000Y14800000D02*
X41300000Y14800000D01*
X42100000Y14000000D02*
X47350000Y14000000D01*
%TO.N,/IO_Banks/DB1*%
X51000000Y22050000D02*
X44400000Y22050000D01*
X51850000Y22900000D02*
X51000000Y22050000D01*
X44400000Y22050000D02*
X40150000Y17800000D01*
X40150000Y17800000D02*
X33600000Y17800000D01*
%TO.N,/IO_Banks/DB3*%
X32400000Y16600000D02*
X40500000Y16600000D01*
X40500000Y16600000D02*
X43200000Y19300000D01*
X51850000Y20100000D02*
X51850000Y20200000D01*
X51050000Y19300000D02*
X51850000Y20100000D01*
X43200000Y19300000D02*
X51050000Y19300000D01*
%TO.N,/IO_Banks/DB5*%
X42400000Y16500000D02*
X51050000Y16500000D01*
X31200000Y15400000D02*
X41300000Y15400000D01*
X41300000Y15400000D02*
X42400000Y16500000D01*
X51850000Y17300000D02*
X51850000Y17400000D01*
X51050000Y16500000D02*
X51850000Y17300000D01*
%TO.N,/IO_Banks/DB7*%
X30149722Y14200000D02*
X30000000Y14349722D01*
X50100000Y13850000D02*
X49950000Y13700000D01*
X41900000Y13700000D02*
X41400000Y14200000D01*
X49950000Y13700000D02*
X41900000Y13700000D01*
X41400000Y14200000D02*
X30149722Y14200000D01*
%TO.N,/IO_Banks/DA2*%
X35700000Y22500000D02*
X36395010Y21804990D01*
X36395010Y21804990D02*
X39654990Y21804990D01*
X47850000Y31300000D02*
X47850000Y31400000D01*
X41500000Y23650000D02*
X41500000Y28000000D01*
X35700000Y23300000D02*
X35700000Y22500000D01*
X39654990Y21804990D02*
X41500000Y23650000D01*
X44300000Y30800000D02*
X47350000Y30800000D01*
X41500000Y28000000D02*
X44300000Y30800000D01*
X47350000Y30800000D02*
X47850000Y31300000D01*
%TO.N,/IO_Banks/DB2*%
X40650000Y17200000D02*
X43050000Y19600000D01*
X43050000Y19600000D02*
X47350000Y19600000D01*
X47350000Y19600000D02*
X47850000Y20100000D01*
X47850000Y20100000D02*
X47850000Y20200000D01*
X33000000Y17200000D02*
X40650000Y17200000D01*
%TO.N,/xVBUS*%
X4750000Y25750000D02*
X5500000Y25750000D01*
X4400000Y25400000D02*
X4750000Y25750000D01*
%TO.N,/IO_Banks/IO_Buffer_B/VIO_EN*%
X76800000Y19400000D02*
X73400000Y19400000D01*
X77600000Y20200000D02*
X76800000Y19400000D01*
X70900000Y16900000D02*
X70400000Y16900000D01*
X73400000Y19400000D02*
X70900000Y16900000D01*
%TO.N,/IO_Banks/IO_Buffer_A/VIO_EN*%
X69000000Y28800000D02*
X69800000Y29600000D01*
X75700000Y32100000D02*
X76200000Y32100000D01*
X73200000Y29600000D02*
X75700000Y32100000D01*
X69800000Y29600000D02*
X73200000Y29600000D01*
%TO.N,/IO_Banks/IO_Buffer_B/ISNS_H*%
X72800000Y14585000D02*
X72500000Y14885000D01*
X73837500Y17600000D02*
X74050000Y17387500D01*
X72500000Y14885000D02*
X72500000Y17300000D01*
X72500000Y17300000D02*
X72800000Y17600000D01*
X72800000Y17600000D02*
X73837500Y17600000D01*
%TO.N,/IO_Banks/IO_Buffer_A/ISNS_H*%
X73800000Y34415000D02*
X74100000Y34115000D01*
X73800000Y31400000D02*
X72762500Y31400000D01*
X72762500Y31400000D02*
X72550000Y31612500D01*
X74100000Y31700000D02*
X73800000Y31400000D01*
X74100000Y34115000D02*
X74100000Y31700000D01*
%TO.N,/~{MR}*%
X13450000Y3550000D02*
X13150000Y3250000D01*
X13950000Y3550000D02*
X13450000Y3550000D01*
X10300000Y3850000D02*
X10300000Y6700000D01*
X11100000Y3050000D02*
X10300000Y3850000D01*
X14250000Y3250000D02*
X13950000Y3550000D01*
X13100000Y3050000D02*
X11100000Y3050000D01*
X10300000Y6700000D02*
X10800000Y7200000D01*
X13150000Y3100000D02*
X13100000Y3050000D01*
X10800000Y7200000D02*
X11300000Y7200000D01*
X14500000Y2250000D02*
X14250000Y2500000D01*
X14250000Y2500000D02*
X14250000Y3250000D01*
X23150000Y2620000D02*
X22780000Y2250000D01*
X22780000Y2250000D02*
X14500000Y2250000D01*
X13150000Y3250000D02*
X13150000Y3100000D01*
%TO.N,/IO_Banks/IO_Buffer_B/VDAC*%
X72000000Y20300000D02*
X72000000Y20200000D01*
X73300000Y21600000D02*
X72000000Y20300000D01*
%TO.N,/IO_Banks/IO_Buffer_A/VDAC*%
X73300000Y27400000D02*
X74600000Y28700000D01*
X74600000Y28700000D02*
X74600000Y28800000D01*
X70900000Y27400000D02*
X73300000Y27400000D01*
%TD*%
%TA.AperFunction,Conductor*%
%TO.N,Net-(U14-OUT)*%
G36*
X76151141Y20949773D02*
G01*
X76262502Y20927622D01*
X76266756Y20925860D01*
X76360180Y20863436D01*
X76363435Y20860181D01*
X76425859Y20766757D01*
X76427621Y20762503D01*
X76449773Y20651142D01*
X76450000Y20648840D01*
X76450000Y20051161D01*
X76449773Y20048859D01*
X76427621Y19937498D01*
X76425859Y19933244D01*
X76363435Y19839820D01*
X76360180Y19836565D01*
X76266756Y19774141D01*
X76262502Y19772379D01*
X76151141Y19750227D01*
X76148839Y19750000D01*
X73201161Y19750000D01*
X73198859Y19750227D01*
X73087497Y19772379D01*
X73083243Y19774141D01*
X72989819Y19836565D01*
X72986564Y19839820D01*
X72924140Y19933244D01*
X72922378Y19937498D01*
X72900227Y20048859D01*
X72900000Y20051161D01*
X72900000Y20648840D01*
X72900227Y20651142D01*
X72922378Y20762503D01*
X72924140Y20766757D01*
X72986564Y20860181D01*
X72989817Y20863435D01*
X73083244Y20925861D01*
X73087496Y20927622D01*
X73198859Y20949773D01*
X73201161Y20950000D01*
X76148839Y20950000D01*
X76151141Y20949773D01*
G37*
%TD.AperFunction*%
%TD*%
%TA.AperFunction,Conductor*%
%TO.N,Net-(U31-OUT)*%
G36*
X73401141Y29249773D02*
G01*
X73512502Y29227622D01*
X73516756Y29225860D01*
X73610180Y29163436D01*
X73613435Y29160181D01*
X73675859Y29066757D01*
X73677621Y29062503D01*
X73699773Y28951142D01*
X73700000Y28948840D01*
X73700000Y28351161D01*
X73699773Y28348859D01*
X73677621Y28237498D01*
X73675859Y28233244D01*
X73613435Y28139820D01*
X73610180Y28136565D01*
X73516756Y28074141D01*
X73512502Y28072379D01*
X73401141Y28050227D01*
X73398839Y28050000D01*
X70451161Y28050000D01*
X70448859Y28050227D01*
X70337497Y28072379D01*
X70333243Y28074141D01*
X70239819Y28136565D01*
X70236564Y28139820D01*
X70174140Y28233244D01*
X70172378Y28237498D01*
X70150227Y28348859D01*
X70150000Y28351161D01*
X70150000Y28948840D01*
X70150227Y28951142D01*
X70172378Y29062503D01*
X70174140Y29066757D01*
X70236564Y29160181D01*
X70239817Y29163435D01*
X70333244Y29225861D01*
X70337496Y29227622D01*
X70448859Y29249773D01*
X70451161Y29250000D01*
X73398839Y29250000D01*
X73401141Y29249773D01*
G37*
%TD.AperFunction*%
%TD*%
%TA.AperFunction,Conductor*%
%TO.N,/IO_Banks/IO_Buffer_B/ISNS_H*%
G36*
X76251141Y19049773D02*
G01*
X76324234Y19035234D01*
X76328488Y19033472D01*
X76389469Y18992725D01*
X76392724Y18989470D01*
X76433471Y18928489D01*
X76435233Y18924235D01*
X76449773Y18851142D01*
X76450000Y18848840D01*
X76450000Y17151161D01*
X76449773Y17148859D01*
X76435233Y17075766D01*
X76433471Y17071512D01*
X76392724Y17010531D01*
X76389469Y17007276D01*
X76328488Y16966529D01*
X76324234Y16964767D01*
X76251141Y16950227D01*
X76248839Y16950000D01*
X75467200Y16950000D01*
X75458856Y16953456D01*
X75455400Y16961800D01*
X75455400Y16998825D01*
X75455400Y16998840D01*
X75454650Y17014090D01*
X75454423Y17016392D01*
X75452187Y17031460D01*
X75446187Y17061618D01*
X75446092Y17062172D01*
X75436600Y17128197D01*
X75430586Y17141365D01*
X75430030Y17142838D01*
X75421195Y17171963D01*
X75421193Y17171969D01*
X75421193Y17171970D01*
X75419431Y17176224D01*
X75405069Y17203093D01*
X75397152Y17214942D01*
X75396230Y17216594D01*
X75396228Y17216599D01*
X75382797Y17246009D01*
X75355301Y17277741D01*
X75354408Y17278912D01*
X75351268Y17283611D01*
X75342645Y17296517D01*
X75323319Y17320065D01*
X75320064Y17323320D01*
X75306094Y17334786D01*
X75304669Y17336174D01*
X75304666Y17336178D01*
X75297983Y17343890D01*
X75210853Y17399885D01*
X75210700Y17399986D01*
X75203095Y17405068D01*
X75203075Y17405080D01*
X75201685Y17405823D01*
X75200868Y17406302D01*
X75189027Y17413912D01*
X75189024Y17413913D01*
X75184691Y17415185D01*
X75182456Y17416100D01*
X75176232Y17419428D01*
X75176225Y17419431D01*
X75176223Y17419432D01*
X75174460Y17420163D01*
X75171968Y17421195D01*
X75142825Y17430036D01*
X75132268Y17432137D01*
X75132210Y17432147D01*
X75116339Y17435304D01*
X75115317Y17435555D01*
X75064759Y17450400D01*
X75064758Y17450400D01*
X75041603Y17450400D01*
X75039301Y17450627D01*
X75038272Y17450832D01*
X75032613Y17451958D01*
X75002303Y17454943D01*
X75002298Y17454943D01*
X74997702Y17454943D01*
X74997697Y17454943D01*
X74967385Y17451958D01*
X74961547Y17450796D01*
X74960697Y17450627D01*
X74958396Y17450400D01*
X74935240Y17450400D01*
X74884679Y17435554D01*
X74883657Y17435303D01*
X74857183Y17430038D01*
X74828040Y17421199D01*
X74828018Y17421191D01*
X74823784Y17419437D01*
X74823762Y17419426D01*
X74817531Y17416097D01*
X74815299Y17415184D01*
X74810973Y17413913D01*
X74799138Y17406308D01*
X74798328Y17405832D01*
X74796917Y17405077D01*
X74796906Y17405071D01*
X74789244Y17399952D01*
X74789070Y17399837D01*
X74702014Y17343889D01*
X74702013Y17343888D01*
X74695332Y17336178D01*
X74693902Y17334786D01*
X74679921Y17323309D01*
X74676658Y17320045D01*
X74657359Y17296525D01*
X74657346Y17296508D01*
X74645586Y17278907D01*
X74644693Y17277736D01*
X74617203Y17246010D01*
X74603771Y17216599D01*
X74602849Y17214946D01*
X74594932Y17203096D01*
X74580566Y17176221D01*
X74578808Y17171976D01*
X74578805Y17171969D01*
X74569969Y17142839D01*
X74569411Y17141365D01*
X74563400Y17128200D01*
X74563399Y17128196D01*
X74553911Y17062205D01*
X74553804Y17061582D01*
X74547814Y17031470D01*
X74545575Y17016381D01*
X74545349Y17014088D01*
X74544600Y16998852D01*
X74544600Y16961800D01*
X74541144Y16953456D01*
X74532800Y16950000D01*
X73751161Y16950000D01*
X73748859Y16950227D01*
X73675765Y16964767D01*
X73671511Y16966529D01*
X73610530Y17007276D01*
X73607275Y17010531D01*
X73566528Y17071512D01*
X73564766Y17075766D01*
X73550227Y17148859D01*
X73550000Y17151161D01*
X73550000Y18848840D01*
X73550227Y18851142D01*
X73564766Y18924235D01*
X73566528Y18928489D01*
X73607275Y18989470D01*
X73610528Y18992724D01*
X73671512Y19033473D01*
X73675764Y19035234D01*
X73748859Y19049773D01*
X73751161Y19050000D01*
X76248839Y19050000D01*
X76251141Y19049773D01*
G37*
%TD.AperFunction*%
%TD*%
%TA.AperFunction,Conductor*%
%TO.N,/IO_Banks/VIOB*%
G36*
X75102165Y17279679D02*
G01*
X75112502Y17277622D01*
X75116756Y17275860D01*
X75210180Y17213436D01*
X75213435Y17210181D01*
X75275859Y17116757D01*
X75277621Y17112503D01*
X75299773Y17001142D01*
X75300000Y16998840D01*
X75300000Y16300000D01*
X76148839Y16300000D01*
X76151141Y16299773D01*
X76262502Y16277622D01*
X76266756Y16275860D01*
X76360180Y16213436D01*
X76363435Y16210181D01*
X76425859Y16116757D01*
X76427621Y16112503D01*
X76449773Y16001142D01*
X76450000Y15998840D01*
X76450000Y15601161D01*
X76449773Y15598859D01*
X76427621Y15487498D01*
X76425859Y15483244D01*
X76363435Y15389820D01*
X76360180Y15386565D01*
X76266756Y15324141D01*
X76262502Y15322379D01*
X76151141Y15300227D01*
X76148839Y15300000D01*
X73851161Y15300000D01*
X73848859Y15300227D01*
X73737497Y15322379D01*
X73733243Y15324141D01*
X73639819Y15386565D01*
X73636564Y15389820D01*
X73574140Y15483244D01*
X73572378Y15487498D01*
X73570840Y15495230D01*
X73553313Y15583341D01*
X73553207Y15587309D01*
X73555032Y15600000D01*
X73550120Y15634165D01*
X73550000Y15635844D01*
X73550000Y15998840D01*
X73550227Y16001142D01*
X73572378Y16112503D01*
X73574140Y16116757D01*
X73636564Y16210181D01*
X73639817Y16213435D01*
X73733244Y16275861D01*
X73737496Y16277622D01*
X73848859Y16299773D01*
X73851161Y16300000D01*
X74399995Y16300000D01*
X74400000Y16300000D01*
X74700000Y16300000D01*
X74700000Y16998840D01*
X74700227Y17001142D01*
X74722378Y17112503D01*
X74724140Y17116757D01*
X74786564Y17210181D01*
X74789817Y17213435D01*
X74883244Y17275861D01*
X74887496Y17277622D01*
X74997702Y17299543D01*
X75002298Y17299543D01*
X75102165Y17279679D01*
G37*
%TD.AperFunction*%
%TD*%
%TA.AperFunction,Conductor*%
%TO.N,/IO_Banks/VIOA*%
G36*
X72851141Y33699773D02*
G01*
X72924234Y33685234D01*
X72928488Y33683472D01*
X72989469Y33642725D01*
X72992724Y33639470D01*
X73033471Y33578489D01*
X73035233Y33574235D01*
X73049773Y33501142D01*
X73050000Y33498840D01*
X73050000Y33435844D01*
X73049880Y33434165D01*
X73044968Y33400001D01*
X73049880Y33365837D01*
X73050000Y33364158D01*
X73050000Y32901161D01*
X73049773Y32898859D01*
X73035233Y32825766D01*
X73033471Y32821512D01*
X72992724Y32760531D01*
X72989469Y32757276D01*
X72928488Y32716529D01*
X72924234Y32714767D01*
X72851141Y32700227D01*
X72848839Y32700000D01*
X71900000Y32700000D01*
X71900000Y32500003D01*
X71900000Y31901161D01*
X71899773Y31898859D01*
X71885233Y31825766D01*
X71883471Y31821512D01*
X71842724Y31760531D01*
X71839469Y31757276D01*
X71778488Y31716529D01*
X71774234Y31714767D01*
X71701141Y31700227D01*
X71698839Y31700000D01*
X71501161Y31700000D01*
X71498859Y31700227D01*
X71425765Y31714767D01*
X71421511Y31716529D01*
X71360530Y31757276D01*
X71357275Y31760531D01*
X71316528Y31821512D01*
X71314766Y31825766D01*
X71300227Y31898859D01*
X71300000Y31901161D01*
X71300000Y32499996D01*
X71300000Y32500000D01*
X71300000Y32700000D01*
X71100002Y32700000D01*
X70351161Y32700000D01*
X70348859Y32700227D01*
X70275765Y32714767D01*
X70271511Y32716529D01*
X70210530Y32757276D01*
X70207275Y32760531D01*
X70166528Y32821512D01*
X70164766Y32825766D01*
X70150227Y32898859D01*
X70150000Y32901161D01*
X70150000Y33498840D01*
X70150227Y33501142D01*
X70164766Y33574235D01*
X70166528Y33578489D01*
X70207275Y33639470D01*
X70210528Y33642724D01*
X70271512Y33683473D01*
X70275764Y33685234D01*
X70348859Y33699773D01*
X70351161Y33700000D01*
X72848839Y33700000D01*
X72851141Y33699773D01*
G37*
%TD.AperFunction*%
%TD*%
%TA.AperFunction,Conductor*%
%TO.N,/IO_Banks/IO_Buffer_A/ISNS_H*%
G36*
X71141144Y32046544D02*
G01*
X71144600Y32038200D01*
X71144600Y31901150D01*
X71145349Y31885914D01*
X71145575Y31883621D01*
X71147811Y31868552D01*
X71162350Y31795454D01*
X71171191Y31766307D01*
X71171196Y31766294D01*
X71172954Y31762051D01*
X71172957Y31762043D01*
X71187318Y31735174D01*
X71227238Y31675431D01*
X71228065Y31674194D01*
X71228069Y31674189D01*
X71228072Y31674185D01*
X71247386Y31650652D01*
X71250650Y31647388D01*
X71274183Y31628074D01*
X71274193Y31628066D01*
X71305095Y31607418D01*
X71335172Y31587320D01*
X71335174Y31587319D01*
X71362044Y31572957D01*
X71366298Y31571195D01*
X71395447Y31562353D01*
X71395452Y31562352D01*
X71395451Y31562352D01*
X71410466Y31559366D01*
X71468541Y31547813D01*
X71483609Y31545577D01*
X71485911Y31545350D01*
X71485909Y31545350D01*
X71488858Y31545206D01*
X71501161Y31544600D01*
X71501177Y31544600D01*
X71698823Y31544600D01*
X71698839Y31544600D01*
X71714089Y31545350D01*
X71716391Y31545577D01*
X71731460Y31547813D01*
X71804553Y31562353D01*
X71833701Y31571195D01*
X71837955Y31572957D01*
X71864825Y31587319D01*
X71925806Y31628066D01*
X71949353Y31647392D01*
X71952608Y31650647D01*
X71971934Y31674194D01*
X72012681Y31735175D01*
X72027043Y31762045D01*
X72028805Y31766299D01*
X72037647Y31795447D01*
X72052187Y31868540D01*
X72054423Y31883609D01*
X72054650Y31885911D01*
X72055400Y31901161D01*
X72055400Y32038200D01*
X72058856Y32046544D01*
X72067200Y32050000D01*
X72848839Y32050000D01*
X72851141Y32049773D01*
X72924234Y32035234D01*
X72928488Y32033472D01*
X72989469Y31992725D01*
X72992724Y31989470D01*
X73033471Y31928489D01*
X73035233Y31924235D01*
X73049773Y31851142D01*
X73050000Y31848840D01*
X73050000Y30151161D01*
X73049773Y30148859D01*
X73035233Y30075766D01*
X73033471Y30071512D01*
X72992724Y30010531D01*
X72989469Y30007276D01*
X72928488Y29966529D01*
X72924234Y29964767D01*
X72851141Y29950227D01*
X72848839Y29950000D01*
X70351161Y29950000D01*
X70348859Y29950227D01*
X70275765Y29964767D01*
X70271511Y29966529D01*
X70210530Y30007276D01*
X70207275Y30010531D01*
X70166528Y30071512D01*
X70164766Y30075766D01*
X70150227Y30148859D01*
X70150000Y30151161D01*
X70150000Y31848840D01*
X70150227Y31851142D01*
X70156688Y31883621D01*
X70164766Y31924236D01*
X70166528Y31928489D01*
X70207275Y31989470D01*
X70210528Y31992724D01*
X70271512Y32033473D01*
X70275764Y32035234D01*
X70348859Y32049773D01*
X70351161Y32050000D01*
X71132800Y32050000D01*
X71141144Y32046544D01*
G37*
%TD.AperFunction*%
%TD*%
%TA.AperFunction,Conductor*%
%TO.N,/SHLD*%
G36*
X6306433Y29299153D02*
G01*
X6321739Y29297138D01*
X6416489Y29284664D01*
X6441447Y29277977D01*
X6537960Y29238000D01*
X6560336Y29225082D01*
X6643216Y29161485D01*
X6661484Y29143217D01*
X6725079Y29060340D01*
X6738001Y29037958D01*
X6777975Y28941452D01*
X6784664Y28916488D01*
X6799153Y28806434D01*
X6800000Y28793512D01*
X6800000Y20206489D01*
X6799153Y20193567D01*
X6784664Y20083513D01*
X6777975Y20058549D01*
X6738001Y19962043D01*
X6725079Y19939661D01*
X6661487Y19856787D01*
X6643213Y19838513D01*
X6560339Y19774921D01*
X6537957Y19761999D01*
X6441451Y19722025D01*
X6416487Y19715336D01*
X6306434Y19700847D01*
X6293512Y19700000D01*
X506488Y19700000D01*
X493566Y19700847D01*
X383512Y19715336D01*
X358548Y19722025D01*
X262042Y19761999D01*
X239660Y19774921D01*
X156783Y19838516D01*
X138512Y19856788D01*
X74920Y19939663D01*
X61997Y19962047D01*
X58035Y19971613D01*
X50500Y20009496D01*
X50500Y21685766D01*
X4674500Y21685766D01*
X4674500Y21534234D01*
X4709086Y21405153D01*
X4713720Y21387861D01*
X4789481Y21256640D01*
X4789483Y21256638D01*
X4789485Y21256635D01*
X4896635Y21149485D01*
X4896637Y21149484D01*
X4896639Y21149482D01*
X5027861Y21073721D01*
X5027859Y21073721D01*
X5027863Y21073720D01*
X5027865Y21073719D01*
X5174234Y21034500D01*
X5174236Y21034500D01*
X5325764Y21034500D01*
X5325766Y21034500D01*
X5472135Y21073719D01*
X5472137Y21073721D01*
X5472139Y21073721D01*
X5603360Y21149482D01*
X5603360Y21149483D01*
X5603365Y21149485D01*
X5710515Y21256635D01*
X5786281Y21387865D01*
X5825500Y21534234D01*
X5825500Y21685766D01*
X5786281Y21832135D01*
X5786279Y21832138D01*
X5786279Y21832140D01*
X5710518Y21963361D01*
X5710516Y21963363D01*
X5710515Y21963365D01*
X5603365Y22070515D01*
X5603362Y22070517D01*
X5603360Y22070519D01*
X5472138Y22146280D01*
X5472140Y22146280D01*
X5415347Y22161497D01*
X5325766Y22185500D01*
X5174234Y22185500D01*
X5084652Y22161497D01*
X5027860Y22146280D01*
X4896639Y22070519D01*
X4789481Y21963361D01*
X4713720Y21832140D01*
X4713719Y21832135D01*
X4674500Y21685766D01*
X50500Y21685766D01*
X50500Y25400003D01*
X3944968Y25400003D01*
X3944968Y25399998D01*
X3963398Y25271809D01*
X3963399Y25271806D01*
X3963399Y25271805D01*
X3963400Y25271803D01*
X3993657Y25205550D01*
X4017204Y25153989D01*
X4102014Y25056112D01*
X4102016Y25056111D01*
X4102017Y25056110D01*
X4210973Y24986088D01*
X4335242Y24949600D01*
X4335244Y24949600D01*
X4464756Y24949600D01*
X4464758Y24949600D01*
X4589027Y24986088D01*
X4697983Y25056110D01*
X4782797Y25153991D01*
X4836600Y25271803D01*
X4836600Y25271809D01*
X4838596Y25278600D01*
X4841568Y25277728D01*
X4862691Y25320786D01*
X4916779Y25349388D01*
X4977350Y25340735D01*
X5007848Y25317506D01*
X5009593Y25315536D01*
X5127812Y25210803D01*
X5127815Y25210801D01*
X5127817Y25210800D01*
X5137822Y25205549D01*
X5180561Y25161766D01*
X5189402Y25101223D01*
X5166635Y25053059D01*
X5117204Y24996012D01*
X5063399Y24878195D01*
X5063398Y24878192D01*
X5044968Y24750003D01*
X5044968Y24749998D01*
X5063398Y24621809D01*
X5063399Y24621806D01*
X5117204Y24503989D01*
X5196416Y24412574D01*
X5220234Y24356215D01*
X5206376Y24296620D01*
X5167606Y24260084D01*
X5127815Y24239200D01*
X5127813Y24239199D01*
X5009594Y24134466D01*
X5009593Y24134464D01*
X4919869Y24004475D01*
X4919867Y24004472D01*
X4863863Y23856802D01*
X4863860Y23856793D01*
X4844823Y23700002D01*
X4844823Y23699999D01*
X4863860Y23543208D01*
X4863863Y23543199D01*
X4919867Y23395529D01*
X4919869Y23395526D01*
X5009593Y23265537D01*
X5009594Y23265535D01*
X5127812Y23160803D01*
X5127815Y23160801D01*
X5127817Y23160800D01*
X5267671Y23087399D01*
X5421027Y23049600D01*
X5421030Y23049600D01*
X5578970Y23049600D01*
X5578973Y23049600D01*
X5732329Y23087399D01*
X5872183Y23160800D01*
X5872185Y23160803D01*
X5872187Y23160803D01*
X5990405Y23265535D01*
X5990405Y23265536D01*
X5990407Y23265537D01*
X6080130Y23395524D01*
X6136139Y23543206D01*
X6155177Y23700000D01*
X6136139Y23856794D01*
X6080130Y24004476D01*
X5990407Y24134463D01*
X5990406Y24134464D01*
X5990405Y24134466D01*
X5872187Y24239198D01*
X5832394Y24260083D01*
X5789655Y24303868D01*
X5780815Y24364411D01*
X5803580Y24412571D01*
X5882797Y24503991D01*
X5936600Y24621803D01*
X5955032Y24750000D01*
X5936600Y24878197D01*
X5882797Y24996009D01*
X5833364Y25053058D01*
X5809547Y25109418D01*
X5823406Y25169013D01*
X5862177Y25205549D01*
X5872183Y25210800D01*
X5990407Y25315537D01*
X6080130Y25445524D01*
X6136139Y25593206D01*
X6155177Y25750000D01*
X6136139Y25906794D01*
X6103980Y25991590D01*
X6080132Y26054472D01*
X6080130Y26054475D01*
X6080130Y26054476D01*
X5990407Y26184463D01*
X5990406Y26184464D01*
X5990405Y26184466D01*
X5872187Y26289198D01*
X5732327Y26362602D01*
X5578975Y26400400D01*
X5578973Y26400400D01*
X5421027Y26400400D01*
X5421024Y26400400D01*
X5267672Y26362602D01*
X5127812Y26289198D01*
X5009594Y26184466D01*
X5009593Y26184464D01*
X4919869Y26054476D01*
X4914113Y26039295D01*
X4875800Y25991590D01*
X4821546Y25975400D01*
X4705164Y25975400D01*
X4622321Y25941086D01*
X4622317Y25941083D01*
X4557990Y25876756D01*
X4503473Y25848979D01*
X4471998Y25850998D01*
X4471768Y25849392D01*
X4464759Y25850400D01*
X4464758Y25850400D01*
X4335242Y25850400D01*
X4335239Y25850400D01*
X4210975Y25813913D01*
X4210972Y25813912D01*
X4102014Y25743889D01*
X4017204Y25646012D01*
X3963399Y25528195D01*
X3963398Y25528192D01*
X3944968Y25400003D01*
X50500Y25400003D01*
X50500Y27465766D01*
X4674500Y27465766D01*
X4674500Y27314234D01*
X4709086Y27185153D01*
X4713720Y27167861D01*
X4789481Y27036640D01*
X4789483Y27036638D01*
X4789485Y27036635D01*
X4896635Y26929485D01*
X4896637Y26929484D01*
X4896639Y26929482D01*
X5027861Y26853721D01*
X5027859Y26853721D01*
X5027863Y26853720D01*
X5027865Y26853719D01*
X5174234Y26814500D01*
X5174236Y26814500D01*
X5325764Y26814500D01*
X5325766Y26814500D01*
X5472135Y26853719D01*
X5472137Y26853721D01*
X5472139Y26853721D01*
X5603360Y26929482D01*
X5603360Y26929483D01*
X5603365Y26929485D01*
X5710515Y27036635D01*
X5786281Y27167865D01*
X5825500Y27314234D01*
X5825500Y27465766D01*
X5786281Y27612135D01*
X5786279Y27612138D01*
X5786279Y27612140D01*
X5710518Y27743361D01*
X5710516Y27743363D01*
X5710515Y27743365D01*
X5603365Y27850515D01*
X5603362Y27850517D01*
X5603360Y27850519D01*
X5472138Y27926280D01*
X5472140Y27926280D01*
X5415347Y27941497D01*
X5325766Y27965500D01*
X5174234Y27965500D01*
X5084652Y27941497D01*
X5027860Y27926280D01*
X4896639Y27850519D01*
X4789481Y27743361D01*
X4713720Y27612140D01*
X4713719Y27612135D01*
X4674500Y27465766D01*
X50500Y27465766D01*
X50500Y28990505D01*
X58033Y29028384D01*
X61999Y29037959D01*
X74916Y29060334D01*
X138518Y29143221D01*
X156779Y29161482D01*
X239666Y29225084D01*
X262035Y29237999D01*
X358554Y29277978D01*
X383508Y29284664D01*
X480923Y29297489D01*
X493567Y29299153D01*
X506488Y29300000D01*
X6293512Y29300000D01*
X6306433Y29299153D01*
G37*
%TD.AperFunction*%
%TD*%
%TA.AperFunction,Conductor*%
%TO.N,/SWSH*%
G36*
X22339358Y1686112D02*
G01*
X22362122Y1669113D01*
X22472321Y1558915D01*
X22555164Y1524600D01*
X22555165Y1524600D01*
X26817982Y1524600D01*
X26859403Y1541758D01*
X26900825Y1558915D01*
X27002515Y1660606D01*
X27057027Y1688381D01*
X27085430Y1688753D01*
X27116493Y1684664D01*
X27141447Y1677977D01*
X27237960Y1638000D01*
X27260336Y1625082D01*
X27343216Y1561485D01*
X27361484Y1543217D01*
X27375770Y1524600D01*
X27425079Y1460340D01*
X27438001Y1437958D01*
X27477975Y1341452D01*
X27484664Y1316488D01*
X27499153Y1206434D01*
X27500000Y1193512D01*
X27500000Y706489D01*
X27499153Y693567D01*
X27484664Y583513D01*
X27477975Y558549D01*
X27438001Y462043D01*
X27425079Y439661D01*
X27361487Y356787D01*
X27343213Y338513D01*
X27260339Y274921D01*
X27237957Y261999D01*
X27141451Y222025D01*
X27116487Y215336D01*
X27006434Y200847D01*
X26993512Y200000D01*
X22306488Y200000D01*
X22293566Y200847D01*
X22183512Y215336D01*
X22158548Y222025D01*
X22062042Y261999D01*
X22039660Y274921D01*
X21956783Y338516D01*
X21938515Y356784D01*
X21874918Y439664D01*
X21862000Y462040D01*
X21822023Y558553D01*
X21815336Y583511D01*
X21800847Y693568D01*
X21800000Y706489D01*
X21800000Y1193512D01*
X21800847Y1206433D01*
X21802511Y1219077D01*
X21815336Y1316492D01*
X21822022Y1341446D01*
X21862001Y1437965D01*
X21874916Y1460334D01*
X21938518Y1543221D01*
X21956779Y1561482D01*
X22039666Y1625084D01*
X22062035Y1637999D01*
X22158554Y1677978D01*
X22183506Y1684664D01*
X22279199Y1697262D01*
X22339358Y1686112D01*
G37*
%TD.AperFunction*%
%TD*%
%TA.AperFunction,Conductor*%
%TO.N,GND*%
G36*
X22342121Y12779998D02*
G01*
X22388614Y12726342D01*
X22400000Y12674000D01*
X22400000Y11209080D01*
X22379998Y11140959D01*
X22326342Y11094466D01*
X22256068Y11084362D01*
X22205880Y11103082D01*
X22189032Y11113910D01*
X22189025Y11113913D01*
X22064758Y11150400D01*
X21935242Y11150400D01*
X21810974Y11113913D01*
X21810971Y11113911D01*
X21702016Y11043890D01*
X21702014Y11043889D01*
X21617206Y10946014D01*
X21617203Y10946010D01*
X21563400Y10828198D01*
X21563398Y10828191D01*
X21544968Y10700004D01*
X21544968Y10699997D01*
X21563398Y10571810D01*
X21563400Y10571803D01*
X21615502Y10457716D01*
X21625605Y10387442D01*
X21596112Y10322861D01*
X21589984Y10316279D01*
X21517475Y10243771D01*
X21472489Y10141886D01*
X21469600Y10116982D01*
X21469600Y9683019D01*
X21472489Y9658115D01*
X21517476Y9556230D01*
X21517477Y9556228D01*
X21596227Y9477478D01*
X21596229Y9477477D01*
X21596230Y9477476D01*
X21698114Y9432490D01*
X21723019Y9429601D01*
X21723021Y9429600D01*
X21723024Y9429600D01*
X22106979Y9429600D01*
X22106979Y9429601D01*
X22131886Y9432490D01*
X22223107Y9472769D01*
X22293501Y9481986D01*
X22357705Y9451681D01*
X22395334Y9391476D01*
X22400000Y9357504D01*
X22400000Y2672769D01*
X22399208Y2658662D01*
X22394852Y2619999D01*
X22394852Y2619996D01*
X22395358Y2615503D01*
X22383106Y2545571D01*
X22334992Y2493365D01*
X22270150Y2475400D01*
X14645554Y2475400D01*
X14577433Y2495402D01*
X14556459Y2512305D01*
X14512305Y2556459D01*
X14478279Y2618771D01*
X14475400Y2645554D01*
X14475400Y3294836D01*
X14441085Y3377679D01*
X14441084Y3377680D01*
X14377679Y3441085D01*
X14268949Y3549815D01*
X19088789Y3549815D01*
X19088789Y3549808D01*
X19107219Y3421621D01*
X19107221Y3421614D01*
X19161024Y3303802D01*
X19161027Y3303798D01*
X19245835Y3205923D01*
X19245837Y3205922D01*
X19245838Y3205921D01*
X19354794Y3135899D01*
X19479063Y3099411D01*
X19608579Y3099411D01*
X19732848Y3135899D01*
X19841804Y3205921D01*
X19845684Y3210398D01*
X19870075Y3238548D01*
X19926618Y3303802D01*
X19980421Y3421614D01*
X19998853Y3549811D01*
X19998853Y3549815D01*
X19980422Y3678002D01*
X19980421Y3678003D01*
X19980421Y3678008D01*
X19951745Y3740798D01*
X19941641Y3811071D01*
X19951745Y3845482D01*
X19957925Y3859014D01*
X19986600Y3921803D01*
X20005032Y4050000D01*
X20005032Y4050004D01*
X19986601Y4178191D01*
X19986600Y4178192D01*
X19986600Y4178197D01*
X19932797Y4296009D01*
X19932793Y4296014D01*
X19847985Y4393889D01*
X19847983Y4393890D01*
X19739027Y4463912D01*
X19739026Y4463913D01*
X19739025Y4463913D01*
X19614758Y4500400D01*
X19485242Y4500400D01*
X19360974Y4463913D01*
X19360971Y4463911D01*
X19252016Y4393890D01*
X19252014Y4393889D01*
X19167206Y4296014D01*
X19167203Y4296010D01*
X19113400Y4178198D01*
X19113398Y4178191D01*
X19094968Y4050004D01*
X19094968Y4049997D01*
X19113398Y3921810D01*
X19113400Y3921803D01*
X19142075Y3859014D01*
X19152178Y3788740D01*
X19142075Y3754331D01*
X19107222Y3678012D01*
X19107219Y3678002D01*
X19088789Y3549815D01*
X14268949Y3549815D01*
X14077679Y3741085D01*
X14077678Y3741086D01*
X13994835Y3775400D01*
X13494835Y3775400D01*
X13405165Y3775400D01*
X13322321Y3741086D01*
X13322320Y3741085D01*
X13240357Y3659121D01*
X13022321Y3441085D01*
X13002857Y3421621D01*
X12958915Y3377680D01*
X12958914Y3377679D01*
X12948768Y3353182D01*
X12904220Y3297901D01*
X12836856Y3275480D01*
X12832359Y3275400D01*
X11245554Y3275400D01*
X11177433Y3295402D01*
X11156459Y3312305D01*
X10562305Y3906459D01*
X10528279Y3968771D01*
X10525400Y3995554D01*
X10525400Y5715004D01*
X20144968Y5715004D01*
X20144968Y5714997D01*
X20163398Y5586810D01*
X20163400Y5586803D01*
X20217203Y5468991D01*
X20217206Y5468987D01*
X20302014Y5371112D01*
X20302016Y5371111D01*
X20302017Y5371110D01*
X20410973Y5301088D01*
X20535242Y5264600D01*
X20664758Y5264600D01*
X20789027Y5301088D01*
X20897983Y5371110D01*
X20982797Y5468991D01*
X21036600Y5586803D01*
X21055032Y5715000D01*
X21055032Y5715004D01*
X21036601Y5843191D01*
X21036600Y5843192D01*
X21036600Y5843197D01*
X20982797Y5961009D01*
X20982793Y5961014D01*
X20897985Y6058889D01*
X20897979Y6058894D01*
X20841262Y6095344D01*
X20794769Y6148999D01*
X20784666Y6219274D01*
X20814159Y6283854D01*
X20841258Y6307336D01*
X20905483Y6348610D01*
X20990297Y6446491D01*
X21044100Y6564303D01*
X21062532Y6692500D01*
X21062532Y6692504D01*
X21044101Y6820691D01*
X21044100Y6820692D01*
X21044100Y6820697D01*
X20990297Y6938509D01*
X20980687Y6949600D01*
X20905485Y7036389D01*
X20905483Y7036390D01*
X20874798Y7056110D01*
X20796527Y7106412D01*
X20796526Y7106413D01*
X20796525Y7106413D01*
X20672258Y7142900D01*
X20542742Y7142900D01*
X20418474Y7106413D01*
X20418471Y7106411D01*
X20309516Y7036390D01*
X20309514Y7036389D01*
X20224706Y6938514D01*
X20224703Y6938510D01*
X20170900Y6820698D01*
X20170898Y6820691D01*
X20152468Y6692504D01*
X20152468Y6692497D01*
X20170898Y6564310D01*
X20170900Y6564303D01*
X20224703Y6446491D01*
X20224706Y6446487D01*
X20309514Y6348612D01*
X20309516Y6348611D01*
X20309517Y6348610D01*
X20345632Y6325400D01*
X20366237Y6312158D01*
X20412730Y6258502D01*
X20422833Y6188228D01*
X20393340Y6123647D01*
X20366237Y6100162D01*
X20302016Y6058890D01*
X20302014Y6058889D01*
X20217206Y5961014D01*
X20217203Y5961010D01*
X20163400Y5843198D01*
X20163398Y5843191D01*
X20144968Y5715004D01*
X10525400Y5715004D01*
X10525400Y6554446D01*
X10545402Y6622567D01*
X10562299Y6643536D01*
X10800876Y6882113D01*
X10863185Y6916135D01*
X10934000Y6911071D01*
X10985191Y6875528D01*
X11002017Y6856110D01*
X11110973Y6786088D01*
X11235242Y6749600D01*
X11364758Y6749600D01*
X11489027Y6786088D01*
X11597983Y6856110D01*
X11682797Y6953991D01*
X11736600Y7071803D01*
X11746822Y7142900D01*
X11755032Y7199997D01*
X11755032Y7200004D01*
X11736601Y7328191D01*
X11736600Y7328192D01*
X11736600Y7328197D01*
X11682797Y7446009D01*
X11682793Y7446014D01*
X11597985Y7543889D01*
X11597983Y7543890D01*
X11597981Y7543891D01*
X11489027Y7613912D01*
X11489026Y7613913D01*
X11489025Y7613913D01*
X11364758Y7650400D01*
X11235242Y7650400D01*
X11110974Y7613913D01*
X11110971Y7613911D01*
X11002017Y7543891D01*
X10937028Y7468888D01*
X10877302Y7430504D01*
X10841803Y7425400D01*
X10755165Y7425400D01*
X10672321Y7391086D01*
X10672317Y7391083D01*
X10615095Y7333860D01*
X10552783Y7299834D01*
X10481968Y7304899D01*
X10425132Y7347446D01*
X10400321Y7413966D01*
X10400000Y7422955D01*
X10400000Y9050004D01*
X13244968Y9050004D01*
X13244968Y9049997D01*
X13263398Y8921810D01*
X13263400Y8921803D01*
X13306538Y8827343D01*
X13306539Y8827342D01*
X13316642Y8757068D01*
X13306539Y8722659D01*
X13301771Y8712219D01*
X13263400Y8628198D01*
X13263398Y8628191D01*
X13244968Y8500004D01*
X13244968Y8499997D01*
X13263398Y8371810D01*
X13263400Y8371803D01*
X13306538Y8277343D01*
X13306539Y8277342D01*
X13316642Y8207068D01*
X13306539Y8172659D01*
X13301771Y8162219D01*
X13263400Y8078198D01*
X13263398Y8078191D01*
X13244968Y7950004D01*
X13244968Y7949997D01*
X13263398Y7821810D01*
X13263400Y7821803D01*
X13306538Y7727343D01*
X13306539Y7727342D01*
X13316642Y7657068D01*
X13306539Y7622659D01*
X13302545Y7613913D01*
X13263400Y7528198D01*
X13263398Y7528191D01*
X13244968Y7400004D01*
X13244968Y7399997D01*
X13263398Y7271810D01*
X13263400Y7271803D01*
X13317203Y7153991D01*
X13317206Y7153987D01*
X13402014Y7056112D01*
X13402016Y7056111D01*
X13402017Y7056110D01*
X13510973Y6986088D01*
X13635242Y6949600D01*
X13764758Y6949600D01*
X13889027Y6986088D01*
X13997983Y7056110D01*
X14082797Y7153991D01*
X14136600Y7271803D01*
X14141359Y7304899D01*
X14155032Y7399997D01*
X14155032Y7400004D01*
X14136601Y7528191D01*
X14136600Y7528192D01*
X14136600Y7528197D01*
X14093460Y7622659D01*
X14083356Y7692931D01*
X14093461Y7727342D01*
X14136600Y7821803D01*
X14155032Y7950000D01*
X14155032Y7950004D01*
X14136601Y8078191D01*
X14136600Y8078192D01*
X14136600Y8078197D01*
X14093460Y8172659D01*
X14083356Y8242931D01*
X14093461Y8277342D01*
X14136600Y8371803D01*
X14154388Y8495521D01*
X14155032Y8499997D01*
X14155032Y8500004D01*
X14136601Y8628191D01*
X14136600Y8628192D01*
X14136600Y8628197D01*
X14093460Y8722659D01*
X14083356Y8792931D01*
X14093461Y8827342D01*
X14136600Y8921803D01*
X14155032Y9050000D01*
X14155032Y9050004D01*
X14136601Y9178191D01*
X14136600Y9178192D01*
X14136600Y9178197D01*
X14117888Y9219170D01*
X19024600Y9219170D01*
X19024600Y8380826D01*
X19029132Y8363914D01*
X19029132Y8363913D01*
X19029133Y8363913D01*
X19029133Y8363912D01*
X19053836Y8271721D01*
X19060405Y8247204D01*
X19060407Y8247199D01*
X19129572Y8127401D01*
X19129580Y8127391D01*
X19227390Y8029581D01*
X19227395Y8029577D01*
X19227397Y8029575D01*
X19347203Y7960405D01*
X19480829Y7924600D01*
X19480830Y7924600D01*
X19480831Y7924600D01*
X19619169Y7924600D01*
X19619170Y7924600D01*
X19619171Y7924600D01*
X19752797Y7960405D01*
X19872603Y8029575D01*
X19970425Y8127397D01*
X19977602Y8134574D01*
X19977605Y8134579D01*
X20080724Y8237696D01*
X20143037Y8271721D01*
X20169819Y8274600D01*
X20220466Y8274600D01*
X20279021Y8260168D01*
X20417671Y8187399D01*
X20571027Y8149600D01*
X20571028Y8149600D01*
X20728972Y8149600D01*
X20728973Y8149600D01*
X20882329Y8187399D01*
X21022183Y8260800D01*
X21140407Y8365537D01*
X21230130Y8495524D01*
X21286139Y8643206D01*
X21286139Y8643207D01*
X21286140Y8643209D01*
X21305177Y8799997D01*
X21305177Y8800004D01*
X21286140Y8956792D01*
X21230128Y9104480D01*
X21140409Y9234461D01*
X21140407Y9234463D01*
X21022183Y9339200D01*
X20882329Y9412601D01*
X20882328Y9412602D01*
X20882327Y9412602D01*
X20728974Y9450400D01*
X20728973Y9450400D01*
X20571027Y9450400D01*
X20571025Y9450400D01*
X20417673Y9412602D01*
X20417672Y9412602D01*
X20279021Y9339832D01*
X20220466Y9325400D01*
X20169818Y9325400D01*
X20101697Y9345402D01*
X20080723Y9362305D01*
X19970425Y9472603D01*
X19872603Y9570425D01*
X19872602Y9570426D01*
X19872599Y9570428D01*
X19752801Y9639593D01*
X19752799Y9639594D01*
X19752797Y9639595D01*
X19752794Y9639596D01*
X19752789Y9639598D01*
X19683683Y9658115D01*
X19683683Y9658114D01*
X19619171Y9675400D01*
X19480829Y9675400D01*
X19416317Y9658114D01*
X19416316Y9658115D01*
X19347210Y9639598D01*
X19347198Y9639593D01*
X19227400Y9570428D01*
X19227390Y9570420D01*
X19129580Y9472610D01*
X19129572Y9472600D01*
X19084130Y9393890D01*
X19084129Y9393889D01*
X19060407Y9352803D01*
X19060405Y9352799D01*
X19060405Y9352797D01*
X19028698Y9234463D01*
X19024600Y9219170D01*
X14117888Y9219170D01*
X14082797Y9296009D01*
X14057330Y9325400D01*
X13997985Y9393889D01*
X13997983Y9393890D01*
X13942417Y9429600D01*
X13889027Y9463912D01*
X13889026Y9463913D01*
X13889025Y9463913D01*
X13764758Y9500400D01*
X13635242Y9500400D01*
X13510974Y9463913D01*
X13510971Y9463911D01*
X13402016Y9393890D01*
X13402014Y9393889D01*
X13317206Y9296014D01*
X13317203Y9296010D01*
X13263400Y9178198D01*
X13263398Y9178191D01*
X13244968Y9050004D01*
X10400000Y9050004D01*
X10400000Y11529046D01*
X10420002Y11597167D01*
X10436905Y11618141D01*
X11581859Y12763095D01*
X11644171Y12797121D01*
X11670954Y12800000D01*
X22274000Y12800000D01*
X22342121Y12779998D01*
G37*
%TD.AperFunction*%
%TD*%
M02*
