%TF.GenerationSoftware,KiCad,Pcbnew,8.0.2-1*%
%TF.CreationDate,2024-05-28T01:52:33+02:00*%
%TF.ProjectId,glasgow,676c6173-676f-4772-9e6b-696361645f70,C3*%
%TF.SameCoordinates,Original*%
%TF.FileFunction,Soldermask,Bot*%
%TF.FilePolarity,Negative*%
%FSLAX46Y46*%
G04 Gerber Fmt 4.6, Leading zero omitted, Abs format (unit mm)*
G04 Created by KiCad (PCBNEW 8.0.2-1) date 2024-05-28 01:52:33*
%MOMM*%
%LPD*%
G01*
G04 APERTURE LIST*
G04 Aperture macros list*
%AMRoundRect*
0 Rectangle with rounded corners*
0 $1 Rounding radius*
0 $2 $3 $4 $5 $6 $7 $8 $9 X,Y pos of 4 corners*
0 Add a 4 corners polygon primitive as box body*
4,1,4,$2,$3,$4,$5,$6,$7,$8,$9,$2,$3,0*
0 Add four circle primitives for the rounded corners*
1,1,$1+$1,$2,$3*
1,1,$1+$1,$4,$5*
1,1,$1+$1,$6,$7*
1,1,$1+$1,$8,$9*
0 Add four rect primitives between the rounded corners*
20,1,$1+$1,$2,$3,$4,$5,0*
20,1,$1+$1,$4,$5,$6,$7,0*
20,1,$1+$1,$6,$7,$8,$9,0*
20,1,$1+$1,$8,$9,$2,$3,0*%
G04 Aperture macros list end*
%ADD10C,1.000000*%
%ADD11O,1.000000X1.000000*%
%ADD12RoundRect,0.425000X0.425000X0.425000X-0.425000X0.425000X-0.425000X-0.425000X0.425000X-0.425000X0*%
%ADD13O,1.700000X1.700000*%
%ADD14C,0.800000*%
%ADD15C,7.000000*%
%ADD16RoundRect,0.250000X0.600000X-0.600000X0.600000X0.600000X-0.600000X0.600000X-0.600000X-0.600000X0*%
%ADD17C,1.700000*%
%ADD18C,0.650000*%
%ADD19O,2.100000X1.000000*%
%ADD20O,1.600000X1.000000*%
%ADD21C,0.760000*%
%ADD22RoundRect,0.249999X0.620001X0.850001X-0.620001X0.850001X-0.620001X-0.850001X0.620001X-0.850001X0*%
%ADD23O,1.740000X2.200000*%
%ADD24RoundRect,0.250000X-0.600000X0.600000X-0.600000X-0.600000X0.600000X-0.600000X0.600000X0.600000X0*%
%ADD25C,1.200000*%
%ADD26C,1.500000*%
%ADD27RoundRect,0.147500X0.147500X0.172500X-0.147500X0.172500X-0.147500X-0.172500X0.147500X-0.172500X0*%
%ADD28RoundRect,0.147500X0.172500X-0.147500X0.172500X0.147500X-0.172500X0.147500X-0.172500X-0.147500X0*%
%ADD29RoundRect,0.147500X-0.172500X0.147500X-0.172500X-0.147500X0.172500X-0.147500X0.172500X0.147500X0*%
%ADD30RoundRect,0.147500X-0.147500X-0.172500X0.147500X-0.172500X0.147500X0.172500X-0.147500X0.172500X0*%
%ADD31RoundRect,0.218750X0.218750X0.256250X-0.218750X0.256250X-0.218750X-0.256250X0.218750X-0.256250X0*%
%ADD32RoundRect,0.218750X-0.218750X-0.256250X0.218750X-0.256250X0.218750X0.256250X-0.218750X0.256250X0*%
%ADD33RoundRect,0.218750X0.256250X-0.218750X0.256250X0.218750X-0.256250X0.218750X-0.256250X-0.218750X0*%
%ADD34RoundRect,0.218750X-0.256250X0.218750X-0.256250X-0.218750X0.256250X-0.218750X0.256250X0.218750X0*%
G04 APERTURE END LIST*
D10*
%TO.C,J9*%
X57800000Y32400000D03*
D11*
X59070000Y32400000D03*
X60340000Y32400000D03*
X61610000Y32400000D03*
X62880000Y32400000D03*
X64150000Y32400000D03*
X65420000Y32400000D03*
X66690000Y32400000D03*
%TD*%
D10*
%TO.C,J6*%
X66700000Y11500000D03*
D11*
X65430000Y11500000D03*
X64160000Y11500000D03*
X62890000Y11500000D03*
X61620000Y11500000D03*
X60350000Y11500000D03*
X59080000Y11500000D03*
X57810000Y11500000D03*
%TD*%
D10*
%TO.C,J7*%
X66700000Y16580000D03*
D11*
X65430000Y16580000D03*
X64160000Y16580000D03*
X62890000Y16580000D03*
X61620000Y16580000D03*
X60350000Y16580000D03*
X59080000Y16580000D03*
X57810000Y16580000D03*
%TD*%
D12*
%TO.C,J10*%
X55270000Y21960000D03*
D13*
X55270000Y24500000D03*
X55270000Y27040000D03*
%TD*%
D14*
%TO.C,MK1*%
X1375000Y4000000D03*
X2143845Y5856155D03*
X2143845Y2143845D03*
X4000000Y6625000D03*
D15*
X4000000Y4000000D03*
D14*
X4000000Y1375000D03*
X5856155Y5856155D03*
X5856155Y2143845D03*
X6625000Y4000000D03*
%TD*%
%TO.C,MK2*%
X1375000Y45000000D03*
X2143845Y46856155D03*
X2143845Y43143845D03*
X4000000Y47625000D03*
D15*
X4000000Y45000000D03*
D14*
X4000000Y42375000D03*
X5856155Y46856155D03*
X5856155Y43143845D03*
X6625000Y45000000D03*
%TD*%
%TO.C,MK4*%
X73375000Y4000000D03*
X74143845Y5856155D03*
X74143845Y2143845D03*
X76000000Y6625000D03*
D15*
X76000000Y4000000D03*
D14*
X76000000Y1375000D03*
X77856155Y5856155D03*
X77856155Y2143845D03*
X78625000Y4000000D03*
%TD*%
%TO.C,MK3*%
X73375000Y45000000D03*
X74143845Y46856155D03*
X74143845Y43143845D03*
X76000000Y47625000D03*
D15*
X76000000Y45000000D03*
D14*
X76000000Y42375000D03*
X77856155Y46856155D03*
X77856155Y43143845D03*
X78625000Y45000000D03*
%TD*%
D10*
%TO.C,J8*%
X57800000Y37500000D03*
D11*
X59070000Y37500000D03*
X60340000Y37500000D03*
X61610000Y37500000D03*
X62880000Y37500000D03*
X64150000Y37500000D03*
X65420000Y37500000D03*
X66690000Y37500000D03*
%TD*%
D16*
%TO.C,J2*%
X42570000Y42280000D03*
D17*
X42570000Y44820000D03*
X45110000Y42280000D03*
X45110000Y44820000D03*
X47650000Y42280000D03*
X47650000Y44820000D03*
X50190000Y42280000D03*
X50190000Y44820000D03*
X52730000Y42280000D03*
X52730000Y44820000D03*
X55270000Y42280000D03*
X55270000Y44820000D03*
X57810000Y42280000D03*
X57810000Y44820000D03*
X60350000Y42280000D03*
X60350000Y44820000D03*
X62890000Y42280000D03*
X62890000Y44820000D03*
X65430000Y42280000D03*
X65430000Y44820000D03*
%TD*%
D18*
%TO.C,J1*%
X5250000Y27390000D03*
X5250000Y21610000D03*
D19*
X5780000Y28820000D03*
D20*
X1600000Y28820000D03*
D19*
X5780000Y20180000D03*
D20*
X1600000Y20180000D03*
%TD*%
D21*
%TO.C,J5*%
X9800000Y43500000D03*
X35200000Y43500000D03*
%TD*%
D22*
%TO.C,J4*%
X34100000Y11600000D03*
D23*
X31560000Y11600000D03*
%TD*%
D24*
%TO.C,J3*%
X65430000Y6720000D03*
D17*
X65430000Y4180000D03*
X62890000Y6720000D03*
X62890000Y4180000D03*
X60350000Y6720000D03*
X60350000Y4180000D03*
X57810000Y6720000D03*
X57810000Y4180000D03*
X55270000Y6720000D03*
X55270000Y4180000D03*
X52730000Y6720000D03*
X52730000Y4180000D03*
X50190000Y6720000D03*
X50190000Y4180000D03*
X47650000Y6720000D03*
X47650000Y4180000D03*
X45110000Y6720000D03*
X45110000Y4180000D03*
X42570000Y6720000D03*
X42570000Y4180000D03*
%TD*%
D25*
%TO.C,SW1*%
X26150000Y2620000D03*
X23150000Y2620000D03*
X24650000Y770000D03*
%TD*%
D26*
%TO.C,FID4*%
X8000000Y1500000D03*
%TD*%
%TO.C,FID5*%
X72000000Y47500000D03*
%TD*%
D27*
%TO.C,C23*%
X34185000Y23300000D03*
X33215000Y23300000D03*
%TD*%
D28*
%TO.C,C77*%
X34900000Y24015000D03*
X34900000Y24985000D03*
%TD*%
D29*
%TO.C,C48*%
X49150000Y26735000D03*
X49150000Y25765000D03*
%TD*%
%TO.C,C49*%
X51050000Y35135000D03*
X51050000Y34165000D03*
%TD*%
%TO.C,C52*%
X51050000Y26735000D03*
X51050000Y25765000D03*
%TD*%
%TO.C,C64*%
X47050000Y23985000D03*
X47050000Y23015000D03*
%TD*%
%TO.C,C40*%
X47050000Y29535000D03*
X47050000Y28565000D03*
%TD*%
%TO.C,C68*%
X49150000Y23935000D03*
X49150000Y22965000D03*
%TD*%
%TO.C,C69*%
X49150000Y21135000D03*
X49150000Y20165000D03*
%TD*%
%TO.C,C70*%
X49150000Y18335000D03*
X49150000Y17365000D03*
%TD*%
%TO.C,C71*%
X49150000Y15535000D03*
X49150000Y14565000D03*
%TD*%
%TO.C,C72*%
X51050000Y23935000D03*
X51050000Y22965000D03*
%TD*%
%TO.C,C73*%
X51050000Y21135000D03*
X51050000Y20165000D03*
%TD*%
%TO.C,C74*%
X51050000Y18335000D03*
X51050000Y17365000D03*
%TD*%
D30*
%TO.C,C18*%
X31615000Y22500000D03*
X32585000Y22500000D03*
%TD*%
D27*
%TO.C,C33*%
X34185000Y25700000D03*
X33215000Y25700000D03*
%TD*%
%TO.C,C78*%
X30300000Y25100000D03*
X29330000Y25100000D03*
%TD*%
%TO.C,R31*%
X28385000Y22400000D03*
X27415000Y22400000D03*
%TD*%
D31*
%TO.C,C76*%
X29387500Y23600000D03*
X27812500Y23600000D03*
%TD*%
D30*
%TO.C,C24*%
X34815000Y26500000D03*
X35785000Y26500000D03*
%TD*%
%TO.C,C7*%
X16815000Y28450000D03*
X17785000Y28450000D03*
%TD*%
D27*
%TO.C,C6*%
X22585000Y20550000D03*
X21615000Y20550000D03*
%TD*%
D29*
%TO.C,C9*%
X15900000Y26720000D03*
X15900000Y25750000D03*
%TD*%
D30*
%TO.C,C10*%
X17615000Y20550000D03*
X18585000Y20550000D03*
%TD*%
D27*
%TO.C,C5*%
X22985000Y28450000D03*
X22015000Y28450000D03*
%TD*%
D32*
%TO.C,C1*%
X14612500Y20500000D03*
X16187500Y20500000D03*
%TD*%
D29*
%TO.C,C2*%
X15900000Y22735000D03*
X15900000Y21765000D03*
%TD*%
%TO.C,C3*%
X15900000Y24735000D03*
X15900000Y23765000D03*
%TD*%
%TO.C,C4*%
X23800000Y22720000D03*
X23800000Y21750000D03*
%TD*%
D28*
%TO.C,C81*%
X30050000Y20015000D03*
X30050000Y20985000D03*
%TD*%
%TO.C,R32*%
X39850000Y23765000D03*
X39850000Y24735000D03*
%TD*%
D29*
%TO.C,C38*%
X47050000Y35135000D03*
X47050000Y34165000D03*
%TD*%
%TO.C,C34*%
X45150000Y35135000D03*
X45150000Y34165000D03*
%TD*%
%TO.C,C60*%
X45150000Y23985000D03*
X45150000Y23015000D03*
%TD*%
%TO.C,C65*%
X47050000Y21135000D03*
X47050000Y20165000D03*
%TD*%
%TO.C,C61*%
X45150000Y21135000D03*
X45150000Y20165000D03*
%TD*%
%TO.C,C62*%
X45150000Y18335000D03*
X45150000Y17365000D03*
%TD*%
%TO.C,C66*%
X47050000Y18335000D03*
X47050000Y17365000D03*
%TD*%
%TO.C,C63*%
X45150000Y15535000D03*
X45150000Y14565000D03*
%TD*%
%TO.C,C67*%
X47050000Y15535000D03*
X47050000Y14565000D03*
%TD*%
%TO.C,C35*%
X45150000Y32335000D03*
X45150000Y31365000D03*
%TD*%
%TO.C,C37*%
X45150000Y26735000D03*
X45150000Y25765000D03*
%TD*%
%TO.C,C36*%
X45150000Y29535000D03*
X45150000Y28565000D03*
%TD*%
%TO.C,C25*%
X31700000Y25785000D03*
X31700000Y24815000D03*
%TD*%
%TO.C,C42*%
X49150000Y35135000D03*
X49150000Y34165000D03*
%TD*%
%TO.C,C43*%
X49150000Y32335000D03*
X49150000Y31365000D03*
%TD*%
%TO.C,C47*%
X49150000Y29535000D03*
X49150000Y28565000D03*
%TD*%
%TO.C,C41*%
X47050000Y26735000D03*
X47050000Y25765000D03*
%TD*%
D26*
%TO.C,FID6*%
X72000000Y1500000D03*
%TD*%
D32*
%TO.C,C19*%
X35112500Y20000000D03*
X36687500Y20000000D03*
%TD*%
D10*
%TO.C,TP12*%
X38300000Y9000000D03*
%TD*%
%TO.C,TP11*%
X38300000Y6500000D03*
%TD*%
%TO.C,TP10*%
X38300000Y4000000D03*
%TD*%
%TO.C,TP8*%
X31500000Y4000000D03*
%TD*%
%TO.C,TP9*%
X31500000Y9000000D03*
%TD*%
%TO.C,TP13*%
X5500000Y25750000D03*
%TD*%
%TO.C,TP14*%
X7900000Y23200000D03*
%TD*%
%TO.C,TP16*%
X7900000Y25300000D03*
%TD*%
%TO.C,TP15*%
X5500000Y23700000D03*
%TD*%
D33*
%TO.C,C80*%
X38400000Y23712500D03*
X38400000Y25287500D03*
%TD*%
D29*
%TO.C,C85*%
X39800000Y21235000D03*
X39800000Y20265000D03*
%TD*%
D28*
%TO.C,C21*%
X35700000Y24715000D03*
X35700000Y25685000D03*
%TD*%
%TO.C,C79*%
X37200000Y24015000D03*
X37200000Y24985000D03*
%TD*%
D10*
%TO.C,TP17*%
X20650000Y8800000D03*
%TD*%
D34*
%TO.C,R48*%
X74050000Y17387500D03*
X74050000Y15812500D03*
%TD*%
D33*
%TO.C,R49*%
X72550000Y31612500D03*
X72550000Y33187500D03*
%TD*%
D10*
%TO.C,TP18*%
X72000000Y20200000D03*
%TD*%
%TO.C,TP19*%
X74600000Y28800000D03*
%TD*%
D29*
%TO.C,C75*%
X51050000Y15535000D03*
X51050000Y14565000D03*
%TD*%
%TO.C,C51*%
X51050000Y29535000D03*
X51050000Y28565000D03*
%TD*%
%TO.C,C39*%
X47050000Y32335000D03*
X47050000Y31365000D03*
%TD*%
%TO.C,C50*%
X51050000Y32335000D03*
X51050000Y31365000D03*
%TD*%
D27*
%TO.C,C44*%
X73785000Y12200000D03*
X72815000Y12200000D03*
%TD*%
D30*
%TO.C,C58*%
X72815000Y36800000D03*
X73785000Y36800000D03*
%TD*%
D29*
%TO.C,R25*%
X73800000Y14585000D03*
X73800000Y13615000D03*
%TD*%
D28*
%TO.C,R54*%
X72800000Y34415000D03*
X72800000Y35385000D03*
%TD*%
D34*
%TO.C,R6*%
X75950000Y20187500D03*
X75950000Y18612500D03*
%TD*%
%TO.C,R7*%
X74050000Y20187500D03*
X74050000Y18612500D03*
%TD*%
D33*
%TO.C,R8*%
X70650000Y28812500D03*
X70650000Y30387500D03*
%TD*%
%TO.C,R56*%
X72550000Y28812500D03*
X72550000Y30387500D03*
%TD*%
D30*
%TO.C,C17*%
X25415000Y9900000D03*
X26385000Y9900000D03*
%TD*%
%TO.C,C15*%
X21915000Y9900000D03*
X22885000Y9900000D03*
%TD*%
%TO.C,C20*%
X37165000Y21200000D03*
X38135000Y21200000D03*
%TD*%
D34*
%TO.C,C14*%
X28150000Y19462500D03*
X28150000Y17887500D03*
%TD*%
D29*
%TO.C,R24*%
X72800000Y14585000D03*
X72800000Y13615000D03*
%TD*%
D28*
%TO.C,R30*%
X73800000Y34415000D03*
X73800000Y35385000D03*
%TD*%
%TO.C,R59*%
X77000000Y13615000D03*
X77000000Y14585000D03*
%TD*%
D29*
%TO.C,R60*%
X70800000Y35385000D03*
X70800000Y34415000D03*
%TD*%
D34*
%TO.C,R50*%
X75950000Y17387500D03*
X75950000Y15812500D03*
%TD*%
D33*
%TO.C,R51*%
X70650000Y31612500D03*
X70650000Y33187500D03*
%TD*%
M02*
